WIPSHDC-New-Simplified-Sans.glyphspackage
{
glyphname = uni4E1C;
layers = (
{
layerId = m01;
shapes = (
{
closed = 1;
nodes = (
(362,830,l),
(308,654,o),
(226,456,o),
(149,317,c),
(179,312,l),
(254,448,o),
(336,646,o),
(392,825,c)
);
},
{
closed = 1;
nodes = (
(496,556,l),
(496,-18,ls),
(496,-32,o),
(493,-36,o),
(478,-37,cs),
(461,-38,o),
(410,-38,o),
(346,-37,c),
(351,-47,o),
(356,-60,o),
(359,-70,c),
(428,-70,o),
(474,-70,o),
(496,-64,cs),
(518,-58,o),
(526,-46,o),
(526,-18,cs),
(526,556,l)
);
},
{
closed = 1;
nodes = (
(302,262,l),
(254,164,o),
(171,68,o),
(88,12,c),
(95,7,o),
(105,-3,o),
(110,-10,c),
(195,50,o),
(280,151,o),
(331,254,c)
);
},
{
closed = 1;
nodes = (
(669,249,l),
(754,171,o),
(851,61,o),
(895,-10,c),
(919,9,l),
(874,79,o),
(777,186,o),
(691,264,c)
);
},
{
closed = 1;
nodes = (
(86,693,l),
(86,664,l),
(913,664,l),
(913,693,l)
);
},
{
closed = 1;
nodes = (
(199,389,l),
(199,360,l),
(853,360,l),
(853,389,l)
);
}
);
width = 1000;
},
{
layerId = "94DDBC6A-1627-4027-9125-871D02041BCD";
shapes = (
{
closed = 1;
nodes = (
(307,855,l),
(249,664,o),
(176,455,o),
(116,311,c),
(276,283,l),
(333,424,o),
(407,638,o),
(467,838,c)
);
},
{
closed = 1;
nodes = (
(448,551,l),
(448,69,ls),
(448,55,o),
(443,51,o),
(426,51,cs),
(409,51,o),
(353,51,o),
(305,53,c),
(326,13,o),
(351,-53,o),
(358,-95,c),
(432,-95,o),
(492,-91,o),
(537,-67,cs),
(582,-43,o),
(596,-4,o),
(596,66,cs),
(596,551,l)
);
},
{
closed = 1;
nodes = (
(218,260,l),
(185,177,o),
(120,91,o),
(50,37,c),
(85,16,o),
(145,-30,o),
(173,-56,c),
(246,10,o),
(320,117,o),
(364,220,c)
);
},
{
closed = 1;
nodes = (
(662,202,l),
(727,124,o),
(806,16,o),
(839,-52,c),
(973,15,l),
(935,85,o),
(851,187,o),
(786,260,c)
);
},
{
closed = 1;
nodes = (
(63,730,l),
(63,591,l),
(937,591,l),
(937,730,l)
);
},
{
closed = 1;
nodes = (
(257,451,l),
(257,310,l),
(871,310,l),
(871,451,l)
);
}
);
width = 1000;
}
);
note = cid09521;
unicode = 19996;
}
{
glyphname = uni4E50;
layers = (
{
layerId = m01;
shapes = (
{
closed = 1;
nodes = (
(835,814,l),
(690,779,o),
(431,745,o),
(208,733,c),
(212,727,o),
(217,716,o),
(218,708,c),
(437,718,o),
(700,752,o),
(856,789,c)
);
},
{
closed = 1;
nodes = (
(201,744,l),
(177,615,o),
(137,436,o),
(105,329,c),
(135,324,l),
(165,428,o),
(205,601,o),
(232,734,c)
);
},
{
closed = 1;
nodes = (
(148,416,l),
(139,387,l),
(922,387,l),
(922,416,l)
);
},
{
closed = 1;
nodes = (
(504,647,l),
(504,-20,ls),
(504,-37,o),
(497,-42,o),
(480,-43,cs),
(464,-44,o),
(407,-45,o),
(335,-43,c),
(340,-52,o),
(345,-64,o),
(348,-71,c),
(435,-71,o),
(478,-71,o),
(501,-65,cs),
(524,-60,o),
(533,-49,o),
(533,-19,cs),
(533,647,l)
);
},
{
closed = 1;
nodes = (
(256,273,l),
(203,180,o),
(122,83,o),
(47,18,c),
(54,12,o),
(66,0,o),
(71,-5,c),
(144,65,o),
(228,167,o),
(284,264,c)
);
},
{
closed = 1;
nodes = (
(706,257,l),
(787,178,o),
(882,67,o),
(928,0,c),
(953,19,l),
(907,84,o),
(811,193,o),
(729,272,c)
);
}
);
width = 1000;
},
{
layerId = "94DDBC6A-1627-4027-9125-871D02041BCD";
shapes = (
{
closed = 1;
nodes = (
(818,853,l),
(678,821,o),
(436,794,o),
(191,783,c),
(207,750,o),
(225,693,o),
(227,658,c),
(473,664,o),
(737,693,o),
(911,732,c)
);
},
{
closed = 1;
nodes = (
(161,802,l),
(134,633,o),
(97,445,o),
(64,314,c),
(211,297,l),
(242,428,o),
(279,617,o),
(306,787,c)
);
},
{
closed = 1;
nodes = (
(209,474,l),
(173,328,l),
(928,328,l),
(928,474,l)
);
},
{
closed = 1;
nodes = (
(447,626,l),
(447,72,ls),
(447,56,o),
(441,52,o),
(423,52,cs),
(404,52,o),
(342,52,o),
(291,54,c),
(312,13,o),
(334,-53,o),
(340,-95,c),
(424,-96,o),
(489,-92,o),
(537,-69,cs),
(584,-46,o),
(598,-6,o),
(598,69,cs),
(598,626,l)
);
},
{
closed = 1;
nodes = (
(206,283,l),
(162,201,o),
(89,108,o),
(24,50,c),
(58,30,o),
(118,-13,o),
(146,-39,c),
(209,29,o),
(292,140,o),
(347,235,c)
);
},
{
closed = 1;
nodes = (
(671,229,l),
(730,146,o),
(803,32,o),
(833,-38,c),
(972,24,l),
(937,96,o),
(858,203,o),
(800,281,c)
);
}
);
width = 1000;
}
);
note = cid09589;
unicode = 20048;
}
{
glyphname = uni4EE4;
layers = (
{
layerId = m01;
shapes = (
{
closed = 1;
nodes = (
(595,669,o),
(779,520,o),
(937,433,c),
(941,440,o),
(950,451,o),
(957,458,c),
(801,539,o),
(612,691,o),
(507,830,c),
(479,830,l),
(397,697,o),
(223,542,o),
(47,446,c),
(54,439,o),
(62,429,o),
(66,424,c),
(241,523,o),
(414,677,o),
(496,800,c)
);
},
{
closed = 1;
nodes = (
(308,162,l),
(424,96,o),
(561,-4,o),
(630,-68,c),
(651,-47,l),
(581,19,o),
(444,116,o),
(329,181,c)
);
},
{
closed = 1;
nodes = (
(796,344,l),
(178,344,l),
(178,315,l),
(796,315,l)
);
},
{
closed = 1;
nodes = (
(799,344,l),
(791,344,l),
(791,338,l),
(706,251,o),
(588,147,o),
(485,69,c),
(511,51,l),
(609,128,o),
(730,236,o),
(824,331,c),
(805,347,l)
);
},
{
closed = 1;
nodes = (
(399,575,l),
(469,535,o),
(549,475,o),
(593,431,c),
(615,450,l),
(570,495,o),
(489,553,o),
(419,592,c)
);
}
);
vertWidth = 1000;
width = 1000;
},
{
layerId = "94DDBC6A-1627-4027-9125-871D02041BCD";
shapes = (
{
closed = 1;
nodes = (
(580,600,o),
(742,460,o),
(891,375,c),
(919,419,o),
(952,468,o),
(989,505,c),
(831,572,o),
(675,702,o),
(565,856,c),
(415,856,l),
(342,736,o),
(182,581,o),
(14,494,c),
(46,464,o),
(89,410,o),
(108,376,c),
(267,468,o),
(412,597,o),
(496,712,c)
);
},
{
closed = 1;
nodes = (
(266,100,l),
(406,38,o),
(560,-46,o),
(639,-103,c),
(744,15,l),
(659,70,o),
(501,147,o),
(363,202,c)
);
},
{
closed = 1;
nodes = (
(755,376,l),
(153,376,l),
(153,245,l),
(755,245,l)
);
},
{
closed = 1;
nodes = (
(748,376,l),
(722,376,l),
(722,362,l),
(645,283,o),
(530,178,o),
(425,88,c),
(547,5,l),
(640,84,o),
(764,198,o),
(868,301,c),
(772,382,l)
);
},
{
closed = 1;
nodes = (
(362,507,l),
(430,471,o),
(507,420,o),
(548,383,c),
(649,488,l),
(603,524,o),
(523,572,o),
(455,603,c)
);
}
);
vertWidth = 1000;
width = 1000;
}
);
note = cid09833;
unicode = 20196;
}
{
glyphname = uni4FE1;
layers = (
{
layerId = m01;
shapes = (
{
closed = 1;
nodes = (
(632,820,l),
(603,820,l),
(603,657,l),
(632,657,l)
);
},
{
closed = 1;
nodes = (
(868,528,l),
(378,528,l),
(378,498,l),
(868,498,l)
);
},
{
closed = 1;
nodes = (
(868,383,l),
(378,383,l),
(378,353,l),
(868,353,l)
);
},
{
closed = 1;
nodes = (
(857,14,l),
(388,14,l),
(388,-16,l),
(857,-16,l)
);
},
{
closed = 1;
nodes = (
(951,671,l),
(293,671,l),
(293,642,l),
(951,642,l)
);
},
{
closed = 1;
nodes = (
(872,239,l),
(374,239,l),
(374,-71,l),
(403,-71,l),
(403,210,l),
(843,210,l),
(843,-68,l),
(872,-68,l)
);
},
{
closed = 1;
nodes = (
(299,827,l),
(236,667,o),
(134,511,o),
(27,410,c),
(34,404,o),
(44,391,o),
(49,385,c),
(157,494,o),
(260,651,o),
(328,819,c)
);
},
{
closed = 1;
nodes = (
(187,-68,l),
(217,-68,l),
(217,615,l),
(215,616,l),
(187,588,l)
);
}
);
vertWidth = 1000;
width = 1000;
},
{
layerId = "94DDBC6A-1627-4027-9125-871D02041BCD";
shapes = (
{
closed = 1;
nodes = (
(722,845,l),
(578,845,l),
(578,679,l),
(722,679,l)
);
},
{
closed = 1;
nodes = (
(912,555,l),
(416,555,l),
(416,438,l),
(912,438,l)
);
},
{
closed = 1;
nodes = (
(907,403,l),
(416,403,l),
(416,286,l),
(907,286,l)
);
},
{
closed = 1;
nodes = (
(853,58,l),
(474,58,l),
(474,-59,l),
(853,-59,l)
);
},
{
closed = 1;
nodes = (
(978,710,l),
(338,710,l),
(338,590,l),
(978,590,l)
);
},
{
closed = 1;
nodes = (
(929,249,l),
(397,249,l),
(397,-94,l),
(536,-94,l),
(536,134,l),
(782,134,l),
(782,-91,l),
(929,-91,l)
);
},
{
closed = 1;
nodes = (
(242,853,l),
(190,715,o),
(100,577,o),
(8,491,c),
(32,455,o),
(70,374,o),
(83,339,c),
(197,453,o),
(309,639,o),
(377,809,c)
);
},
{
closed = 1;
nodes = (
(150,-92,l),
(288,-92,l),
(288,703,l),
(288,704,l),
(150,566,l)
);
}
);
vertWidth = 1000;
width = 1000;
}
);
note = cid10219;
unicode = 20449;
}
{
glyphname = uni5170;
layers = (
{
layerId = m01;
shapes = (
{
closed = 1;
nodes = (
(245,805,l),
(291,746,o),
(333,672,o),
(355,613,c),
(381,628,l),
(360,686,o),
(316,759,o),
(268,817,c)
);
},
{
closed = 1;
nodes = (
(729,828,l),
(697,754,o),
(654,673,o),
(616,619,c),
(639,607,l),
(676,660,o),
(722,740,o),
(758,816,c)
);
},
{
closed = 1;
nodes = (
(171,319,l),
(171,290,l),
(819,290,l),
(819,319,l)
);
},
{
closed = 1;
nodes = (
(65,22,l),
(65,-7,l),
(935,-7,l),
(935,22,l)
);
},
{
closed = 1;
nodes = (
(115,593,l),
(115,564,l),
(885,564,l),
(885,593,l)
);
}
);
vertWidth = 1000;
width = 1000;
},
{
layerId = "94DDBC6A-1627-4027-9125-871D02041BCD";
shapes = (
{
closed = 1;
nodes = (
(197,796,l),
(242,736,o),
(283,662,o),
(302,603,c),
(429,672,l),
(408,728,o),
(365,799,o),
(317,856,c)
);
},
{
closed = 1;
nodes = (
(666,856,l),
(641,787,o),
(606,714,o),
(575,667,c),
(696,621,l),
(729,665,o),
(777,736,o),
(820,805,c)
);
},
{
closed = 1;
nodes = (
(160,368,l),
(160,224,l),
(832,224,l),
(832,368,l)
);
},
{
closed = 1;
nodes = (
(50,80,l),
(50,-64,l),
(950,-64,l),
(950,80,l)
);
},
{
closed = 1;
nodes = (
(97,648,l),
(97,504,l),
(903,504,l),
(903,648,l)
);
}
);
vertWidth = 1000;
width = 1000;
}
);
note = cid10917;
unicode = 20848;
}
{
glyphname = uni5199;
layers = (
{
layerId = m01;
shapes = (
{
closed = 1;
nodes = (
(910,768,l),
(91,768,l),
(91,574,l),
(121,574,l),
(121,739,l),
(880,739,l),
(880,574,l),
(910,574,l)
);
},
{
closed = 1;
nodes = (
(802,572,l),
(293,572,l),
(293,543,l),
(802,543,l)
);
},
{
closed = 1;
nodes = (
(796,387,l),
(249,387,l),
(249,358,l),
(796,358,l)
);
},
{
closed = 1;
nodes = (
(661,200,l),
(70,200,l),
(70,171,l),
(661,171,l)
);
},
{
closed = 1;
nodes = (
(789,387,l),
(789,380,ls),
(763,104,o),
(739,-2,o),
(703,-33,cs),
(693,-43,o),
(681,-44,o),
(657,-44,cs),
(634,-44,o),
(565,-43,o),
(492,-36,c),
(497,-45,o),
(500,-57,o),
(502,-65,c),
(568,-70,o),
(633,-72,o),
(663,-71,cs),
(693,-71,o),
(710,-66,o),
(728,-51,cs),
(767,-14,o),
(791,89,o),
(817,368,cs),
(818,374,o),
(819,387,o),
(819,387,c)
);
},
{
closed = 1;
nodes = (
(313,719,l),
(288,598,o),
(247,424,o),
(217,325,c),
(247,320,l),
(276,418,o),
(318,591,o),
(343,715,c)
);
}
);
vertWidth = 1000;
width = 1000;
},
{
layerId = "94DDBC6A-1627-4027-9125-871D02041BCD";
shapes = (
{
closed = 1;
nodes = (
(947,813,l),
(58,813,l),
(58,556,l),
(203,556,l),
(203,679,l),
(794,679,l),
(794,556,l),
(947,556,l)
);
},
{
closed = 1;
nodes = (
(764,596,l),
(339,596,l),
(339,472,l),
(764,472,l)
);
},
{
closed = 1;
nodes = (
(754,427,l),
(319,427,l),
(319,301,l),
(754,301,l)
);
},
{
closed = 1;
nodes = (
(633,244,l),
(86,244,l),
(86,111,l),
(633,111,l)
);
},
{
closed = 1;
nodes = (
(715,427,l),
(714,406,ls),
(699,183,o),
(678,73,o),
(648,49,cs),
(634,38,o),
(620,36,o),
(599,36,cs),
(570,36,o),
(503,36,o),
(439,42,c),
(466,4,o),
(486,-54,o),
(488,-95,c),
(552,-97,o),
(616,-97,o),
(655,-93,cs),
(704,-88,o),
(738,-77,o),
(770,-42,cs),
(812,2,o),
(836,113,o),
(856,368,c),
(859,387,o),
(861,427,o),
(861,427,c)
);
},
{
closed = 1;
nodes = (
(276,671,l),
(259,552,o),
(227,393,o),
(200,285,c),
(348,275,l),
(372,380,o),
(402,538,o),
(421,658,c)
);
}
);
vertWidth = 1000;
width = 1000;
}
);
note = cid10998;
unicode = 20889;
}
{
glyphname = uni519B;
layers = (
{
layerId = m01;
shapes = (
{
closed = 1;
nodes = (
(916,783,l),
(86,783,l),
(86,594,l),
(116,594,l),
(116,754,l),
(886,754,l),
(886,594,l),
(916,594,l)
);
},
{
closed = 1;
nodes = (
(817,566,l),
(181,566,l),
(181,536,l),
(817,536,l)
);
},
{
closed = 1;
nodes = (
(930,146,l),
(74,146,l),
(74,117,l),
(930,117,l)
);
},
{
closed = 1;
nodes = (
(526,476,l),
(497,476,l),
(497,-70,l),
(526,-70,l)
);
},
{
closed = 1;
nodes = (
(846,330,l),
(242,330,l),
(242,301,l),
(846,301,l)
);
},
{
closed = 1;
nodes = (
(371,693,l),
(329,553,o),
(263,388,o),
(201,265,c),
(231,260,l),
(291,380,o),
(357,545,o),
(401,688,c)
);
}
);
width = 1000;
},
{
layerId = "94DDBC6A-1627-4027-9125-871D02041BCD";
shapes = (
{
closed = 1;
nodes = (
(939,823,l),
(61,823,l),
(61,579,l),
(201,579,l),
(201,698,l),
(792,698,l),
(792,579,l),
(939,579,l)
);
},
{
closed = 1;
nodes = (
(829,599,l),
(169,599,l),
(169,476,l),
(829,476,l)
);
},
{
closed = 1;
nodes = (
(937,168,l),
(66,168,l),
(66,36,l),
(937,36,l)
);
},
{
closed = 1;
nodes = (
(592,446,l),
(446,446,l),
(446,-94,l),
(592,-94,l)
);
},
{
closed = 1;
nodes = (
(850,375,l),
(280,375,l),
(280,249,l),
(850,249,l)
);
},
{
closed = 1;
nodes = (
(317,685,l),
(268,523,o),
(209,350,o),
(162,237,c),
(310,211,l),
(352,317,o),
(412,494,o),
(465,669,c)
);
}
);
width = 1000;
}
);
note = cid10976;
unicode = 20891;
}
{
glyphname = uni519C;
layers = (
{
layerId = m01;
shapes = (
{
closed = 1;
nodes = (
(890,702,l),
(108,702,l),
(108,513,l),
(137,513,l),
(137,672,l),
(861,672,l),
(861,513,l),
(890,513,l)
);
},
{
closed = 1;
nodes = (
(503,832,l),
(464,574,o),
(287,356,o),
(43,268,c),
(50,261,o),
(58,249,o),
(62,242,c),
(309,340,o),
(489,566,o),
(531,828,c)
);
},
{
closed = 1;
nodes = (
(476,684,l),
(531,316,o),
(708,28,o),
(936,-61,c),
(941,-53,o),
(950,-43,o),
(957,-36,c),
(733,45,o),
(558,324,o),
(503,688,c)
);
},
{
closed = 1;
nodes = (
(835,474,l),
(778,416,o),
(676,336,o),
(603,289,c),
(622,271,l),
(695,318,o),
(792,393,o),
(859,455,c)
);
},
{
closed = 1;
nodes = (
(129,-59,l),
(255,-31,o),
(447,10,o),
(625,49,c),
(623,76,l),
(433,35,o),
(236,-6,o),
(118,-30,c)
);
},
{
closed = 1;
nodes = (
(306,433,l),
(279,406,l),
(279,-9,l),
(308,-9,l),
(308,431,l)
);
}
);
width = 1000;
},
{
layerId = "94DDBC6A-1627-4027-9125-871D02041BCD";
shapes = (
{
closed = 1;
nodes = (
(943,731,l),
(74,731,l),
(74,500,l),
(218,500,l),
(218,597,l),
(791,597,l),
(791,500,l),
(943,500,l)
);
},
{
closed = 1;
nodes = (
(448,855,l),
(411,606,o),
(244,394,o),
(14,303,c),
(46,275,o),
(100,215,o),
(121,184,c),
(368,301,o),
(552,554,o),
(599,839,c)
);
},
{
closed = 1;
nodes = (
(472,609,l),
(516,322,o),
(586,101,o),
(884,-92,c),
(903,-45,o),
(951,11,o),
(990,42,c),
(721,188,o),
(654,377,o),
(617,635,c)
);
},
{
closed = 1;
nodes = (
(802,492,l),
(750,436,o),
(664,368,o),
(602,330,c),
(705,238,l),
(767,276,o),
(852,337,o),
(918,395,c)
);
},
{
closed = 1;
nodes = (
(137,-88,l),
(273,-61,o),
(453,-27,o),
(618,8,c),
(605,151,l),
(426,117,o),
(228,80,o),
(95,61,c)
);
},
{
closed = 1;
nodes = (
(351,424,l),
(232,305,l),
(232,31,l),
(380,31,l),
(380,414,l)
);
}
);
width = 1000;
}
);
note = cid10977;
unicode = 20892;
}
{
glyphname = uni5355;
layers = (
{
layerId = m01;
shapes = (
{
closed = 1;
nodes = (
(512,638,l),
(482,638,l),
(482,-72,l),
(512,-72,l)
);
},
{
closed = 1;
nodes = (
(189,299,l),
(189,446,l),
(819,446,l),
(819,299,l)
);
},
{
closed = 1;
nodes = (
(189,475,l),
(189,621,l),
(819,621,l),
(819,475,l)
);
},
{
closed = 1;
nodes = (
(849,650,l),
(160,650,l),
(160,270,l),
(849,270,l)
);
},
{
closed = 1;
nodes = (
(943,152,l),
(60,152,l),
(60,123,l),
(943,123,l)
);
},
{
closed = 1;
nodes = (
(245,814,l),
(282,765,o),
(321,697,o),
(338,655,c),
(363,670,l),
(347,711,o),
(308,776,o),
(271,825,c)
);
},
{
closed = 1;
nodes = (
(728,832,l),
(706,782,o),
(662,708,o),
(630,664,c),
(653,652,l),
(685,695,o),
(726,763,o),
(756,818,c)
);
}
);
vertWidth = 1000;
width = 1000;
},
{
layerId = "94DDBC6A-1627-4027-9125-871D02041BCD";
shapes = (
{
closed = 1;
nodes = (
(573,613,l),
(423,613,l),
(423,-94,l),
(573,-94,l)
);
},
{
closed = 1;
nodes = (
(272,363,l),
(272,410,l),
(731,410,l),
(731,363,l)
);
},
{
closed = 1;
nodes = (
(272,519,l),
(272,564,l),
(731,564,l),
(731,519,l)
);
},
{
closed = 1;
nodes = (
(881,682,l),
(130,682,l),
(130,246,l),
(881,246,l)
);
},
{
closed = 1;
nodes = (
(958,196,l),
(44,196,l),
(44,62,l),
(958,62,l)
);
},
{
closed = 1;
nodes = (
(203,803,l),
(235,754,o),
(268,685,o),
(279,641,c),
(416,698,l),
(402,742,o),
(368,805,o),
(334,852,c)
);
},
{
closed = 1;
nodes = (
(669,854,l),
(652,804,o),
(622,738,o),
(594,694,c),
(729,654,l),
(760,695,o),
(800,756,o),
(833,812,c)
);
}
);
vertWidth = 1000;
width = 1000;
}
);
note = cid11702;
unicode = 21333;
}
{
glyphname = uni53CD;
layers = (
{
layerId = m01;
shapes = (
{
closed = 1;
nodes = (
(809,510,l),
(204,510,l),
(204,480,l),
(809,480,l)
);
},
{
closed = 1;
nodes = (
(804,510,l),
(798,510,l),
(798,503,l),
(708,198,o),
(452,23,o),
(202,-44,c),
(209,-51,o),
(217,-63,o),
(220,-71,c),
(476,3,o),
(733,179,o),
(830,502,c),
(811,512,l)
);
},
{
closed = 1;
nodes = (
(306,493,l),
(401,191,o),
(600,2,o),
(914,-73,c),
(917,-65,o),
(926,-54,o),
(933,-47,c),
(621,23,o),
(425,211,o),
(334,502,c)
);
},
{
closed = 1;
nodes = (
(190,734,l),
(190,434,ls),
(190,283,o),
(175,94,o),
(42,-47,c),
(50,-52,o),
(60,-62,o),
(64,-68,c),
(201,82,o),
(220,278,o),
(220,433,cs),
(220,710,l),
(230,711,o),
(233,714,o),
(234,719,c)
);
},
{
closed = 1;
nodes = (
(814,814,l),
(681,771,o),
(415,739,o),
(200,720,c),
(203,714,o),
(208,703,o),
(209,695,c),
(427,713,o),
(691,745,o),
(840,790,c)
);
}
);
vertWidth = 1000;
width = 1000;
},
{
layerId = "94DDBC6A-1627-4027-9125-871D02041BCD";
shapes = (
{
closed = 1;
nodes = (
(760,546,l),
(237,546,l),
(237,406,l),
(760,406,l)
);
},
{
closed = 1;
nodes = (
(751,546,l),
(723,546,l),
(723,520,l),
(667,266,o),
(487,103,o),
(228,39,c),
(258,7,o),
(295,-55,o),
(313,-95,c),
(606,-2,o),
(803,173,o),
(881,511,c),
(778,552,l)
);
},
{
closed = 1;
nodes = (
(303,426,l),
(406,154,o),
(565,-18,o),
(866,-95,c),
(887,-54,o),
(930,10,o),
(964,42,c),
(685,100,o),
(520,248,o),
(443,465,c)
);
},
{
closed = 1;
nodes = (
(149,784,l),
(149,509,ls),
(149,358,o),
(138,147,o),
(15,1,c),
(51,-16,o),
(110,-66,o),
(131,-98,c),
(278,71,o),
(297,342,o),
(297,508,cs),
(297,729,l),
(318,733,o),
(327,739,o),
(328,751,c)
);
},
{
closed = 1;
nodes = (
(757,858,l),
(612,814,o),
(385,778,o),
(176,759,c),
(192,727,o),
(213,666,o),
(218,629,c),
(435,647,o),
(684,680,o),
(883,736,c)
);
}
);
vertWidth = 1000;
width = 1000;
}
);
note = cid11891;
unicode = 21453;
}
{
glyphname = uni5988;
layers = (
{
layerId = m01;
shapes = (
{
closed = 1;
nodes = (
(345,617,l),
(49,617,l),
(49,587,l),
(345,587,l)
);
},
{
closed = 1;
nodes = (
(205,830,l),
(170,649,o),
(109,376,o),
(66,229,c),
(95,217,l),
(136,368,o),
(198,640,o),
(235,826,c)
);
},
{
closed = 1;
nodes = (
(88,280,l),
(193,206,o),
(308,95,o),
(361,18,c),
(380,42,l),
(329,117,o),
(213,226,o),
(107,301,c)
);
},
{
closed = 1;
nodes = (
(341,617,l),
(335,617,l),
(335,608,ls),
(310,247,o),
(203,42,o),
(52,-47,c),
(60,-53,o),
(69,-64,o),
(74,-71,c),
(231,28,o),
(338,233,o),
(366,614,c),
(347,619,l)
);
},
{
closed = 1;
nodes = (
(900,387,l),
(900,380,ls),
(876,108,o),
(852,4,o),
(820,-26,cs),
(811,-35,o),
(800,-37,o),
(781,-36,cs),
(763,-36,o),
(713,-36,o),
(658,-30,c),
(663,-39,o),
(666,-52,o),
(667,-61,c),
(716,-65,o),
(764,-65,o),
(787,-65,cs),
(814,-65,o),
(829,-60,o),
(844,-45,cs),
(880,-10,o),
(903,91,o),
(928,368,cs),
(929,374,o),
(930,387,o),
(930,387,c)
);
},
{
closed = 1;
nodes = (
(819,764,l),
(422,764,l),
(422,734,l),
(819,734,l)
);
},
{
closed = 1;
nodes = (
(907,387,l),
(447,387,l),
(447,358,l),
(907,358,l)
);
},
{
closed = 1;
nodes = (
(803,192,l),
(375,192,l),
(375,163,l),
(803,163,l)
);
},
{
closed = 1;
nodes = (
(809,764,l),
(806,764,l),
(806,758,ls),
(798,671,o),
(778,486,o),
(761,366,c),
(789,364,l),
(807,485,o),
(826,661,o),
(835,763,c),
(815,767,l)
);
},
{
closed = 1;
nodes = (
(469,648,l),
(458,536,o),
(441,409,o),
(425,318,c),
(455,316,l),
(470,406,o),
(487,533,o),
(499,645,c)
);
}
);
width = 1000;
},
{
layerId = "94DDBC6A-1627-4027-9125-871D02041BCD";
shapes = (
{
closed = 1;
nodes = (
(330,660,l),
(28,660,l),
(28,527,l),
(330,527,l)
);
},
{
closed = 1;
nodes = (
(135,855,l),
(111,654,o),
(67,399,o),
(29,241,c),
(144,172,l),
(189,361,o),
(239,624,o),
(273,842,c)
);
},
{
closed = 1;
nodes = (
(80,262,l),
(171,177,o),
(268,57,o),
(314,-28,c),
(411,83,l),
(363,161,o),
(262,275,o),
(167,358,c)
);
},
{
closed = 1;
nodes = (
(303,660,l),
(279,660,l),
(279,635,ls),
(268,325,o),
(197,104,o),
(30,20,c),
(59,-7,o),
(94,-60,o),
(113,-96,c),
(317,29,o),
(396,251,o),
(411,653,c),
(327,662,l)
);
},
{
closed = 1;
nodes = (
(816,424,l),
(816,402,l),
(802,167,o),
(781,70,o),
(759,47,cs),
(748,35,o),
(738,33,o),
(723,33,cs),
(704,33,o),
(669,33,o),
(631,37,c),
(652,2,o),
(667,-53,o),
(669,-92,c),
(717,-93,o),
(761,-92,o),
(790,-88,cs),
(824,-83,o),
(850,-72,o),
(876,-41,cs),
(911,-2,o),
(932,108,o),
(951,369,cs),
(953,386,o),
(955,424,o),
(955,424,c)
);
},
{
closed = 1;
nodes = (
(803,808,l),
(411,808,l),
(411,678,l),
(803,678,l)
);
},
{
closed = 1;
nodes = (
(857,424,l),
(460,424,l),
(460,298,l),
(857,298,l)
);
},
{
closed = 1;
nodes = (
(764,226,l),
(392,226,l),
(392,98,l),
(764,98,l)
);
},
{
closed = 1;
nodes = (
(763,808,l),
(748,808,l),
(748,794,ls),
(742,689,o),
(724,495,o),
(704,347,c),
(841,336,l),
(860,483,o),
(879,660,o),
(888,804,c),
(785,813,l)
);
},
{
closed = 1;
nodes = (
(460,650,l),
(450,529,o),
(434,385,o),
(418,278,c),
(553,264,l),
(568,370,o),
(584,515,o),
(595,640,c)
);
}
);
width = 1000;
}
);
note = cid14249;
unicode = 22920;
}
{
glyphname = uni5C81;
layers = (
{
layerId = m01;
name = ExtraLight;
shapes = (
{
closed = 1;
nodes = (
(208,345,l),
(333,270,o),
(468,166,o),
(536,95,c),
(560,114,l),
(491,186,o),
(356,289,o),
(232,363,c)
);
},
{
closed = 1;
nodes = (
(786,440,l),
(325,440,l),
(325,410,l),
(786,410,l)
);
},
{
closed = 1;
nodes = (
(428,580,l),
(365,464,o),
(228,348,o),
(72,278,c),
(81,272,o),
(90,263,o),
(95,257,c),
(251,327,o),
(391,449,o),
(458,572,c)
);
},
{
closed = 1;
nodes = (
(791,440,l),
(784,440,l),
(784,433,l),
(676,174,o),
(454,15,o),
(114,-47,c),
(121,-53,o),
(129,-65,o),
(132,-73,c),
(475,-9,o),
(702,157,o),
(817,429,c),
(798,442,l)
);
},
{
closed = 1;
nodes = (
(167,782,l),
(137,782,l),
(137,567,l),
(868,567,l),
(868,782,l),
(838,782,l),
(838,596,l),
(167,596,l)
);
},
{
closed = 1;
nodes = (
(514,832,l),
(484,832,l),
(484,578,l),
(514,578,l)
);
}
);
width = 1000;
},
{
layerId = "94DDBC6A-1627-4027-9125-871D02041BCD";
name = Heavy;
shapes = (
{
closed = 1;
nodes = (
(200,289,l),
(287,225,o),
(381,137,o),
(426,75,c),
(547,156,l),
(497,218,o),
(402,303,o),
(315,362,c)
);
},
{
closed = 1;
nodes = (
(733,466,l),
(274,466,l),
(274,332,l),
(733,332,l)
);
},
{
closed = 1;
nodes = (
(383,596,l),
(326,490,o),
(197,390,o),
(50,338,c),
(79,310,o),
(123,255,o),
(145,221,c),
(301,281,o),
(451,406,o),
(535,544,c)
);
},
{
closed = 1;
nodes = (
(714,466,l),
(684,466,l),
(684,441,l),
(605,229,o),
(393,85,o),
(93,39,c),
(123,8,o),
(165,-59,o),
(180,-97,c),
(498,-32,o),
(736,150,o),
(843,410,c),
(740,471,l)
);
},
{
closed = 1;
nodes = (
(257,815,l),
(110,815,l),
(110,540,l),
(893,540,l),
(893,815,l),
(739,815,l),
(739,677,l),
(257,677,l)
);
},
{
closed = 1;
nodes = (
(573,855,l),
(423,855,l),
(423,596,l),
(573,596,l)
);
}
);
width = 1000;
}
);
note = cid15921;
unicode = 23681;
}
{
glyphname = uni65B0;
layers = (
{
layerId = m01;
shapes = (
{
closed = 1;
nodes = (
(951,486,l),
(579,486,l),
(579,457,l),
(951,457,l)
);
},
{
closed = 1;
nodes = (
(502,720,l),
(69,720,l),
(69,691,l),
(502,691,l)
);
},
{
closed = 1;
nodes = (
(512,325,l),
(57,325,l),
(57,295,l),
(512,295,l)
);
},
{
closed = 1;
nodes = (
(518,486,l),
(54,486,l),
(54,457,l),
(518,457,l)
);
},
{
closed = 1;
nodes = (
(819,478,l),
(790,478,l),
(790,-65,l),
(819,-65,l)
);
},
{
closed = 1;
nodes = (
(302,831,l),
(273,831,l),
(273,699,l),
(302,699,l)
);
},
{
closed = 1;
nodes = (
(560,746,l),
(560,386,ls),
(560,249,o),
(550,77,o),
(452,-53,c),
(459,-58,o),
(469,-68,o),
(473,-74,c),
(576,64,o),
(590,245,o),
(590,386,cs),
(590,720,l),
(600,721,o),
(604,724,o),
(605,729,c)
);
},
{
closed = 1;
nodes = (
(904,818,l),
(829,783,o),
(685,749,o),
(566,726,c),
(570,719,o),
(574,709,o),
(576,702,c),
(698,723,o),
(843,757,o),
(929,795,c)
);
},
{
closed = 1;
nodes = (
(139,669,l),
(162,616,o),
(182,547,o),
(185,501,c),
(214,509,l),
(209,553,o),
(189,622,o),
(166,674,c)
);
},
{
closed = 1;
nodes = (
(403,676,l),
(390,628,o),
(364,553,o),
(343,509,c),
(368,500,l),
(389,543,o),
(414,611,o),
(433,666,c)
);
},
{
closed = 1;
nodes = (
(302,471,l),
(272,471,l),
(272,-15,ls),
(272,-29,o),
(268,-32,o),
(254,-33,cs),
(241,-34,o),
(196,-34,o),
(140,-33,c),
(145,-41,o),
(151,-53,o),
(153,-60,c),
(221,-60,o),
(257,-60,o),
(275,-55,cs),
(294,-50,o),
(302,-40,o),
(302,-15,cs)
);
},
{
closed = 1;
nodes = (
(365,216,l),
(398,162,o),
(434,90,o),
(451,42,c),
(477,55,l),
(462,101,o),
(425,172,o),
(389,226,c)
);
},
{
closed = 1;
nodes = (
(158,226,l),
(135,157,o),
(100,89,o),
(56,40,c),
(64,36,o),
(77,26,o),
(82,22,c),
(124,72,o),
(163,146,o),
(187,219,c)
);
}
);
vertWidth = 1000;
width = 1000;
},
{
layerId = "94DDBC6A-1627-4027-9125-871D02041BCD";
shapes = (
{
closed = 1;
nodes = (
(974,528,l),
(600,528,l),
(600,394,l),
(974,394,l)
);
},
{
closed = 1;
nodes = (
(504,759,l),
(49,759,l),
(49,642,l),
(504,642,l)
);
},
{
closed = 1;
nodes = (
(500,360,l),
(40,360,l),
(40,239,l),
(500,239,l)
);
},
{
closed = 1;
nodes = (
(510,539,l),
(37,539,l),
(37,421,l),
(510,421,l)
);
},
{
closed = 1;
nodes = (
(889,468,l),
(748,468,l),
(748,-90,l),
(889,-90,l)
);
},
{
closed = 1;
nodes = (
(347,844,l),
(206,844,l),
(206,709,l),
(347,709,l)
);
},
{
closed = 1;
nodes = (
(536,778,l),
(536,424,ls),
(536,292,o),
(529,119,o),
(455,-6,c),
(490,-24,o),
(538,-63,o),
(564,-96,c),
(662,51,o),
(674,278,o),
(674,422,cs),
(674,715,l),
(696,718,o),
(703,724,o),
(704,734,c)
);
},
{
closed = 1;
nodes = (
(858,845,l),
(788,808,o),
(678,770,o),
(575,747,c),
(591,718,o),
(612,668,o),
(619,637,c),
(734,659,o),
(868,693,o),
(974,740,c)
);
},
{
closed = 1;
nodes = (
(93,629,l),
(107,595,o),
(119,549,o),
(120,519,c),
(237,551,l),
(233,580,o),
(220,624,o),
(204,656,c)
);
},
{
closed = 1;
nodes = (
(338,658,l),
(331,626,o),
(316,581,o),
(304,550,c),
(419,527,l),
(432,554,o),
(447,591,o),
(466,634,c)
);
},
{
closed = 1;
nodes = (
(343,455,l),
(210,455,l),
(210,43,ls),
(210,32,o),
(206,28,o),
(194,28,cs),
(181,28,o),
(144,28,o),
(111,29,c),
(128,-6,o),
(146,-59,o),
(151,-96,c),
(213,-96,o),
(260,-93,o),
(296,-72,cs),
(333,-52,o),
(343,-19,o),
(343,41,cs)
);
},
{
closed = 1;
nodes = (
(350,191,l),
(379,143,o),
(407,81,o),
(418,41,c),
(519,84,l),
(506,123,o),
(476,182,o),
(445,227,c)
);
},
{
closed = 1;
nodes = (
(92,224,l),
(81,167,o),
(49,107,o),
(11,70,c),
(37,55,o),
(82,22,o),
(103,3,c),
(144,47,o),
(183,121,o),
(203,195,c)
);
}
);
vertWidth = 1000;
width = 1000;
}
);
note = cid20118;
unicode = 26032;
}
{
glyphname = uni6B21;
layers = (
{
layerId = m01;
shapes = (
{
closed = 1;
nodes = (
(77,23,l),
(130,109,o),
(200,240,o),
(250,344,c),
(227,362,l),
(175,253,o),
(100,118,o),
(49,41,c)
);
},
{
closed = 1;
nodes = (
(466,830,l),
(427,669,o),
(366,512,o),
(283,408,c),
(291,404,o),
(306,395,o),
(312,390,c),
(391,497,o),
(455,656,o),
(497,824,c)
);
},
{
closed = 1;
nodes = (
(625,554,l),
(596,554,l),
(596,462,ls),
(596,387,o),
(559,84,o),
(220,-48,c),
(227,-55,o),
(235,-65,o),
(239,-70,c),
(519,45,o),
(600,276,o),
(610,375,c),
(622,278,o),
(698,40,o),
(940,-70,c),
(944,-64,o),
(954,-52,o),
(960,-45,c),
(662,82,o),
(625,394,o),
(625,462,cs)
);
},
{
closed = 1;
nodes = (
(916,643,l),
(426,643,l),
(417,614,l),
(916,614,l)
);
},
{
closed = 1;
nodes = (
(910,643,l),
(905,643,l),
(905,633,l),
(886,557,o),
(841,451,o),
(807,392,c),
(815,388,o),
(825,382,o),
(832,378,c),
(867,441,o),
(913,545,o),
(937,636,c),
(916,645,l)
);
},
{
closed = 1;
nodes = (
(83,739,l),
(151,694,o),
(231,626,o),
(272,582,c),
(293,606,l),
(254,650,o),
(173,715,o),
(104,759,c)
);
}
);
vertWidth = 1000;
width = 1000;
},
{
layerId = "94DDBC6A-1627-4027-9125-871D02041BCD";
shapes = (
{
closed = 1;
nodes = (
(151,-11,l),
(212,85,o),
(270,187,o),
(324,289,c),
(213,385,l),
(151,273,o),
(74,159,o),
(21,88,c)
);
},
{
closed = 1;
nodes = (
(414,850,l),
(385,691,o),
(324,536,o),
(238,446,c),
(275,430,o),
(345,391,o),
(375,369,c),
(457,473,o),
(527,643,o),
(565,823,c)
);
},
{
closed = 1;
nodes = (
(686,501,l),
(531,501,l),
(531,452,ls),
(531,329,o),
(456,129,o),
(204,28,c),
(229,2,o),
(275,-61,o),
(292,-95,c),
(473,-15,o),
(582,140,o),
(609,228,c),
(630,139,o),
(729,-21,o),
(891,-95,c),
(914,-58,o),
(957,3,o),
(985,38,c),
(752,140,o),
(686,332,o),
(686,453,cs)
);
},
{
closed = 1;
nodes = (
(868,686,l),
(480,686,l),
(407,541,l),
(868,541,l)
);
},
{
closed = 1;
nodes = (
(841,686,l),
(820,686,l),
(820,655,l),
(806,575,o),
(765,469,o),
(735,409,c),
(769,395,o),
(827,365,o),
(857,349,c),
(898,424,o),
(947,526,o),
(977,630,c),
(869,694,l)
);
},
{
closed = 1;
nodes = (
(49,688,l),
(108,645,o),
(186,581,o),
(219,537,c),
(329,658,l),
(291,701,o),
(210,758,o),
(152,796,c)
);
}
);
vertWidth = 1000;
width = 1000;
}
);
note = cid62458;
unicode = 27425;
}
{
glyphname = uni6C47;
layers = (
{
layerId = m01;
shapes = (
{
closed = 1;
nodes = (
(389,765,l),
(389,-72,l),
(419,-72,l),
(419,735,l),
(926,735,l),
(926,765,l)
);
},
{
closed = 1;
nodes = (
(403,25,l),
(403,-5,l),
(954,-5,l),
(954,25,l)
);
},
{
closed = 1;
nodes = (
(108,798,l),
(179,768,o),
(261,720,o),
(303,684,c),
(320,710,l),
(279,746,o),
(195,792,o),
(125,820,c)
);
},
{
closed = 1;
nodes = (
(49,524,l),
(121,498,o),
(206,454,o),
(250,421,c),
(266,447,l),
(222,480,o),
(136,523,o),
(65,548,c)
);
},
{
closed = 1;
nodes = (
(125,-56,l),
(183,36,o),
(263,179,o),
(318,289,c),
(295,308,l),
(238,192,o),
(155,47,o),
(99,-35,c)
);
}
);
vertWidth = 1000;
width = 1000;
},
{
layerId = "94DDBC6A-1627-4027-9125-871D02041BCD";
shapes = (
{
closed = 1;
nodes = (
(385,809,l),
(385,-95,l),
(537,-95,l),
(537,667,l),
(959,667,l),
(959,809,l)
);
},
{
closed = 1;
nodes = (
(452,93,l),
(452,-49,l),
(976,-49,l),
(976,93,l)
);
},
{
closed = 1;
nodes = (
(95,745,l),
(155,716,o),
(232,668,o),
(266,632,c),
(354,747,l),
(315,782,o),
(236,824,o),
(177,849,c)
);
},
{
closed = 1;
nodes = (
(21,477,l),
(82,449,o),
(161,402,o),
(196,368,c),
(280,486,l),
(240,519,o),
(159,560,o),
(99,584,c)
);
},
{
closed = 1;
nodes = (
(189,-81,l),
(248,20,o),
(306,130,o),
(357,238,c),
(248,332,l),
(189,213,o),
(116,90,o),
(64,14,c)
);
}
);
vertWidth = 1000;
width = 1000;
}
);
note = cid23035;
unicode = 27719;
}
{
glyphname = uni7EA2;
layers = (
{
layerId = m01;
shapes = (
{
closed = 1;
nodes = (
(433,726,l),
(433,697,l),
(930,697,l),
(930,726,l)
);
},
{
closed = 1;
nodes = (
(413,30,l),
(413,0,l),
(952,0,l),
(952,30,l)
);
},
{
closed = 1;
nodes = (
(665,718,l),
(665,12,l),
(695,12,l),
(695,718,l)
);
},
{
closed = 1;
nodes = (
(259,827,l),
(217,715,o),
(150,566,o),
(97,468,c),
(120,453,l),
(176,551,o),
(240,691,o),
(287,814,c)
);
},
{
closed = 1;
nodes = (
(56,440,l),
(122,447,o),
(215,459,o),
(297,472,c),
(295,499,l),
(207,487,o),
(113,476,o),
(50,471,c)
);
},
{
closed = 1;
nodes = (
(357,634,l),
(287,493,o),
(187,327,o),
(114,231,c),
(137,214,l),
(212,313,o),
(308,469,o),
(385,619,c)
);
},
{
closed = 1;
nodes = (
(61,197,l),
(163,212,o),
(292,234,o),
(396,254,c),
(395,283,l),
(284,263,o),
(152,242,o),
(53,229,c)
);
},
{
closed = 1;
nodes = (
(57,1,l),
(149,21,o),
(279,47,o),
(406,73,c),
(404,101,l),
(271,75,o),
(137,47,o),
(50,32,c)
);
}
);
vertWidth = 1000;
width = 1000;
},
{
layerId = "94DDBC6A-1627-4027-9125-871D02041BCD";
shapes = (
{
closed = 1;
nodes = (
(434,777,l),
(434,631,l),
(945,631,l),
(945,777,l)
);
},
{
closed = 1;
nodes = (
(413,88,l),
(413,-58,l),
(966,-58,l),
(966,88,l)
);
},
{
closed = 1;
nodes = (
(610,727,l),
(610,5,l),
(767,5,l),
(767,727,l)
);
},
{
closed = 1;
nodes = (
(161,857,l),
(134,753,o),
(86,618,o),
(46,533,c),
(160,486,l),
(206,571,o),
(261,693,o),
(303,803,c)
);
},
{
closed = 1;
nodes = (
(37,414,l),
(113,423,o),
(217,438,o),
(301,454,c),
(295,581,l),
(199,569,o),
(88,558,o),
(11,551,c)
);
},
{
closed = 1;
nodes = (
(289,668,l),
(231,540,o),
(135,380,o),
(58,281,c),
(169,216,l),
(251,316,o),
(348,462,o),
(422,596,c)
);
},
{
closed = 1;
nodes = (
(48,168,l),
(146,185,o),
(281,210,o),
(394,233,c),
(383,364,l),
(258,343,o),
(117,323,o),
(21,310,c)
);
},
{
closed = 1;
nodes = (
(51,-64,l),
(150,-42,o),
(281,-9,o),
(392,20,c),
(376,157,l),
(249,128,o),
(111,100,o),
(18,84,c)
);
}
);
vertWidth = 1000;
width = 1000;
}
);
note = cid31693;
unicode = 32418;
}
{
glyphname = uni7EA4;
layers = (
{
layerId = m01;
shapes = (
{
closed = 1;
nodes = (
(861,811,l),
(773,771,o),
(613,732,o),
(445,710,c),
(450,703,o),
(454,692,o),
(456,685,c),
(623,707,o),
(789,747,o),
(888,788,c)
);
},
{
closed = 1;
nodes = (
(950,416,l),
(413,416,l),
(413,386,l),
(950,386,l)
);
},
{
closed = 1;
nodes = (
(692,742,l),
(663,742,l),
(663,-69,l),
(692,-69,l)
);
},
{
closed = 1;
nodes = (
(283,829,l),
(233,710,o),
(157,561,o),
(98,468,c),
(120,452,l),
(180,547,o),
(254,687,o),
(311,815,c)
);
},
{
closed = 1;
nodes = (
(57,440,l),
(127,448,o),
(229,461,o),
(321,475,c),
(319,502,l),
(223,489,o),
(119,477,o),
(50,471,c)
);
},
{
closed = 1;
nodes = (
(379,621,l),
(307,494,o),
(198,335,o),
(115,236,c),
(137,218,l),
(222,318,o),
(326,467,o),
(406,604,c)
);
},
{
closed = 1;
nodes = (
(59,200,l),
(159,215,o),
(290,237,o),
(400,256,c),
(399,285,l),
(284,266,o),
(150,246,o),
(52,233,c)
);
},
{
closed = 1;
nodes = (
(58,1,l),
(153,20,o),
(287,48,o),
(406,73,c),
(404,102,l),
(279,76,o),
(143,48,o),
(50,31,c)
);
}
);
vertWidth = 1000;
width = 1000;
},
{
layerId = "94DDBC6A-1627-4027-9125-871D02041BCD";
shapes = (
{
closed = 1;
nodes = (
(828,845,l),
(730,804,o),
(576,766,o),
(427,745,c),
(444,712,o),
(465,655,o),
(471,621,c),
(638,639,o),
(824,680,o),
(954,727,c)
);
},
{
closed = 1;
nodes = (
(974,453,l),
(417,453,l),
(417,309,l),
(974,309,l)
);
},
{
closed = 1;
nodes = (
(771,766,l),
(623,766,l),
(623,-94,l),
(771,-94,l)
);
},
{
closed = 1;
nodes = (
(184,855,l),
(151,749,o),
(97,619,o),
(54,541,c),
(166,488,l),
(214,564,o),
(275,682,o),
(325,793,c)
);
},
{
closed = 1;
nodes = (
(38,408,l),
(114,416,o),
(214,430,o),
(298,445,c),
(292,573,l),
(197,561,o),
(88,551,o),
(11,546,c)
);
},
{
closed = 1;
nodes = (
(318,660,l),
(253,536,o),
(150,382,o),
(69,288,c),
(177,217,l),
(261,310,o),
(365,450,o),
(447,581,c)
);
},
{
closed = 1;
nodes = (
(45,167,l),
(149,182,o),
(291,204,o),
(412,224,c),
(404,355,l),
(270,337,o),
(123,320,o),
(20,309,c)
);
},
{
closed = 1;
nodes = (
(49,-54,l),
(147,-38,o),
(289,-13,o),
(415,10,c),
(406,142,l),
(271,121,o),
(124,100,o),
(25,88,c)
);
}
);
vertWidth = 1000;
width = 1000;
}
);
note = cid31703;
unicode = 32420;
}
{
glyphname = uni7EAC;
layers = (
{
layerId = m01;
shapes = (
{
closed = 1;
nodes = (
(65,9,l),
(148,30,o),
(269,62,o),
(378,92,c),
(376,120,l),
(259,89,o),
(136,57,o),
(57,38,c)
);
},
{
closed = 1;
nodes = (
(915,688,l),
(416,688,l),
(416,659,l),
(915,659,l)
);
},
{
closed = 1;
nodes = (
(868,512,l),
(439,512,l),
(439,482,l),
(868,482,l)
);
},
{
closed = 1;
nodes = (
(910,329,l),
(910,323,ls),
(900,149,o),
(889,85,o),
(874,68,cs),
(868,61,o),
(859,60,o),
(847,60,cs),
(833,60,o),
(799,60,o),
(760,64,c),
(765,56,o),
(768,43,o),
(769,35,c),
(802,33,o),
(835,33,o),
(852,33,cs),
(874,33,o),
(886,37,o),
(897,49,cs),
(917,70,o),
(927,132,o),
(938,311,cs),
(939,317,o),
(939,329,o),
(939,329,c)
);
},
{
closed = 1;
nodes = (
(920,329,l),
(395,329,l),
(395,300,l),
(920,300,l)
);
},
{
closed = 1;
nodes = (
(670,831,l),
(640,831,l),
(640,-68,l),
(670,-68,l)
);
},
{
closed = 1;
nodes = (
(246,827,l),
(211,717,o),
(149,570,o),
(95,471,c),
(119,456,l),
(174,557,o),
(234,695,o),
(275,814,c)
);
},
{
closed = 1;
nodes = (
(56,440,l),
(118,447,o),
(207,458,o),
(287,470,c),
(286,497,l),
(203,486,o),
(112,476,o),
(50,471,c)
);
},
{
closed = 1;
nodes = (
(340,634,l),
(274,492,o),
(179,326,o),
(110,232,c),
(133,215,l),
(204,310,o),
(294,466,o),
(368,619,c)
);
},
{
closed = 1;
nodes = (
(61,197,l),
(152,211,o),
(270,232,o),
(368,252,c),
(367,281,l),
(263,261,o),
(141,241,o),
(53,229,c)
);
}
);
vertWidth = 1000;
width = 1000;
},
{
layerId = "94DDBC6A-1627-4027-9125-871D02041BCD";
shapes = (
{
closed = 1;
nodes = (
(49,-62,l),
(140,-38,o),
(270,-1,o),
(388,33,c),
(374,155,l),
(243,124,o),
(108,95,o),
(24,79,c)
);
},
{
closed = 1;
nodes = (
(931,730,l),
(399,730,l),
(399,596,l),
(931,596,l)
);
},
{
closed = 1;
nodes = (
(909,546,l),
(418,546,l),
(418,412,l),
(909,412,l)
);
},
{
closed = 1;
nodes = (
(839,360,l),
(839,345,ls),
(831,197,o),
(822,143,o),
(807,125,cs),
(802,119,o),
(793,116,o),
(781,116,cs),
(770,116,o),
(753,116,o),
(731,118,c),
(747,80,o),
(761,21,o),
(762,-15,c),
(795,-15,o),
(828,-14,o),
(848,-10,cs),
(872,-5,o),
(890,3,o),
(911,28,cs),
(936,59,o),
(948,142,o),
(960,315,c),
(962,328,o),
(963,360,o),
(963,360,c)
);
},
{
closed = 1;
nodes = (
(870,360,l),
(388,360,l),
(388,225,l),
(870,225,l)
);
},
{
closed = 1;
nodes = (
(729,856,l),
(578,856,l),
(578,-94,l),
(729,-94,l)
);
},
{
closed = 1;
nodes = (
(158,856,l),
(132,752,o),
(86,619,o),
(48,533,c),
(154,491,l),
(198,575,o),
(250,697,o),
(291,807,c)
);
},
{
closed = 1;
nodes = (
(36,416,l),
(109,425,o),
(202,440,o),
(283,456,c),
(281,579,l),
(189,567,o),
(85,556,o),
(11,549,c)
);
},
{
closed = 1;
nodes = (
(277,656,l),
(219,534,o),
(130,383,o),
(61,292,c),
(166,229,l),
(239,322,o),
(330,459,o),
(402,586,c)
);
},
{
closed = 1;
nodes = (
(43,170,l),
(139,187,o),
(268,212,o),
(379,235,c),
(368,362,l),
(246,341,o),
(110,321,o),
(16,308,c)
);
}
);
vertWidth = 1000;
width = 1000;
}
);
note = cid31711;
unicode = 32428;
}
{
glyphname = uni7EBA;
layers = (
{
layerId = m01;
shapes = (
{
closed = 1;
nodes = (
(683,831,l),
(654,831,l),
(654,628,l),
(683,628,l)
);
},
{
closed = 1;
nodes = (
(941,647,l),
(408,647,l),
(408,618,l),
(941,618,l)
);
},
{
closed = 1;
nodes = (
(867,437,l),
(574,437,l),
(574,408,l),
(867,408,l)
);
},
{
closed = 1;
nodes = (
(855,437,l),
(855,429,ls),
(840,111,o),
(824,-3,o),
(799,-30,cs),
(790,-40,o),
(782,-42,o),
(763,-42,cs),
(745,-42,o),
(691,-41,o),
(634,-36,c),
(640,-45,o),
(642,-57,o),
(643,-65,c),
(690,-69,o),
(743,-70,o),
(768,-70,cs),
(794,-69,o),
(810,-65,o),
(823,-48,c),
(855,-13,o),
(868,90,o),
(884,417,cs),
(884,423,o),
(884,437,o),
(884,437,c)
);
},
{
closed = 1;
nodes = (
(595,637,l),
(566,637,l),
(566,477,ls),
(566,318,o),
(547,108,o),
(364,-54,c),
(372,-59,o),
(382,-67,o),
(387,-73,c),
(574,96,o),
(595,305,o),
(595,477,cs)
);
},
{
closed = 1;
nodes = (
(259,827,l),
(217,715,o),
(150,566,o),
(97,468,c),
(120,453,l),
(176,551,o),
(240,691,o),
(287,814,c)
);
},
{
closed = 1;
nodes = (
(56,440,l),
(120,448,o),
(213,461,o),
(297,475,c),
(295,502,l),
(207,489,o),
(113,477,o),
(50,471,c)
);
},
{
closed = 1;
nodes = (
(351,619,l),
(288,491,o),
(190,331,o),
(114,231,c),
(137,214,l),
(216,317,o),
(309,467,o),
(379,604,c)
);
},
{
closed = 1;
nodes = (
(60,197,l),
(155,212,o),
(277,234,o),
(376,254,c),
(374,283,l),
(271,263,o),
(147,243,o),
(53,229,c)
);
},
{
closed = 1;
nodes = (
(58,1,l),
(144,21,o),
(266,48,o),
(384,75,c),
(383,103,l),
(259,76,o),
(133,48,o),
(52,32,c)
);
}
);
vertWidth = 1000;
width = 1000;
},
{
layerId = "94DDBC6A-1627-4027-9125-871D02041BCD";
shapes = (
{
closed = 1;
nodes = (
(766,854,l),
(619,854,l),
(619,629,l),
(766,629,l)
);
},
{
closed = 1;
nodes = (
(964,709,l),
(414,709,l),
(414,569,l),
(964,569,l)
);
},
{
closed = 1;
nodes = (
(841,476,l),
(615,476,l),
(615,342,l),
(841,342,l)
);
},
{
closed = 1;
nodes = (
(796,476,l),
(796,452,ls),
(788,189,o),
(778,85,o),
(758,62,cs),
(748,50,o),
(738,47,o),
(722,47,cs),
(701,47,o),
(663,48,o),
(621,51,c),
(645,13,o),
(662,-47,o),
(665,-89,c),
(715,-90,o),
(763,-90,o),
(794,-84,cs),
(830,-78,o),
(856,-66,o),
(882,-32,cs),
(914,9,o),
(925,128,o),
(936,419,cs),
(937,436,o),
(938,476,o),
(938,476,c)
);
},
{
closed = 1;
nodes = (
(673,658,l),
(531,658,l),
(531,429,ls),
(531,297,o),
(510,133,o),
(356,-3,c),
(393,-28,o),
(442,-69,o),
(469,-101,c),
(644,51,o),
(673,254,o),
(673,427,cs)
);
},
{
closed = 1;
nodes = (
(163,856,l),
(136,753,o),
(89,621,o),
(49,536,c),
(159,491,l),
(205,574,o),
(259,695,o),
(301,804,c)
);
},
{
closed = 1;
nodes = (
(37,416,l),
(113,425,o),
(213,440,o),
(297,456,c),
(291,579,l),
(196,567,o),
(88,556,o),
(11,549,c)
);
},
{
closed = 1;
nodes = (
(287,666,l),
(229,539,o),
(134,381,o),
(58,283,c),
(166,220,l),
(247,319,o),
(343,464,o),
(416,596,c)
);
},
{
closed = 1;
nodes = (
(48,170,l),
(146,187,o),
(277,212,o),
(390,235,c),
(379,362,l),
(255,341,o),
(117,321,o),
(21,308,c)
);
},
{
closed = 1;
nodes = (
(58,-56,l),
(152,-28,o),
(282,13,o),
(396,51,c),
(378,179,l),
(245,144,o),
(106,109,o),
(17,89,c)
);
}
);
vertWidth = 1000;
width = 1000;
}
);
note = cid31725;
unicode = 32442;
}
{
glyphname = uni7EC7;
layers = (
{
layerId = m01;
shapes = (
{
closed = 1;
nodes = (
(58,4,l),
(140,22,o),
(263,49,o),
(378,75,c),
(375,104,l),
(256,76,o),
(131,49,o),
(50,33,c)
);
},
{
closed = 1;
nodes = (
(471,321,l),
(471,733,l),
(866,733,l),
(866,321,l)
);
},
{
closed = 1;
nodes = (
(895,763,l),
(441,763,l),
(441,291,l),
(895,291,l)
);
},
{
closed = 1;
nodes = (
(735,222,l),
(810,131,o),
(895,4,o),
(933,-71,c),
(959,-56,l),
(919,19,o),
(834,142,o),
(759,233,c)
);
},
{
closed = 1;
nodes = (
(561,231,l),
(514,122,o),
(437,18,o),
(354,-52,c),
(362,-57,o),
(375,-66,o),
(379,-71,c),
(460,1,o),
(539,109,o),
(589,224,c)
);
},
{
closed = 1;
nodes = (
(259,827,l),
(217,715,o),
(150,566,o),
(97,468,c),
(120,453,l),
(176,551,o),
(240,691,o),
(287,814,c)
);
},
{
closed = 1;
nodes = (
(56,440,l),
(120,448,o),
(213,461,o),
(297,475,c),
(295,502,l),
(207,489,o),
(113,477,o),
(50,471,c)
);
},
{
closed = 1;
nodes = (
(351,619,l),
(288,491,o),
(190,331,o),
(114,231,c),
(137,214,l),
(216,317,o),
(309,467,o),
(379,604,c)
);
},
{
closed = 1;
nodes = (
(60,197,l),
(155,212,o),
(277,234,o),
(376,254,c),
(374,283,l),
(271,263,o),
(147,243,o),
(53,229,c)
);
}
);
vertWidth = 1000;
width = 1000;
},
{
layerId = "94DDBC6A-1627-4027-9125-871D02041BCD";
shapes = (
{
closed = 1;
nodes = (
(53,-67,l),
(152,-41,o),
(277,-9,o),
(394,23,c),
(380,148,l),
(251,120,o),
(116,92,o),
(27,77,c)
);
},
{
closed = 1;
nodes = (
(570,388,l),
(570,662,l),
(795,662,l),
(795,388,l)
);
},
{
closed = 1;
nodes = (
(937,802,l),
(435,802,l),
(435,247,l),
(937,247,l)
);
},
{
closed = 1;
nodes = (
(699,186,l),
(753,97,o),
(818,-22,o),
(843,-96,c),
(982,-30,l),
(953,45,o),
(883,159,o),
(828,242,c)
);
},
{
closed = 1;
nodes = (
(525,240,l),
(491,146,o),
(425,51,o),
(352,-6,c),
(388,-26,o),
(451,-71,o),
(480,-97,c),
(553,-28,o),
(630,86,o),
(675,201,c)
);
},
{
closed = 1;
nodes = (
(163,856,l),
(136,750,o),
(89,614,o),
(49,526,c),
(159,480,l),
(203,563,o),
(258,689,o),
(302,806,c)
);
},
{
closed = 1;
nodes = (
(37,406,l),
(113,415,o),
(213,430,o),
(297,446,c),
(291,569,l),
(196,557,o),
(88,546,o),
(11,539,c)
);
},
{
closed = 1;
nodes = (
(287,661,l),
(229,534,o),
(134,376,o),
(58,278,c),
(166,215,l),
(247,314,o),
(343,459,o),
(416,591,c)
);
},
{
closed = 1;
nodes = (
(48,160,l),
(146,177,o),
(277,202,o),
(390,225,c),
(379,352,l),
(255,331,o),
(117,311,o),
(21,298,c)
);
}
);
vertWidth = 1000;
width = 1000;
}
);
note = cid31738;
unicode = 32455;
}
{
glyphname = uni7ECF;
layers = (
{
layerId = m01;
shapes = (
{
closed = 1;
nodes = (
(259,827,l),
(217,715,o),
(150,566,o),
(97,468,c),
(120,453,l),
(176,551,o),
(240,691,o),
(287,814,c)
);
},
{
closed = 1;
nodes = (
(56,440,l),
(120,448,o),
(213,461,o),
(297,475,c),
(295,502,l),
(207,489,o),
(113,477,o),
(50,471,c)
);
},
{
closed = 1;
nodes = (
(351,619,l),
(288,491,o),
(190,331,o),
(114,231,c),
(137,214,l),
(216,317,o),
(309,467,o),
(379,604,c)
);
},
{
closed = 1;
nodes = (
(61,197,l),
(154,215,o),
(274,240,o),
(374,262,c),
(372,291,l),
(267,269,o),
(143,245,o),
(52,229,c)
);
},
{
closed = 1;
nodes = (
(56,8,l),
(143,30,o),
(264,59,o),
(381,87,c),
(379,116,l),
(255,86,o),
(132,56,o),
(49,38,c)
);
},
{
closed = 1;
nodes = (
(424,773,l),
(424,744,l),
(839,744,l),
(839,773,l)
);
},
{
closed = 1;
nodes = (
(826,773,l),
(826,766,l),
(738,604,o),
(529,471,o),
(357,406,c),
(364,400,o),
(373,390,o),
(378,383,c),
(555,453,o),
(766,585,o),
(862,763,c),
(840,775,l),
(833,773,l)
);
},
{
closed = 1;
nodes = (
(370,-9,l),
(370,-38,l),
(953,-38,l),
(953,-9,l)
);
},
{
closed = 1;
nodes = (
(647,308,l),
(647,-27,l),
(676,-27,l),
(676,308,l)
);
},
{
closed = 1;
nodes = (
(431,327,l),
(431,297,l),
(909,297,l),
(909,327,l)
);
},
{
closed = 1;
nodes = (
(641,538,l),
(744,497,o),
(870,433,o),
(936,390,c),
(952,417,l),
(886,458,o),
(760,520,o),
(657,560,c)
);
}
);
vertWidth = 1000;
width = 1000;
},
{
layerId = "94DDBC6A-1627-4027-9125-871D02041BCD";
shapes = (
{
closed = 1;
nodes = (
(163,856,l),
(136,753,o),
(89,621,o),
(49,536,c),
(159,491,l),
(205,574,o),
(259,695,o),
(301,804,c)
);
},
{
closed = 1;
nodes = (
(37,416,l),
(113,425,o),
(213,440,o),
(297,456,c),
(291,579,l),
(196,567,o),
(88,556,o),
(11,549,c)
);
},
{
closed = 1;
nodes = (
(287,666,l),
(229,539,o),
(134,381,o),
(58,283,c),
(166,220,l),
(247,319,o),
(343,464,o),
(416,596,c)
);
},
{
closed = 1;
nodes = (
(48,170,l),
(146,187,o),
(277,212,o),
(390,235,c),
(379,362,l),
(255,341,o),
(117,321,o),
(21,308,c)
);
},
{
closed = 1;
nodes = (
(60,-56,l),
(146,-32,o),
(272,5,o),
(387,40,c),
(370,165,l),
(245,134,o),
(112,104,o),
(25,87,c)
);
},
{
closed = 1;
nodes = (
(423,808,l),
(423,677,l),
(818,677,l),
(818,808,l)
);
},
{
closed = 1;
nodes = (
(784,808,l),
(784,785,l),
(722,639,o),
(554,518,o),
(361,466,c),
(391,436,o),
(429,378,o),
(447,341,c),
(666,416,o),
(850,550,o),
(941,761,c),
(838,814,l),
(812,808,l)
);
},
{
closed = 1;
nodes = (
(373,64,l),
(373,-70,l),
(974,-70,l),
(974,64,l)
);
},
{
closed = 1;
nodes = (
(603,254,l),
(603,20,l),
(749,20,l),
(749,254,l)
);
},
{
closed = 1;
nodes = (
(435,340,l),
(435,209,l),
(921,209,l),
(921,340,l)
);
},
{
closed = 1;
nodes = (
(617,488,l),
(710,446,o),
(843,378,o),
(903,333,c),
(990,450,l),
(923,493,o),
(786,555,o),
(697,591,c)
);
}
);
vertWidth = 1000;
width = 1000;
}
);
note = cid31738;
unicode = 32463;
}
{
glyphname = uni7ED9;
layers = (
{
layerId = m01;
shapes = (
{
closed = 1;
nodes = (
(502,492,l),
(502,463,l),
(838,463,l),
(838,492,l)
);
},
{
closed = 1;
nodes = (
(477,21,l),
(477,-9,l),
(862,-9,l),
(862,21,l)
);
},
{
closed = 1;
nodes = (
(727,684,o),
(849,547,o),
(955,455,c),
(960,463,o),
(968,474,o),
(976,481,c),
(871,567,o),
(748,706,o),
(675,827,c),
(643,827,l),
(588,709,o),
(472,566,o),
(357,474,c),
(364,468,o),
(374,457,o),
(378,450,c),
(494,546,o),
(606,684,o),
(662,793,c)
);
},
{
closed = 1;
nodes = (
(463,311,l),
(463,-70,l),
(492,-70,l),
(492,281,l),
(848,281,l),
(848,-66,l),
(877,-66,l),
(877,311,l)
);
},
{
closed = 1;
nodes = (
(259,827,l),
(217,715,o),
(150,566,o),
(97,468,c),
(120,453,l),
(176,551,o),
(240,691,o),
(287,814,c)
);
},
{
closed = 1;
nodes = (
(56,440,l),
(120,448,o),
(213,461,o),
(297,475,c),
(295,502,l),
(207,489,o),
(113,477,o),
(50,471,c)
);
},
{
closed = 1;
nodes = (
(351,619,l),
(288,491,o),
(190,331,o),
(114,231,c),
(137,214,l),
(216,317,o),
(309,467,o),
(379,604,c)
);
},
{
closed = 1;
nodes = (
(60,197,l),
(155,212,o),
(277,234,o),
(376,254,c),
(374,283,l),
(271,263,o),
(147,243,o),
(53,229,c)
);
},
{
closed = 1;
nodes = (
(60,8,l),
(147,30,o),
(268,59,o),
(385,87,c),
(383,116,l),
(259,86,o),
(135,56,o),
(53,38,c)
);
}
);
vertWidth = 1000;
width = 1000;
},
{
layerId = "94DDBC6A-1627-4027-9125-871D02041BCD";
shapes = (
{
closed = 1;
nodes = (
(513,539,l),
(513,408,l),
(842,408,l),
(842,539,l)
);
},
{
closed = 1;
nodes = (
(522,84,l),
(522,-43,l),
(852,-43,l),
(852,84,l)
);
},
{
closed = 1;
nodes = (
(724,611,o),
(819,496,o),
(904,432,c),
(928,478,o),
(962,531,o),
(992,568,c),
(897,622,o),
(802,736,o),
(735,837,c),
(598,837,l),
(551,749,o),
(453,621,o),
(355,553,c),
(383,521,o),
(418,465,o),
(436,426,c),
(532,497,o),
(618,608,o),
(671,692,c)
);
},
{
closed = 1;
nodes = (
(446,337,l),
(446,-94,l),
(579,-94,l),
(579,210,l),
(772,210,l),
(772,-90,l),
(911,-90,l),
(911,337,l)
);
},
{
closed = 1;
nodes = (
(163,856,l),
(136,750,o),
(89,614,o),
(49,526,c),
(159,480,l),
(203,563,o),
(258,689,o),
(302,806,c)
);
},
{
closed = 1;
nodes = (
(37,406,l),
(113,415,o),
(213,430,o),
(297,446,c),
(291,569,l),
(196,557,o),
(88,546,o),
(11,539,c)
);
},
{
closed = 1;
nodes = (
(285,692,l),
(227,552,o),
(136,382,o),
(61,278,c),
(172,221,l),
(248,323,o),
(343,480,o),
(418,629,c)
);
},
{
closed = 1;
nodes = (
(48,160,l),
(146,177,o),
(277,202,o),
(390,225,c),
(379,352,l),
(255,331,o),
(117,311,o),
(21,298,c)
);
},
{
closed = 1;
nodes = (
(52,-66,l),
(152,-40,o),
(278,-8,o),
(396,24,c),
(382,149,l),
(252,121,o),
(116,92,o),
(26,77,c)
);
}
);
vertWidth = 1000;
width = 1000;
}
);
note = cid31748;
unicode = 32473;
}
{
glyphname = uni7EDF;
layers = (
{
layerId = m01;
shapes = (
{
closed = 1;
nodes = (
(672,831,l),
(642,831,l),
(642,672,l),
(672,672,l)
);
},
{
closed = 1;
nodes = (
(589,668,l),
(562,583,o),
(517,474,o),
(480,405,c),
(507,395,l),
(543,461,o),
(588,563,o),
(623,657,c)
);
},
{
closed = 1;
nodes = (
(746,564,l),
(813,492,o),
(885,392,o),
(918,329,c),
(944,346,l),
(912,409,o),
(838,507,o),
(771,579,c)
);
},
{
closed = 1;
nodes = (
(934,683,l),
(391,683,l),
(391,654,l),
(934,654,l)
);
},
{
closed = 1;
nodes = (
(395,382,l),
(518,389,o),
(700,400,o),
(876,411,c),
(877,439,l),
(694,428,o),
(510,418,o),
(392,414,c)
);
},
{
closed = 1;
nodes = (
(763,349,l),
(733,349,l),
(733,-9,ls),
(733,-55,o),
(747,-64,o),
(796,-64,cs),
(807,-64,o),
(891,-64,o),
(902,-64,cs),
(950,-64,o),
(959,-35,o),
(962,81,c),
(953,82,o),
(941,87,o),
(933,94,c),
(930,-17,o),
(926,-34,o),
(900,-34,cs),
(881,-34,o),
(810,-34,o),
(797,-34,cs),
(768,-34,o),
(763,-30,o),
(763,-9,cs)
);
},
{
closed = 1;
nodes = (
(547,347,l),
(538,133,o),
(503,9,o),
(334,-54,c),
(340,-59,o),
(350,-68,o),
(354,-75,c),
(528,-7,o),
(567,122,o),
(577,347,c)
);
},
{
closed = 1;
nodes = (
(246,827,l),
(211,717,o),
(149,570,o),
(95,471,c),
(119,456,l),
(174,557,o),
(234,695,o),
(275,814,c)
);
},
{
closed = 1;
nodes = (
(56,440,l),
(118,447,o),
(207,458,o),
(287,470,c),
(286,497,l),
(203,486,o),
(112,476,o),
(50,471,c)
);
},
{
closed = 1;
nodes = (
(340,634,l),
(274,492,o),
(179,326,o),
(110,232,c),
(133,215,l),
(204,310,o),
(294,466,o),
(368,619,c)
);
},
{
closed = 1;
nodes = (
(61,197,l),
(152,211,o),
(270,232,o),
(368,252,c),
(367,281,l),
(263,261,o),
(141,241,o),
(53,229,c)
);
},
{
closed = 1;
nodes = (
(57,8,l),
(137,26,o),
(257,55,o),
(369,83,c),
(366,112,l),
(248,84,o),
(126,55,o),
(49,38,c)
);
}
);
vertWidth = 1000;
width = 1000;
},
{
layerId = "94DDBC6A-1627-4027-9125-871D02041BCD";
shapes = (
{
closed = 1;
nodes = (
(748,855,l),
(600,855,l),
(600,688,l),
(748,688,l)
);
},
{
closed = 1;
nodes = (
(535,664,l),
(522,601,o),
(495,519,o),
(470,463,c),
(590,425,l),
(617,475,o),
(652,550,o),
(686,623,c)
);
},
{
closed = 1;
nodes = (
(724,554,l),
(777,481,o),
(837,383,o),
(860,320,c),
(980,385,l),
(953,450,o),
(889,543,o),
(835,612,c)
);
},
{
closed = 1;
nodes = (
(963,747,l),
(391,747,l),
(391,618,l),
(963,618,l)
);
},
{
closed = 1;
nodes = (
(418,354,l),
(538,364,o),
(700,378,o),
(851,392,c),
(849,516,l),
(689,503,o),
(515,491,o),
(398,484,c)
);
},
{
closed = 1;
nodes = (
(814,341,l),
(678,341,l),
(678,72,ls),
(678,-47,o),
(699,-89,o),
(798,-89,cs),
(816,-89,o),
(835,-89,o),
(854,-89,cs),
(932,-89,o),
(965,-46,o),
(976,107,c),
(940,117,o),
(882,139,o),
(856,162,c),
(854,54,o),
(850,38,o),
(838,38,cs),
(835,38,o),
(828,38,o),
(824,38,cs),
(815,38,o),
(814,41,o),
(814,74,cs)
);
},
{
closed = 1;
nodes = (
(490,341,l),
(485,178,o),
(478,75,o),
(331,12,c),
(361,-13,o),
(397,-64,o),
(412,-97,c),
(596,-14,o),
(620,132,o),
(627,341,c)
);
},
{
closed = 1;
nodes = (
(163,856,l),
(136,753,o),
(89,621,o),
(49,536,c),
(159,491,l),
(205,574,o),
(259,695,o),
(301,804,c)
);
},
{
closed = 1;
nodes = (
(37,416,l),
(113,425,o),
(213,440,o),
(297,456,c),
(291,579,l),
(196,567,o),
(88,556,o),
(11,549,c)
);
},
{
closed = 1;
nodes = (
(287,666,l),
(229,539,o),
(134,381,o),
(58,283,c),
(166,220,l),
(247,319,o),
(343,464,o),
(416,596,c)
);
},
{
closed = 1;
nodes = (
(48,170,l),
(146,187,o),
(277,212,o),
(390,235,c),
(379,362,l),
(255,341,o),
(117,321,o),
(21,308,c)
);
},
{
closed = 1;
nodes = (
(63,-63,l),
(160,-30,o),
(284,12,o),
(399,53,c),
(375,177,l),
(248,139,o),
(114,99,o),
(26,77,c)
);
}
);
vertWidth = 1000;
width = 1000;
}
);
note = cid31762;
unicode = 32479;
}
{
glyphname = uni7F06;
layers = (
{
layerId = m01;
shapes = (
{
closed = 1;
nodes = (
(944,722,l),
(722,722,l),
(722,693,l),
(944,693,l)
);
},
{
closed = 1;
nodes = (
(745,823,l),
(724,742,o),
(683,639,o),
(629,572,c),
(636,568,o),
(647,559,o),
(652,554,c),
(707,623,o),
(751,730,o),
(775,817,c)
);
},
{
closed = 1;
nodes = (
(741,592,l),
(791,565,o),
(848,521,o),
(877,490,c),
(898,515,l),
(868,544,o),
(812,584,o),
(760,614,c)
);
},
{
closed = 1;
nodes = (
(442,794,l),
(413,794,l),
(413,512,l),
(442,512,l)
);
},
{
closed = 1;
nodes = (
(685,146,l),
(656,146,l),
(656,-3,ls),
(656,-47,o),
(672,-54,o),
(731,-54,cs),
(744,-54,o),
(874,-54,o),
(888,-54,cs),
(937,-54,o),
(948,-34,o),
(952,54,c),
(943,57,o),
(931,61,o),
(923,67,c),
(920,-16,o),
(916,-25,o),
(884,-25,cs),
(859,-25,o),
(748,-25,o),
(730,-25,cs),
(691,-25,o),
(685,-22,o),
(685,-3,cs)
);
},
{
closed = 1;
nodes = (
(866,418,l),
(436,418,l),
(436,107,l),
(466,107,l),
(466,388,l),
(836,388,l),
(836,107,l),
(866,107,l)
);
},
{
closed = 1;
nodes = (
(581,830,l),
(552,830,l),
(552,473,l),
(581,473,l)
);
},
{
closed = 1;
nodes = (
(634,331,l),
(627,75,o),
(581,-2,o),
(326,-44,c),
(331,-50,o),
(339,-63,o),
(342,-69,c),
(604,-23,o),
(655,61,o),
(664,331,c)
);
},
{
closed = 1;
nodes = (
(241,827,l),
(203,711,o),
(141,564,o),
(90,470,c),
(114,457,l),
(166,552,o),
(226,689,o),
(270,814,c)
);
},
{
closed = 1;
nodes = (
(56,438,l),
(113,445,o),
(198,457,o),
(277,470,c),
(276,497,l),
(193,486,o),
(106,475,o),
(50,469,c)
);
},
{
closed = 1;
nodes = (
(330,634,l),
(266,495,o),
(171,329,o),
(100,232,c),
(123,215,l),
(196,312,o),
(286,468,o),
(358,619,c)
);
},
{
closed = 1;
nodes = (
(60,197,l),
(146,211,o),
(264,233,o),
(366,254,c),
(365,283,l),
(256,261,o),
(136,241,o),
(54,229,c)
);
},
{
closed = 1;
nodes = (
(61,8,l),
(141,26,o),
(261,56,o),
(373,85,c),
(371,114,l),
(252,84,o),
(129,55,o),
(52,38,c)
);
}
);
vertWidth = 1000;
width = 1000;
},
{
layerId = "94DDBC6A-1627-4027-9125-871D02041BCD";
name = Heavy;
shapes = (
{
closed = 1;
nodes = (
(948,760,l),
(754,760,l),
(754,649,l),
(948,649,l)
);
},
{
closed = 1;
nodes = (
(706,856,l),
(693,766,o),
(661,646,o),
(609,575,c),
(637,560,o),
(681,530,o),
(706,510,c),
(765,591,o),
(804,724,o),
(829,833,c)
);
},
{
closed = 1;
nodes = (
(743,581,l),
(780,546,o),
(822,496,o),
(842,464,c),
(931,527,l),
(910,558,o),
(867,602,o),
(829,635,c)
);
},
{
closed = 1;
nodes = (
(493,816,l),
(380,816,l),
(380,487,l),
(493,487,l)
);
},
{
closed = 1;
nodes = (
(752,121,l),
(630,121,l),
(630,48,ls),
(630,-48,o),
(653,-80,o),
(761,-80,cs),
(782,-80,o),
(844,-80,o),
(866,-80,cs),
(940,-80,o),
(972,-56,o),
(984,36,c),
(952,43,o),
(902,60,o),
(879,77,c),
(876,30,o),
(871,23,o),
(851,23,cs),
(839,23,o),
(791,23,o),
(780,23,cs),
(756,23,o),
(752,25,o),
(752,49,cs)
);
},
{
closed = 1;
nodes = (
(895,448,l),
(415,448,l),
(415,106,l),
(540,106,l),
(540,333,l),
(764,333,l),
(764,116,l),
(895,116,l)
);
},
{
closed = 1;
nodes = (
(640,856,l),
(522,856,l),
(522,469,l),
(640,469,l)
);
},
{
closed = 1;
nodes = (
(591,301,l),
(583,128,o),
(565,47,o),
(309,6,c),
(333,-19,o),
(363,-67,o),
(373,-98,c),
(671,-40,o),
(710,81,o),
(721,301,c)
);
},
{
closed = 1;
nodes = (
(164,857,l),
(136,755,o),
(86,619,o),
(43,529,c),
(145,484,l),
(192,573,o),
(248,698,o),
(288,808,c)
);
},
{
closed = 1;
nodes = (
(37,418,l),
(109,427,o),
(204,442,o),
(283,457,c),
(278,577,l),
(191,564,o),
(89,553,o),
(12,548,c)
);
},
{
closed = 1;
nodes = (
(275,693,l),
(216,547,o),
(125,370,o),
(55,267,c),
(153,215,l),
(230,320,o),
(324,481,o),
(394,632,c)
);
},
{
closed = 1;
nodes = (
(49,175,l),
(135,193,o),
(262,221,o),
(378,249,c),
(364,373,l),
(243,348,o),
(110,322,o),
(19,307,c)
);
},
{
closed = 1;
nodes = (
(53,-52,l),
(147,-23,o),
(276,19,o),
(386,57,c),
(367,176,l),
(247,142,o),
(114,106,o),
(22,83,c)
);
}
);
vertWidth = 1000;
width = 1000;
}
);
note = cid31801;
unicode = 32518;
}
{
glyphname = uni8138;
layers = (
{
layerId = m01;
shapes = (
{
closed = 1;
nodes = (
(428,328,l),
(466,246,o),
(500,143,o),
(510,79,c),
(538,90,l),
(527,153,o),
(493,254,o),
(455,336,c)
);
},
{
closed = 1;
nodes = (
(611,366,l),
(635,280,o),
(655,173,o),
(660,107,c),
(689,112,l),
(683,179,o),
(662,286,o),
(639,371,c)
);
},
{
closed = 1;
nodes = (
(874,352,l),
(831,224,o),
(769,71,o),
(724,-19,c),
(749,-31,l),
(795,61,o),
(854,204,o),
(903,339,c)
);
},
{
closed = 1;
nodes = (
(371,-10,l),
(371,-40,l),
(937,-40,l),
(937,-10,l)
);
},
{
closed = 1;
nodes = (
(817,495,l),
(480,495,l),
(480,466,l),
(817,466,l)
);
},
{
closed = 1;
nodes = (
(714,669,o),
(828,546,o),
(935,456,c),
(939,463,o),
(948,474,o),
(955,481,c),
(850,562,o),
(730,690,o),
(663,827,c),
(631,827,l),
(578,694,o),
(468,562,o),
(353,473,c),
(360,467,o),
(369,457,o),
(373,451,c),
(487,545,o),
(595,674,o),
(649,797,c)
);
},
{
closed = 1;
nodes = (
(337,792,l),
(133,792,l),
(133,763,l),
(337,763,l)
);
},
{
closed = 1;
nodes = (
(337,551,l),
(133,551,l),
(133,522,l),
(337,522,l)
);
},
{
closed = 1;
nodes = (
(338,304,l),
(131,304,l),
(131,275,l),
(338,275,l)
);
},
{
closed = 1;
nodes = (
(148,792,l),
(119,792,l),
(119,437,ls),
(119,289,o),
(113,89,o),
(39,-55,c),
(47,-58,o),
(59,-65,o),
(65,-71,c),
(138,76,o),
(148,286,o),
(148,437,cs)
);
},
{
closed = 1;
nodes = (
(352,792,l),
(323,792,l),
(323,-22,ls),
(323,-37,o),
(317,-41,o),
(302,-42,cs),
(289,-43,o),
(243,-43,o),
(186,-42,c),
(191,-51,o),
(197,-64,o),
(199,-70,c),
(268,-71,o),
(304,-70,o),
(324,-65,cs),
(343,-60,o),
(352,-48,o),
(352,-21,cs)
);
}
);
width = 1000;
},
{
layerId = "94DDBC6A-1627-4027-9125-871D02041BCD";
shapes = (
{
closed = 1;
nodes = (
(411,348,l),
(437,262,o),
(458,157,o),
(461,95,c),
(581,131,l),
(577,193,o),
(553,294,o),
(523,377,c)
);
},
{
closed = 1;
nodes = (
(588,385,l),
(602,303,o),
(611,196,o),
(610,126,c),
(734,144,l),
(733,213,o),
(721,318,o),
(704,398,c)
);
},
{
closed = 1;
nodes = (
(812,387,l),
(785,273,o),
(741,132,o),
(705,41,c),
(816,-1,l),
(856,90,o),
(906,222,o),
(947,345,c)
);
},
{
closed = 1;
nodes = (
(393,67,l),
(393,-69,l),
(952,-69,l),
(952,67,l)
);
},
{
closed = 1;
nodes = (
(832,563,l),
(503,563,l),
(503,435,l),
(832,435,l)
);
},
{
closed = 1;
nodes = (
(718,636,o),
(815,534,o),
(906,480,c),
(927,524,o),
(957,579,o),
(985,615,c),
(887,658,o),
(795,756,o),
(730,855,c),
(594,855,l),
(549,770,o),
(455,660,o),
(356,607,c),
(381,575,o),
(413,519,o),
(428,480,c),
(525,537,o),
(617,637,o),
(667,718,c)
);
},
{
closed = 1;
nodes = (
(335,822,l),
(132,822,l),
(132,693,l),
(335,693,l)
);
},
{
closed = 1;
nodes = (
(320,594,l),
(139,594,l),
(139,468,l),
(320,468,l)
);
},
{
closed = 1;
nodes = (
(320,364,l),
(139,364,l),
(139,237,l),
(320,237,l)
);
},
{
closed = 1;
nodes = (
(202,822,l),
(76,822,l),
(76,452,ls),
(76,304,o),
(73,99,o),
(18,-38,c),
(50,-50,o),
(107,-82,o),
(132,-102,c),
(193,49,o),
(202,289,o),
(202,452,cs)
);
},
{
closed = 1;
nodes = (
(386,822,l),
(255,822,l),
(255,50,ls),
(255,39,o),
(252,36,o),
(243,36,cs),
(234,36,o),
(209,36,o),
(189,37,c),
(204,2,o),
(217,-60,o),
(219,-96,c),
(275,-96,o),
(315,-93,o),
(347,-70,cs),
(379,-47,o),
(386,-10,o),
(386,48,cs)
);
}
);
width = 1000;
}
);
note = cid32890;
unicode = 33080;
}
{
glyphname = uni8A00;
layers = (
{
layerId = m01;
shapes = (
{
closed = 1;
nodes = (
(779,10,l),
(223,10,l),
(223,-19,l),
(779,-19,l)
);
},
{
closed = 1;
nodes = (
(783,384,l),
(214,384,l),
(214,354,l),
(783,354,l)
);
},
{
closed = 1;
nodes = (
(783,529,l),
(214,529,l),
(214,500,l),
(783,500,l)
);
},
{
closed = 1;
nodes = (
(794,235,l),
(207,235,l),
(207,-70,l),
(236,-70,l),
(236,206,l),
(765,206,l),
(765,-67,l),
(794,-67,l)
);
},
{
closed = 1;
nodes = (
(945,673,l),
(62,673,l),
(62,644,l),
(945,644,l)
);
},
{
closed = 1;
nodes = (
(516,832,l),
(485,832,l),
(485,660,l),
(516,660,l)
);
}
);
vertWidth = 1000;
width = 1000;
},
{
layerId = "94DDBC6A-1627-4027-9125-871D02041BCD";
shapes = (
{
closed = 1;
nodes = (
(749,62,l),
(262,62,l),
(262,-64,l),
(749,-64,l)
);
},
{
closed = 1;
nodes = (
(805,410,l),
(201,410,l),
(201,289,l),
(805,289,l)
);
},
{
closed = 1;
nodes = (
(805,566,l),
(201,566,l),
(201,445,l),
(805,445,l)
);
},
{
closed = 1;
nodes = (
(823,251,l),
(182,251,l),
(182,-94,l),
(325,-94,l),
(325,123,l),
(672,123,l),
(672,-91,l),
(823,-91,l)
);
},
{
closed = 1;
nodes = (
(961,730,l),
(42,730,l),
(42,600,l),
(961,600,l)
);
},
{
closed = 1;
nodes = (
(572,855,l),
(418,855,l),
(418,661,l),
(572,661,l)
);
}
);
vertWidth = 1000;
width = 1000;
}
);
note = cid37548;
unicode = 35328;
}
{
glyphname = uni8BE2;
layers = (
{
layerId = m01;
shapes = (
{
closed = 1;
nodes = (
(526,831,l),
(482,697,o),
(412,566,o),
(329,478,c),
(338,474,o),
(352,466,o),
(358,462,c),
(436,551,o),
(509,684,o),
(557,824,c)
);
},
{
closed = 1;
nodes = (
(912,673,l),
(483,673,l),
(469,644,l),
(912,644,l)
);
},
{
closed = 1;
nodes = (
(904,673,l),
(904,665,ls),
(886,181,o),
(866,13,o),
(829,-26,c),
(819,-39,o),
(808,-41,o),
(788,-41,cs),
(767,-41,o),
(707,-40,o),
(641,-35,c),
(647,-43,o),
(649,-56,o),
(650,-65,c),
(705,-69,o),
(762,-71,o),
(792,-70,cs),
(821,-69,o),
(840,-64,o),
(857,-43,cs),
(898,4,o),
(915,162,o),
(933,650,c),
(934,657,o),
(934,673,o),
(934,673,c)
);
},
{
closed = 1;
nodes = (
(718,341,l),
(466,341,l),
(466,312,l),
(718,312,l)
);
},
{
closed = 1;
nodes = (
(733,520,l),
(468,520,l),
(468,490,l),
(704,490,l),
(704,161,l),
(468,161,l),
(468,131,l),
(733,131,l)
);
},
{
closed = 1;
nodes = (
(482,520,l),
(453,520,l),
(453,65,l),
(482,65,l)
);
},
{
closed = 1;
nodes = (
(111,788,l),
(175,739,o),
(237,676,o),
(271,624,c),
(292,645,l),
(257,696,o),
(195,758,o),
(131,807,c)
);
},
{
closed = 1;
nodes = (
(225,505,l),
(50,505,l),
(50,475,l),
(225,475,l)
);
},
{
closed = 1;
nodes = (
(239,505,l),
(210,505,l),
(210,6,l),
(239,26,l)
);
},
{
closed = 1;
nodes = (
(158,-40,l),
(220,-4,o),
(305,48,o),
(379,94,c),
(368,119,l),
(290,71,o),
(202,19,o),
(140,-15,c)
);
}
);
vertWidth = 1000;
width = 1000;
},
{
layerId = "94DDBC6A-1627-4027-9125-871D02041BCD";
shapes = (
{
closed = 1;
nodes = (
(481,855,l),
(444,728,o),
(373,604,o),
(288,530,c),
(320,508,o),
(377,460,o),
(402,435,c),
(490,525,o),
(573,671,o),
(621,821,c)
);
},
{
closed = 1;
nodes = (
(864,714,l),
(481,714,l),
(481,577,l),
(864,577,l)
);
},
{
closed = 1;
nodes = (
(823,714,l),
(823,684,ls),
(815,270,o),
(805,97,o),
(776,64,cs),
(764,49,o),
(753,45,o),
(735,45,cs),
(709,45,o),
(658,45,o),
(602,50,c),
(627,9,o),
(646,-54,o),
(648,-94,c),
(705,-95,o),
(763,-96,o),
(801,-88,cs),
(844,-80,o),
(873,-67,o),
(903,-24,cs),
(942,31,o),
(952,196,o),
(963,648,cs),
(963,666,o),
(964,714,o),
(964,714,c)
);
},
{
closed = 1;
nodes = (
(680,368,l),
(481,368,l),
(481,259,l),
(680,259,l)
);
},
{
closed = 1;
nodes = (
(748,520,l),
(495,520,l),
(495,407,l),
(622,407,l),
(622,217,l),
(495,217,l),
(495,104,l),
(748,104,l)
);
},
{
closed = 1;
nodes = (
(549,520,l),
(425,520,l),
(425,52,l),
(549,52,l)
);
},
{
closed = 1;
nodes = (
(68,757,l),
(125,705,o),
(180,639,o),
(212,586,c),
(321,681,l),
(287,734,o),
(229,796,o),
(171,843,c)
);
},
{
closed = 1;
nodes = (
(196,531,l),
(25,531,l),
(25,390,l),
(196,390,l)
);
},
{
closed = 1;
nodes = (
(275,531,l),
(136,531,l),
(136,31,l),
(275,91,l)
);
},
{
closed = 1;
nodes = (
(138,-95,l),
(214,-57,o),
(310,-4,o),
(388,42,c),
(349,161,l),
(260,117,o),
(151,67,o),
(66,32,c)
);
}
);
vertWidth = 1000;
width = 1000;
}
);
note = cid38498;
unicode = 35810;
}
{
glyphname = uni8F66;
layers = (
{
layerId = m01;
shapes = (
{
closed = 1;
nodes = (
(84,681,l),
(84,652,l),
(914,652,l),
(914,681,l)
);
},
{
closed = 1;
nodes = (
(74,168,l),
(74,138,l),
(930,138,l),
(930,168,l)
);
},
{
closed = 1;
nodes = (
(496,554,l),
(496,-71,l),
(525,-71,l),
(525,554,l)
);
},
{
closed = 1;
nodes = (
(196,390,l),
(196,361,l),
(849,361,l),
(849,390,l)
);
},
{
closed = 1;
nodes = (
(362,830,l),
(308,654,o),
(226,456,o),
(149,317,c),
(179,312,l),
(254,448,o),
(336,646,o),
(392,825,c)
);
}
);
width = 1000;
},
{
layerId = "94DDBC6A-1627-4027-9125-871D02041BCD";
shapes = (
{
closed = 1;
nodes = (
(65,716,l),
(65,576,l),
(939,576,l),
(939,716,l)
);
},
{
closed = 1;
nodes = (
(41,209,l),
(41,67,l),
(960,67,l),
(960,209,l)
);
},
{
closed = 1;
nodes = (
(440,536,l),
(440,-95,l),
(597,-95,l),
(597,536,l)
);
},
{
closed = 1;
nodes = (
(201,439,l),
(201,301,l),
(873,301,l),
(873,439,l)
);
},
{
closed = 1;
nodes = (
(307,855,l),
(249,663,o),
(174,450,o),
(112,301,c),
(272,273,l),
(331,419,o),
(406,636,o),
(467,838,c)
);
}
);
width = 1000;
}
);
note = cid39922;
unicode = 36710;
}
{
glyphname = uni8F67;
layers = (
{
layerId = m01;
shapes = (
{
closed = 1;
nodes = (
(525,682,l),
(56,682,l),
(56,652,l),
(525,652,l)
);
},
{
closed = 1;
nodes = (
(336,553,l),
(307,553,l),
(307,-70,l),
(336,-70,l)
);
},
{
closed = 1;
nodes = (
(60,118,l),
(182,136,o),
(357,164,o),
(525,191,c),
(524,219,l),
(348,192,o),
(168,165,o),
(52,149,c)
);
},
{
closed = 1;
nodes = (
(522,395,l),
(134,395,l),
(134,366,l),
(522,366,l)
);
},
{
closed = 1;
nodes = (
(221,830,l),
(189,654,o),
(139,456,o),
(89,317,c),
(120,312,l),
(168,448,o),
(219,646,o),
(251,825,c)
);
},
{
closed = 1;
nodes = (
(625,819,l),
(596,819,l),
(596,35,ls),
(596,-39,o),
(615,-56,o),
(686,-56,cs),
(702,-56,o),
(835,-56,o),
(853,-56,cs),
(932,-56,o),
(941,1,o),
(948,182,c),
(938,185,o),
(927,190,o),
(918,198,c),
(912,19,o),
(907,-27,o),
(854,-27,cs),
(822,-27,o),
(707,-27,o),
(684,-27,cs),
(636,-27,o),
(625,-16,o),
(625,33,cs)
);
}
);
vertWidth = 1000;
width = 1000;
},
{
layerId = "94DDBC6A-1627-4027-9125-871D02041BCD";
shapes = (
{
closed = 1;
nodes = (
(510,742,l),
(34,742,l),
(34,608,l),
(510,608,l)
);
},
{
closed = 1;
nodes = (
(399,557,l),
(259,557,l),
(259,-94,l),
(399,-94,l)
);
},
{
closed = 1;
nodes = (
(49,52,l),
(181,73,o),
(359,103,o),
(510,130,c),
(503,261,l),
(335,237,o),
(148,213,o),
(19,199,c)
);
},
{
closed = 1;
nodes = (
(505,444,l),
(142,444,l),
(142,314,l),
(504,314,l)
);
},
{
closed = 1;
nodes = (
(167,855,l),
(133,665,o),
(87,451,o),
(48,300,c),
(180,275,l),
(219,427,o),
(265,645,o),
(300,840,c)
);
},
{
closed = 1;
nodes = (
(696,830,l),
(546,830,l),
(546,125,ls),
(546,-33,o),
(582,-81,o),
(708,-81,cs),
(731,-81,o),
(791,-81,o),
(817,-81,cs),
(934,-81,o),
(970,-6,o),
(984,185,c),
(944,194,o),
(882,222,o),
(847,249,c),
(841,98,o),
(835,60,o),
(801,60,cs),
(788,60,o),
(745,60,o),
(731,60,cs),
(699,60,o),
(696,67,o),
(696,124,cs)
);
}
);
vertWidth = 1000;
width = 1000;
}
);
note = cid39921;
unicode = 36711;
}
{
glyphname = uni8F6E;
layers = (
{
layerId = m01;
shapes = (
{
closed = 1;
nodes = (
(417,682,l),
(56,682,l),
(56,652,l),
(417,652,l)
);
},
{
closed = 1;
nodes = (
(277,556,l),
(247,556,l),
(247,379,l),
(277,379,l)
);
},
{
closed = 1;
nodes = (
(61,118,l),
(153,137,o),
(296,166,o),
(431,195,c),
(428,223,l),
(288,194,o),
(143,165,o),
(52,149,c)
);
},
{
closed = 1;
nodes = (
(409,395,l),
(97,395,l),
(97,366,l),
(409,366,l)
);
},
{
closed = 1;
nodes = (
(741,683,o),
(842,560,o),
(937,477,c),
(941,485,o),
(951,496,o),
(957,503,c),
(865,576,o),
(760,704,o),
(698,827,c),
(667,827,l),
(619,704,o),
(518,566,o),
(413,482,c),
(420,475,o),
(428,467,o),
(433,460,c),
(539,547,o),
(635,683,o),
(684,795,c)
);
},
{
closed = 1;
nodes = (
(196,830,l),
(164,654,o),
(114,456,o),
(64,317,c),
(95,312,l),
(143,448,o),
(194,646,o),
(226,825,c)
);
},
{
closed = 1;
nodes = (
(277,379,l),
(247,379,l),
(247,-70,l),
(277,-70,l)
);
},
{
closed = 1;
nodes = (
(844,398,l),
(766,350,o),
(644,296,o),
(526,258,c),
(530,251,o),
(536,241,o),
(538,234,c),
(657,272,o),
(784,326,o),
(866,375,c)
);
},
{
closed = 1;
nodes = (
(543,473,l),
(514,473,l),
(514,18,ls),
(514,-47,o),
(537,-61,o),
(617,-61,cs),
(635,-61,o),
(802,-61,o),
(822,-61,cs),
(901,-61,o),
(913,-22,o),
(919,113,c),
(910,115,o),
(898,121,o),
(890,127,c),
(885,-4,o),
(876,-31,o),
(823,-31,cs),
(784,-31,o),
(643,-31,o),
(614,-31,cs),
(555,-31,o),
(543,-21,o),
(543,17,cs)
);
}
);
vertWidth = 1000;
width = 1000;
},
{
layerId = "94DDBC6A-1627-4027-9125-871D02041BCD";
shapes = (
{
closed = 1;
nodes = (
(436,747,l),
(33,747,l),
(33,610,l),
(436,610,l)
);
},
{
closed = 1;
nodes = (
(333,561,l),
(224,561,l),
(224,383,l),
(333,383,l)
);
},
{
closed = 1;
nodes = (
(49,56,l),
(164,75,o),
(316,101,o),
(444,125,c),
(437,249,l),
(292,228,o),
(131,207,o),
(21,195,c)
);
},
{
closed = 1;
nodes = (
(434,444,l),
(124,444,l),
(124,314,l),
(433,314,l)
);
},
{
closed = 1;
nodes = (
(734,605,o),
(822,480,o),
(908,411,c),
(930,457,o),
(962,511,o),
(990,547,c),
(899,606,o),
(809,734,o),
(749,845,c),
(615,845,l),
(574,748,o),
(484,608,o),
(390,536,c),
(416,504,o),
(450,449,o),
(466,409,c),
(559,483,o),
(640,603,o),
(687,694,c)
);
},
{
closed = 1;
nodes = (
(137,855,l),
(108,664,o),
(68,450,o),
(33,300,c),
(160,276,l),
(195,428,o),
(235,646,o),
(265,841,c)
);
},
{
closed = 1;
nodes = (
(333,383,l),
(209,383,l),
(209,-95,l),
(333,-95,l)
);
},
{
closed = 1;
nodes = (
(812,443,l),
(738,385,o),
(626,328,o),
(517,292,c),
(535,263,o),
(557,215,o),
(564,185,c),
(680,219,o),
(808,267,o),
(909,331,c)
);
},
{
closed = 1;
nodes = (
(633,470,l),
(489,470,l),
(489,103,ls),
(489,-39,o),
(525,-82,o),
(664,-82,cs),
(693,-82,o),
(751,-82,o),
(781,-82,cs),
(896,-82,o),
(935,-35,o),
(952,122,c),
(912,131,o),
(852,154,o),
(821,178,c),
(814,72,o),
(807,53,o),
(768,53,cs),
(746,53,o),
(703,53,o),
(683,53,cs),
(639,53,o),
(633,58,o),
(633,104,cs)
);
}
);
vertWidth = 1000;
width = 1000;
}
);
note = cid39928;
unicode = 36718;
}
{
glyphname = uni8F93;
layers = (
{
layerId = m01;
shapes = (
{
closed = 1;
nodes = (
(363,682,l),
(58,682,l),
(58,652,l),
(363,652,l)
);
},
{
closed = 1;
nodes = (
(246,556,l),
(216,556,l),
(216,380,l),
(246,380,l)
);
},
{
closed = 1;
nodes = (
(62,119,l),
(145,140,o),
(263,173,o),
(369,204,c),
(365,231,l),
(252,200,o),
(132,168,o),
(52,149,c)
);
},
{
closed = 1;
nodes = (
(354,395,l),
(98,395,l),
(98,366,l),
(354,366,l)
);
},
{
closed = 1;
nodes = (
(826,565,l),
(496,565,l),
(496,535,l),
(826,535,l)
);
},
{
closed = 1;
nodes = (
(616,289,l),
(425,289,l),
(425,260,l),
(616,260,l)
);
},
{
closed = 1;
nodes = (
(616,139,l),
(425,139,l),
(425,110,l),
(616,110,l)
);
},
{
closed = 1;
nodes = (
(629,437,l),
(600,437,l),
(600,-27,ls),
(600,-37,o),
(598,-40,o),
(588,-41,cs),
(578,-41,o),
(545,-41,o),
(504,-40,c),
(508,-48,o),
(513,-60,o),
(515,-69,c),
(564,-69,o),
(592,-68,o),
(609,-64,c),
(625,-58,o),
(629,-48,o),
(629,-26,cs)
);
},
{
closed = 1;
nodes = (
(620,437,l),
(412,437,l),
(412,-70,l),
(442,-70,l),
(442,408,l),
(620,408,l)
);
},
{
closed = 1;
nodes = (
(740,420,l),
(710,420,l),
(710,84,l),
(740,84,l)
);
},
{
closed = 1;
nodes = (
(722,693,o),
(837,587,o),
(943,520,c),
(947,528,o),
(955,539,o),
(961,545,c),
(858,607,o),
(737,716,o),
(665,824,c),
(636,824,l),
(581,719,o),
(467,607,o),
(352,536,c),
(359,530,o),
(368,520,o),
(372,513,c),
(488,587,o),
(595,699,o),
(652,794,c)
);
},
{
closed = 1;
nodes = (
(900,449,l),
(870,449,l),
(870,-25,ls),
(870,-37,o),
(868,-41,o),
(856,-42,cs),
(843,-43,o),
(803,-43,o),
(751,-41,c),
(755,-50,o),
(760,-62,o),
(763,-71,c),
(821,-71,o),
(857,-71,o),
(875,-65,cs),
(893,-60,o),
(900,-50,o),
(900,-25,cs)
);
},
{
closed = 1;
nodes = (
(177,830,l),
(150,654,o),
(105,456,o),
(59,317,c),
(90,312,l),
(134,448,o),
(180,646,o),
(207,825,c)
);
},
{
closed = 1;
nodes = (
(246,380,l),
(216,380,l),
(216,-70,l),
(246,-70,l)
);
}
);
vertWidth = 1000;
width = 1000;
},
{
layerId = "94DDBC6A-1627-4027-9125-871D02041BCD";
shapes = (
{
closed = 1;
nodes = (
(372,744,l),
(29,744,l),
(29,615,l),
(372,615,l)
);
},
{
closed = 1;
nodes = (
(299,562,l),
(193,562,l),
(193,373,l),
(299,373,l)
);
},
{
closed = 1;
nodes = (
(54,61,l),
(150,81,o),
(270,106,o),
(382,132,c),
(372,252,l),
(246,230,o),
(114,207,o),
(26,195,c)
);
},
{
closed = 1;
nodes = (
(366,440,l),
(114,440,l),
(114,310,l),
(366,310,l)
);
},
{
closed = 1;
nodes = (
(818,597,l),
(506,597,l),
(506,483,l),
(818,483,l)
);
},
{
closed = 1;
nodes = (
(623,305,l),
(471,305,l),
(471,204,l),
(623,204,l)
);
},
{
closed = 1;
nodes = (
(623,168,l),
(471,168,l),
(471,67,l),
(623,67,l)
);
},
{
closed = 1;
nodes = (
(667,445,l),
(559,445,l),
(559,20,ls),
(559,12,o),
(557,9,o),
(550,9,cs),
(543,9,o),
(527,9,o),
(513,10,c),
(525,-19,o),
(537,-65,o),
(539,-95,c),
(579,-95,o),
(610,-94,o),
(636,-76,cs),
(663,-58,o),
(667,-29,o),
(667,18,cs)
);
},
{
closed = 1;
nodes = (
(621,445,l),
(399,445,l),
(399,-95,l),
(505,-95,l),
(505,337,l),
(621,337,l)
);
},
{
closed = 1;
nodes = (
(792,422,l),
(691,422,l),
(691,75,l),
(792,75,l)
);
},
{
closed = 1;
nodes = (
(716,643,o),
(818,539,o),
(909,482,c),
(930,525,o),
(959,576,o),
(987,611,c),
(886,657,o),
(789,757,o),
(720,858,c),
(592,858,l),
(544,772,o),
(444,659,o),
(342,602,c),
(366,571,o),
(398,518,o),
(412,481,c),
(512,542,o),
(606,643,o),
(661,726,c)
);
},
{
closed = 1;
nodes = (
(933,454,l),
(818,454,l),
(818,32,ls),
(818,21,o),
(814,18,o),
(804,18,cs),
(792,18,o),
(756,18,o),
(724,19,c),
(737,-13,o),
(752,-62,o),
(756,-95,c),
(814,-95,o),
(858,-93,o),
(891,-75,cs),
(925,-56,o),
(933,-25,o),
(933,30,cs)
);
},
{
closed = 1;
nodes = (
(132,855,l),
(103,664,o),
(63,450,o),
(28,300,c),
(140,279,l),
(174,428,o),
(214,648,o),
(244,843,c)
);
},
{
closed = 1;
nodes = (
(299,373,l),
(178,373,l),
(178,-95,l),
(299,-95,l)
);
}
);
vertWidth = 1000;
width = 1000;
}
);
note = cid39965;
unicode = 36755;
}
{
glyphname = uni8FB9;
layers = (
{
layerId = m01;
shapes = (
{
closed = 1;
nodes = (
(246,91,l),
(246,431,l),
(54,431,l),
(54,402,l),
(217,402,l),
(217,91,l)
);
},
{
closed = 1;
nodes = (
(220,105,l),
(164,55,o),
(99,2,o),
(49,-34,c),
(69,-63,l),
(123,-18,o),
(180,30,o),
(232,78,c),
(295,-3,o),
(392,-45,o),
(530,-50,cs),
(632,-53,o),
(844,-51,o),
(942,-48,c),
(944,-38,o),
(949,-24,o),
(954,-17,c),
(852,-22,o),
(629,-25,o),
(528,-21,cs),
(401,-17,o),
(300,24,o),
(246,105,c)
);
},
{
closed = 1;
nodes = (
(74,787,l),
(144,743,o),
(222,675,o),
(256,625,c),
(279,645,l),
(243,695,o),
(166,762,o),
(95,805,c)
);
},
{
closed = 1;
nodes = (
(889,639,l),
(344,639,l),
(344,610,l),
(889,610,l)
);
},
{
closed = 1;
nodes = (
(876,639,l),
(876,631,ls),
(859,281,o),
(839,156,o),
(809,125,cs),
(799,114,o),
(788,112,o),
(769,113,cs),
(748,113,o),
(689,113,o),
(626,119,c),
(632,110,o),
(635,98,o),
(636,89,c),
(690,85,o),
(746,83,o),
(773,84,cs),
(802,84,o),
(819,90,o),
(834,107,cs),
(869,145,o),
(886,264,o),
(906,618,cs),
(906,624,o),
(906,639,o),
(906,639,c)
);
},
{
closed = 1;
nodes = (
(573,810,l),
(567,492,o),
(550,235,o),
(318,114,c),
(326,109,o),
(336,99,o),
(341,93,c),
(576,222,o),
(595,480,o),
(602,810,c)
);
}
);
width = 1000;
},
{
layerId = "94DDBC6A-1627-4027-9125-871D02041BCD";
shapes = (
{
closed = 1;
nodes = (
(286,90,l),
(286,468,l),
(41,468,l),
(41,334,l),
(144,334,l),
(144,90,l)
);
},
{
closed = 1;
nodes = (
(153,154,l),
(109,122,o),
(59,92,o),
(15,67,c),
(85,-85,l),
(139,-42,o),
(181,-6,o),
(222,30,c),
(288,-47,o),
(367,-72,o),
(486,-77,cs),
(611,-83,o),
(810,-81,o),
(937,-74,c),
(944,-31,o),
(967,39,o),
(983,74,c),
(839,61,o),
(611,58,o),
(489,63,cs),
(391,67,o),
(323,92,o),
(286,154,c)
);
},
{
closed = 1;
nodes = (
(37,745,l),
(94,700,o),
(164,633,o),
(193,587,c),
(309,683,l),
(275,729,o),
(202,791,o),
(145,832,c)
);
},
{
closed = 1;
nodes = (
(858,696,l),
(339,696,l),
(339,555,l),
(858,555,l)
);
},
{
closed = 1;
nodes = (
(796,696,l),
(796,671,ls),
(791,388,o),
(785,269,o),
(763,244,cs),
(752,233,o),
(741,230,o),
(723,230,cs),
(697,230,o),
(646,230,o),
(592,234,c),
(619,193,o),
(640,129,o),
(643,85,c),
(700,84,o),
(758,84,o),
(794,90,cs),
(836,97,o),
(866,109,o),
(895,148,cs),
(929,193,o),
(937,318,o),
(943,635,cs),
(944,653,o),
(944,696,o),
(944,696,c)
);
},
{
closed = 1;
nodes = (
(522,849,l),
(517,590,o),
(523,337,o),
(305,181,c),
(344,155,o),
(387,108,o),
(409,72,c),
(654,257,o),
(671,552,o),
(679,849,c)
);
}
);
width = 1000;
}
);
note = cid40038;
unicode = 36793;
}
{
glyphname = uni8FBE;
layers = (
{
layerId = m01;
shapes = (
{
closed = 1;
nodes = (
(926,576,l),
(304,576,l),
(304,547,l),
(926,547,l)
);
},
{
closed = 1;
nodes = (
(594,828,l),
(588,480,o),
(574,221,o),
(293,101,c),
(301,96,o),
(312,85,o),
(317,79,c),
(601,207,o),
(617,468,o),
(623,828,c)
);
},
{
closed = 1;
nodes = (
(607,559,l),
(645,313,o),
(737,158,o),
(921,81,c),
(925,88,o),
(934,98,o),
(941,104,c),
(759,174,o),
(671,327,o),
(634,564,c)
);
},
{
closed = 1;
nodes = (
(246,91,l),
(246,431,l),
(54,431,l),
(54,402,l),
(217,402,l),
(217,91,l)
);
},
{
closed = 1;
nodes = (
(220,105,l),
(164,55,o),
(99,2,o),
(49,-34,c),
(69,-63,l),
(123,-18,o),
(180,30,o),
(232,78,c),
(295,-3,o),
(392,-45,o),
(530,-50,cs),
(632,-53,o),
(844,-51,o),
(942,-48,c),
(944,-38,o),
(949,-24,o),
(954,-17,c),
(852,-22,o),
(629,-25,o),
(528,-21,cs),
(401,-17,o),
(300,24,o),
(246,105,c)
);
},
{
closed = 1;
nodes = (
(74,787,l),
(144,743,o),
(222,675,o),
(256,625,c),
(279,645,l),
(243,695,o),
(166,762,o),
(95,805,c)
);
}
);
vertWidth = 1000;
width = 1000;
},
{
layerId = "94DDBC6A-1627-4027-9125-871D02041BCD";
shapes = (
{
closed = 1;
nodes = (
(951,647,l),
(320,647,l),
(320,512,l),
(951,512,l)
);
},
{
closed = 1;
nodes = (
(550,852,l),
(547,509,o),
(555,312,o),
(312,196,c),
(344,171,o),
(385,118,o),
(402,82,c),
(681,220,o),
(691,471,o),
(695,852,c)
);
},
{
closed = 1;
nodes = (
(567,540,l),
(613,312,o),
(689,158,o),
(884,86,c),
(903,126,o),
(944,185,o),
(975,214,c),
(805,263,o),
(728,388,o),
(693,558,c)
);
},
{
closed = 1;
nodes = (
(286,90,l),
(286,468,l),
(41,468,l),
(41,334,l),
(144,334,l),
(144,90,l)
);
},
{
closed = 1;
nodes = (
(153,154,l),
(109,122,o),
(59,92,o),
(15,67,c),
(85,-85,l),
(139,-42,o),
(181,-6,o),
(222,30,c),
(288,-47,o),
(367,-72,o),
(486,-77,cs),
(611,-83,o),
(810,-81,o),
(937,-74,c),
(944,-31,o),
(967,39,o),
(983,74,c),
(839,61,o),
(611,58,o),
(489,63,cs),
(391,67,o),
(323,92,o),
(286,154,c)
);
},
{
closed = 1;
nodes = (
(37,745,l),
(94,700,o),
(164,633,o),
(193,587,c),
(309,683,l),
(275,729,o),
(202,791,o),
(145,832,c)
);
}
);
vertWidth = 1000;
width = 1000;
}
);
note = cid40048;
unicode = 36798;
}
{
glyphname = uni8FC1;
layers = (
{
layerId = m01;
shapes = (
{
closed = 1;
nodes = (
(943,469,l),
(307,469,l),
(307,439,l),
(943,439,l)
);
},
{
closed = 1;
nodes = (
(627,742,l),
(598,742,l),
(598,40,l),
(627,40,l)
);
},
{
closed = 1;
nodes = (
(843,814,l),
(733,774,o),
(512,743,o),
(329,724,c),
(332,717,o),
(336,707,o),
(338,699,c),
(525,718,o),
(745,749,o),
(874,792,c)
);
},
{
closed = 1;
nodes = (
(246,91,l),
(246,431,l),
(54,431,l),
(54,402,l),
(217,402,l),
(217,91,l)
);
},
{
closed = 1;
nodes = (
(220,105,l),
(164,55,o),
(99,2,o),
(49,-34,c),
(69,-63,l),
(123,-18,o),
(180,30,o),
(232,78,c),
(295,-3,o),
(392,-45,o),
(530,-50,cs),
(632,-53,o),
(844,-51,o),
(942,-48,c),
(944,-38,o),
(949,-24,o),
(954,-17,c),
(852,-22,o),
(629,-25,o),
(528,-21,cs),
(401,-17,o),
(300,24,o),
(246,105,c)
);
},
{
closed = 1;
nodes = (
(74,787,l),
(144,743,o),
(222,675,o),
(256,625,c),
(279,645,l),
(243,695,o),
(166,762,o),
(95,805,c)
);
}
);
vertWidth = 1000;
width = 1000;
},
{
layerId = "94DDBC6A-1627-4027-9125-871D02041BCD";
shapes = (
{
closed = 1;
nodes = (
(961,525,l),
(321,525,l),
(321,394,l),
(961,394,l)
);
},
{
closed = 1;
nodes = (
(711,759,l),
(567,759,l),
(567,75,l),
(711,75,l)
);
},
{
closed = 1;
nodes = (
(828,852,l),
(705,808,o),
(517,776,o),
(344,760,c),
(359,730,o),
(377,678,o),
(382,645,c),
(560,659,o),
(764,687,o),
(918,738,c)
);
},
{
closed = 1;
nodes = (
(286,90,l),
(286,468,l),
(41,468,l),
(41,334,l),
(144,334,l),
(144,90,l)
);
},
{
closed = 1;
nodes = (
(153,154,l),
(109,122,o),
(59,92,o),
(15,67,c),
(85,-85,l),
(139,-42,o),
(181,-6,o),
(222,30,c),
(288,-47,o),
(367,-72,o),
(486,-77,cs),
(611,-83,o),
(810,-81,o),
(937,-74,c),
(944,-31,o),
(967,39,o),
(983,74,c),
(839,61,o),
(611,58,o),
(489,63,cs),
(391,67,o),
(323,92,o),
(286,154,c)
);
},
{
closed = 1;
nodes = (
(37,745,l),
(94,700,o),
(164,633,o),
(193,587,c),
(309,683,l),
(275,729,o),
(202,791,o),
(145,832,c)
);
}
);
vertWidth = 1000;
width = 1000;
}
);
note = cid40056;
unicode = 36801;
}
{
glyphname = uni8FC7;
layers = (
{
layerId = m01;
shapes = (
{
closed = 1;
nodes = (
(74,787,l),
(144,743,o),
(222,675,o),
(256,625,c),
(279,645,l),
(243,695,o),
(166,762,o),
(95,805,c)
);
},
{
closed = 1;
nodes = (
(246,431,l),
(57,431,l),
(57,402,l),
(217,402,l),
(217,80,l),
(246,80,l)
);
},
{
closed = 1;
nodes = (
(917,642,l),
(330,642,l),
(330,613,l),
(917,613,l)
);
},
{
closed = 1;
nodes = (
(763,830,l),
(732,830,l),
(732,148,ls),
(732,130,o),
(725,125,o),
(706,123,cs),
(687,122,o),
(620,122,o),
(538,124,c),
(543,114,o),
(549,101,o),
(551,92,c),
(646,92,o),
(700,92,o),
(725,98,cs),
(751,104,o),
(763,116,o),
(763,149,cs)
);
},
{
closed = 1;
nodes = (
(399,486,l),
(453,429,o),
(512,345,o),
(542,284,c),
(567,299,l),
(535,360,o),
(476,442,o),
(424,498,c)
);
},
{
closed = 1;
nodes = (
(220,103,l),
(164,54,o),
(99,1,o),
(49,-35,c),
(68,-63,l),
(123,-19,o),
(180,28,o),
(232,75,c),
(295,-4,o),
(392,-46,o),
(530,-51,cs),
(632,-54,o),
(844,-52,o),
(942,-49,c),
(943,-39,o),
(949,-25,o),
(953,-18,c),
(851,-23,o),
(629,-25,o),
(528,-22,cs),
(401,-17,o),
(300,23,o),
(246,103,c)
);
}
);
width = 1000;
},
{
layerId = "94DDBC6A-1627-4027-9125-871D02041BCD";
shapes = (
{
closed = 1;
nodes = (
(37,745,l),
(94,700,o),
(164,633,o),
(193,587,c),
(309,683,l),
(275,729,o),
(202,791,o),
(145,832,c)
);
},
{
closed = 1;
nodes = (
(286,468,l),
(39,468,l),
(39,333,l),
(143,333,l),
(143,91,l),
(286,91,l)
);
},
{
closed = 1;
nodes = (
(962,688,l),
(336,688,l),
(336,551,l),
(962,551,l)
);
},
{
closed = 1;
nodes = (
(848,847,l),
(700,847,l),
(700,261,ls),
(700,244,o),
(693,238,o),
(673,238,cs),
(653,238,o),
(591,238,o),
(534,241,c),
(553,201,o),
(574,136,o),
(580,94,c),
(668,94,o),
(738,98,o),
(784,120,cs),
(833,142,o),
(848,180,o),
(848,259,cs)
);
},
{
closed = 1;
nodes = (
(368,463,l),
(414,401,o),
(464,317,o),
(487,260,c),
(616,330,l),
(592,384,o),
(539,464,o),
(488,523,c)
);
},
{
closed = 1;
nodes = (
(156,153,l),
(112,120,o),
(62,89,o),
(18,64,c),
(86,-84,l),
(139,-42,o),
(182,-5,o),
(223,32,c),
(291,-45,o),
(374,-71,o),
(497,-77,cs),
(619,-82,o),
(817,-80,o),
(942,-73,c),
(949,-31,o),
(971,37,o),
(987,71,c),
(845,58,o),
(619,55,o),
(499,61,cs),
(396,65,o),
(325,90,o),
(286,153,c)
);
}
);
width = 1000;
}
);
note = cid40074;
unicode = 36807;
}
{
glyphname = uni8FD0;
layers = (
{
layerId = m01;
shapes = (
{
closed = 1;
nodes = (
(871,765,l),
(377,765,l),
(377,735,l),
(871,735,l)
);
},
{
closed = 1;
nodes = (
(950,520,l),
(314,520,l),
(314,490,l),
(950,490,l)
);
},
{
closed = 1;
nodes = (
(548,505,l),
(516,401,o),
(456,246,o),
(409,157,c),
(434,147,l),
(482,236,o),
(540,385,o),
(580,495,c)
);
},
{
closed = 1;
nodes = (
(328,131,l),
(465,141,o),
(678,159,o),
(881,177,c),
(881,206,l),
(671,188,o),
(454,171,o),
(323,162,c)
);
},
{
closed = 1;
nodes = (
(713,385,l),
(797,293,o),
(884,166,o),
(919,83,c),
(944,100,l),
(909,181,o),
(820,307,o),
(736,399,c)
);
},
{
closed = 1;
nodes = (
(246,91,l),
(246,431,l),
(54,431,l),
(54,402,l),
(217,402,l),
(217,91,l)
);
},
{
closed = 1;
nodes = (
(220,105,l),
(164,55,o),
(99,2,o),
(49,-34,c),
(69,-63,l),
(123,-18,o),
(180,30,o),
(232,78,c),
(295,-3,o),
(392,-45,o),
(530,-50,cs),
(632,-53,o),
(844,-51,o),
(942,-48,c),
(944,-38,o),
(949,-24,o),
(954,-17,c),
(852,-22,o),
(629,-25,o),
(528,-21,cs),
(401,-17,o),
(300,24,o),
(246,105,c)
);
},
{
closed = 1;
nodes = (
(74,787,l),
(144,743,o),
(222,675,o),
(256,625,c),
(279,645,l),
(243,695,o),
(166,762,o),
(95,805,c)
);
}
);
vertWidth = 1000;
width = 1000;
},
{
layerId = "94DDBC6A-1627-4027-9125-871D02041BCD";
shapes = (
{
closed = 1;
nodes = (
(913,811,l),
(395,811,l),
(395,676,l),
(913,676,l)
);
},
{
closed = 1;
nodes = (
(976,594,l),
(327,594,l),
(327,459,l),
(976,459,l)
);
},
{
closed = 1;
nodes = (
(499,523,l),
(481,432,o),
(443,313,o),
(408,233,c),
(526,192,l),
(566,265,o),
(616,376,o),
(659,478,c)
);
},
{
closed = 1;
nodes = (
(355,110,l),
(492,124,o),
(679,142,o),
(854,162,c),
(853,291,l),
(666,276,o),
(464,260,o),
(333,253,c)
);
},
{
closed = 1;
nodes = (
(690,394,l),
(756,300,o),
(823,176,o),
(845,94,c),
(974,159,l),
(948,243,o),
(875,361,o),
(808,450,c)
);
},
{
closed = 1;
nodes = (
(286,90,l),
(286,468,l),
(41,468,l),
(41,334,l),
(144,334,l),
(144,90,l)
);
},
{
closed = 1;
nodes = (
(153,154,l),
(109,122,o),
(59,92,o),
(15,67,c),
(85,-85,l),
(139,-42,o),
(181,-6,o),
(222,30,c),
(288,-47,o),
(367,-72,o),
(486,-77,cs),
(611,-83,o),
(810,-81,o),
(937,-74,c),
(944,-31,o),
(967,39,o),
(983,74,c),
(839,61,o),
(611,58,o),
(489,63,cs),
(391,67,o),
(323,92,o),
(286,154,c)
);
},
{
closed = 1;
nodes = (
(37,745,l),
(94,700,o),
(164,633,o),
(193,587,c),
(309,683,l),
(275,729,o),
(202,791,o),
(145,832,c)
);
}
);
vertWidth = 1000;
width = 1000;
}
);
note = cid40094;
unicode = 36816;
}
{
glyphname = uni8FD8;
layers = (
{
layerId = m01;
shapes = (
{
closed = 1;
nodes = (
(320,753,l),
(320,723,l),
(916,723,l),
(916,753,l)
);
},
{
closed = 1;
nodes = (
(675,528,l),
(763,466,o),
(853,382,o),
(910,311,c),
(932,332,l),
(874,403,o),
(782,486,o),
(694,546,c)
);
},
{
closed = 1;
nodes = (
(682,745,l),
(599,578,o),
(459,432,o),
(291,337,c),
(297,331,o),
(305,320,o),
(309,311,c),
(483,412,o),
(627,564,o),
(710,733,c)
);
},
{
closed = 1;
nodes = (
(598,583,l),
(598,55,l),
(627,55,l),
(627,612,l),
(627,613,l)
);
},
{
closed = 1;
nodes = (
(246,91,l),
(246,431,l),
(54,431,l),
(54,402,l),
(217,402,l),
(217,91,l)
);
},
{
closed = 1;
nodes = (
(220,105,l),
(164,55,o),
(99,2,o),
(49,-34,c),
(69,-63,l),
(123,-18,o),
(180,30,o),
(232,78,c),
(295,-3,o),
(392,-45,o),
(530,-50,cs),
(632,-53,o),
(844,-51,o),
(942,-48,c),
(944,-38,o),
(949,-24,o),
(954,-17,c),
(852,-22,o),
(629,-25,o),
(528,-21,cs),
(401,-17,o),
(300,24,o),
(246,105,c)
);
},
{
closed = 1;
nodes = (
(74,787,l),
(144,743,o),
(222,675,o),
(256,625,c),
(279,645,l),
(243,695,o),
(166,762,o),
(95,805,c)
);
}
);
width = 1000;
},
{
layerId = "94DDBC6A-1627-4027-9125-871D02041BCD";
shapes = (
{
closed = 1;
nodes = (
(337,801,l),
(337,657,l),
(950,657,l),
(950,801,l)
);
},
{
closed = 1;
nodes = (
(667,482,l),
(745,414,o),
(819,332,o),
(861,269,c),
(975,373,l),
(933,431,o),
(856,508,o),
(774,572,c)
);
},
{
closed = 1;
nodes = (
(638,760,l),
(575,612,o),
(454,483,o),
(300,401,c),
(334,367,o),
(376,309,o),
(395,270,c),
(562,366,o),
(702,520,o),
(783,700,c)
);
},
{
closed = 1;
nodes = (
(557,583,l),
(557,83,l),
(708,83,l),
(708,622,l),
(623,649,l)
);
},
{
closed = 1;
nodes = (
(286,90,l),
(286,468,l),
(41,468,l),
(41,334,l),
(144,334,l),
(144,90,l)
);
},
{
closed = 1;
nodes = (
(153,154,l),
(109,122,o),
(59,92,o),
(15,67,c),
(85,-85,l),
(139,-42,o),
(181,-6,o),
(222,30,c),
(288,-47,o),
(367,-72,o),
(486,-77,cs),
(611,-83,o),
(810,-81,o),
(937,-74,c),
(944,-31,o),
(967,39,o),
(983,74,c),
(839,61,o),
(611,58,o),
(489,63,cs),
(391,67,o),
(323,92,o),
(286,154,c)
);
},
{
closed = 1;
nodes = (
(37,745,l),
(94,700,o),
(164,633,o),
(193,587,c),
(309,683,l),
(275,729,o),
(202,791,o),
(145,832,c)
);
}
);
width = 1000;
}
);
note = cid40120;
unicode = 36824;
}
{
glyphname = uni8FDB;
layers = (
{
layerId = m01;
shapes = (
{
closed = 1;
nodes = (
(917,639,l),
(338,639,l),
(338,610,l),
(917,610,l)
);
},
{
closed = 1;
nodes = (
(525,815,l),
(496,815,l),
(496,460,ls),
(496,325,o),
(478,192,o),
(320,93,c),
(327,88,o),
(337,77,o),
(340,71,c),
(506,176,o),
(525,319,o),
(525,460,cs)
);
},
{
closed = 1;
nodes = (
(935,391,l),
(314,391,l),
(314,362,l),
(935,362,l)
);
},
{
closed = 1;
nodes = (
(772,817,l),
(743,817,l),
(743,76,l),
(772,76,l)
);
},
{
closed = 1;
nodes = (
(246,91,l),
(246,431,l),
(54,431,l),
(54,402,l),
(217,402,l),
(217,91,l)
);
},
{
closed = 1;
nodes = (
(220,105,l),
(164,55,o),
(99,2,o),
(49,-34,c),
(69,-63,l),
(123,-18,o),
(180,30,o),
(232,78,c),
(295,-3,o),
(392,-45,o),
(530,-50,cs),
(632,-53,o),
(844,-51,o),
(942,-48,c),
(944,-38,o),
(949,-24,o),
(954,-17,c),
(852,-22,o),
(629,-25,o),
(528,-21,cs),
(401,-17,o),
(300,24,o),
(246,105,c)
);
},
{
closed = 1;
nodes = (
(74,787,l),
(144,743,o),
(222,675,o),
(256,625,c),
(279,645,l),
(243,695,o),
(166,762,o),
(95,805,c)
);
}
);
width = 1000;
},
{
layerId = "94DDBC6A-1627-4027-9125-871D02041BCD";
shapes = (
{
closed = 1;
nodes = (
(936,699,l),
(341,699,l),
(341,559,l),
(936,559,l)
);
},
{
closed = 1;
nodes = (
(591,830,l),
(447,830,l),
(447,515,ls),
(447,389,o),
(440,269,o),
(317,186,c),
(346,165,o),
(401,107,o),
(420,78,c),
(570,190,o),
(591,359,o),
(591,513,cs)
);
},
{
closed = 1;
nodes = (
(957,452,l),
(321,452,l),
(321,313,l),
(957,313,l)
);
},
{
closed = 1;
nodes = (
(830,830,l),
(685,830,l),
(685,85,l),
(830,85,l)
);
},
{
closed = 1;
nodes = (
(286,90,l),
(286,468,l),
(41,468,l),
(41,334,l),
(144,334,l),
(144,90,l)
);
},
{
closed = 1;
nodes = (
(153,154,l),
(109,122,o),
(59,92,o),
(15,67,c),
(85,-85,l),
(139,-42,o),
(181,-6,o),
(222,30,c),
(288,-47,o),
(367,-72,o),
(486,-77,cs),
(611,-83,o),
(810,-81,o),
(937,-74,c),
(944,-31,o),
(967,39,o),
(983,74,c),
(839,61,o),
(611,58,o),
(489,63,cs),
(391,67,o),
(323,92,o),
(286,154,c)
);
},
{
closed = 1;
nodes = (
(37,745,l),
(94,700,o),
(164,633,o),
(193,587,c),
(309,683,l),
(275,729,o),
(202,791,o),
(145,832,c)
);
}
);
width = 1000;
}
);
note = cid40125;
unicode = 36827;
}
{
glyphname = uni8FE9;
layers = (
{
layerId = m01;
shapes = (
{
closed = 1;
nodes = (
(662,601,l),
(632,601,l),
(632,103,ls),
(632,89,o),
(628,85,o),
(614,84,cs),
(597,83,o),
(546,82,o),
(480,84,c),
(485,75,o),
(491,62,o),
(493,53,c),
(564,53,o),
(610,52,o),
(632,58,cs),
(654,65,o),
(662,76,o),
(662,104,cs)
);
},
{
closed = 1;
nodes = (
(477,829,l),
(439,705,o),
(378,582,o),
(303,501,c),
(312,497,o),
(326,488,o),
(330,484,c),
(402,568,o),
(465,692,o),
(507,822,c)
);
},
{
closed = 1;
nodes = (
(473,495,l),
(439,383,o),
(387,274,o),
(323,199,c),
(330,195,o),
(344,186,o),
(349,182,c),
(411,259,o),
(466,372,o),
(502,488,c)
);
},
{
closed = 1;
nodes = (
(775,485,l),
(838,388,o),
(897,257,o),
(916,176,c),
(945,186,l),
(926,268,o),
(866,397,o),
(803,494,c)
);
},
{
closed = 1;
nodes = (
(921,680,l),
(423,680,l),
(423,651,l),
(921,651,l)
);
},
{
closed = 1;
nodes = (
(916,680,l),
(911,680,l),
(911,671,l),
(901,619,o),
(883,559,o),
(865,516,c),
(891,508,l),
(910,552,o),
(929,616,o),
(942,674,c),
(923,682,l)
);
},
{
closed = 1;
nodes = (
(246,91,l),
(246,431,l),
(54,431,l),
(54,402,l),
(217,402,l),
(217,91,l)
);
},
{
closed = 1;
nodes = (
(220,105,l),
(164,55,o),
(99,2,o),
(49,-34,c),
(69,-63,l),
(123,-18,o),
(180,30,o),
(232,78,c),
(295,-3,o),
(392,-45,o),
(530,-50,cs),
(632,-53,o),
(844,-51,o),
(942,-48,c),
(944,-38,o),
(949,-24,o),
(954,-17,c),
(852,-22,o),
(629,-25,o),
(528,-21,cs),
(401,-17,o),
(300,24,o),
(246,105,c)
);
},
{
closed = 1;
nodes = (
(74,787,l),
(144,743,o),
(222,675,o),
(256,625,c),
(279,645,l),
(243,695,o),
(166,762,o),
(95,805,c)
);
}
);
vertWidth = 1000;
width = 1000;
},
{
layerId = "94DDBC6A-1627-4027-9125-871D02041BCD";
shapes = (
{
closed = 1;
nodes = (
(720,572,l),
(577,572,l),
(577,212,ls),
(577,200,o),
(573,197,o),
(560,197,cs),
(547,197,o),
(504,197,o),
(471,198,c),
(488,163,o),
(508,110,o),
(514,72,c),
(578,72,o),
(628,74,o),
(669,94,cs),
(710,114,o),
(720,147,o),
(720,208,cs)
);
},
{
closed = 1;
nodes = (
(437,853,l),
(409,743,o),
(352,636,o),
(277,573,c),
(312,554,o),
(375,512,o),
(403,488,c),
(479,564,o),
(547,689,o),
(584,822,c)
);
},
{
closed = 1;
nodes = (
(410,498,l),
(389,403,o),
(347,306,o),
(292,247,c),
(325,231,o),
(386,197,o),
(414,175,c),
(468,245,o),
(519,357,o),
(547,469,c)
);
},
{
closed = 1;
nodes = (
(741,470,l),
(787,374,o),
(830,251,o),
(841,173,c),
(982,218,l),
(967,299,o),
(919,417,o),
(870,508,c)
);
},
{
closed = 1;
nodes = (
(902,740,l),
(438,740,l),
(438,606,l),
(902,606,l)
);
},
{
closed = 1;
nodes = (
(864,740,l),
(843,740,l),
(843,719,l),
(836,658,o),
(822,587,o),
(806,535,c),
(924,500,l),
(951,562,o),
(975,648,o),
(987,723,c),
(887,745,l)
);
},
{
closed = 1;
nodes = (
(286,90,l),
(286,468,l),
(41,468,l),
(41,334,l),
(144,334,l),
(144,90,l)
);
},
{
closed = 1;
nodes = (
(153,154,l),
(109,122,o),
(59,92,o),
(15,67,c),
(85,-85,l),
(139,-42,o),
(181,-6,o),
(222,30,c),
(288,-47,o),
(367,-72,o),
(486,-77,cs),
(611,-83,o),
(810,-81,o),
(937,-74,c),
(944,-31,o),
(967,39,o),
(983,74,c),
(839,61,o),
(611,58,o),
(489,63,cs),
(391,67,o),
(323,92,o),
(286,154,c)
);
},
{
closed = 1;
nodes = (
(37,745,l),
(94,700,o),
(164,633,o),
(193,587,c),
(309,683,l),
(275,729,o),
(202,791,o),
(145,832,c)
);
}
);
vertWidth = 1000;
width = 1000;
}
);
note = cid62865;
unicode = 36841;
}
{
glyphname = uni8FF9;
layers = (
{
layerId = m01;
shapes = (
{
closed = 1;
nodes = (
(799,504,l),
(856,418,o),
(909,303,o),
(924,230,c),
(953,242,l),
(936,314,o),
(882,428,o),
(825,514,c)
);
},
{
closed = 1;
nodes = (
(950,661,l),
(331,661,l),
(331,631,l),
(950,631,l)
);
},
{
closed = 1;
nodes = (
(648,831,l),
(619,831,l),
(619,646,l),
(648,646,l)
);
},
{
closed = 1;
nodes = (
(569,649,l),
(539,649,l),
(539,523,ls),
(539,380,o),
(525,207,o),
(352,69,c),
(359,65,o),
(370,56,o),
(375,49,c),
(551,192,o),
(569,371,o),
(569,523,cs)
);
},
{
closed = 1;
nodes = (
(741,649,l),
(712,649,l),
(712,98,ls),
(712,86,o),
(708,82,o),
(695,82,cs),
(682,82,o),
(640,81,o),
(586,82,c),
(591,74,o),
(597,62,o),
(599,54,c),
(662,54,o),
(697,54,o),
(716,59,cs),
(734,65,o),
(741,75,o),
(741,99,cs)
);
},
{
closed = 1;
nodes = (
(409,520,l),
(381,418,o),
(335,320,o),
(279,252,c),
(286,248,o),
(299,238,o),
(304,233,c),
(360,304,o),
(408,407,o),
(438,514,c)
);
},
{
closed = 1;
nodes = (
(226,91,l),
(226,431,l),
(54,431,l),
(54,402,l),
(196,402,l),
(196,91,l)
);
},
{
closed = 1;
nodes = (
(199,105,l),
(149,55,o),
(91,2,o),
(45,-35,c),
(66,-63,l),
(115,-18,o),
(165,30,o),
(213,77,c),
(278,-4,o),
(379,-45,o),
(523,-50,cs),
(625,-53,o),
(841,-51,o),
(940,-48,c),
(942,-38,o),
(947,-24,o),
(952,-17,c),
(849,-22,o),
(623,-25,o),
(521,-21,cs),
(388,-16,o),
(282,23,o),
(226,105,c)
);
},
{
closed = 1;
nodes = (
(70,790,l),
(135,742,o),
(205,670,o),
(235,619,c),
(259,637,l),
(229,688,o),
(158,759,o),
(92,806,c)
);
}
);
vertWidth = 1000;
width = 1000;
},
{
layerId = "94DDBC6A-1627-4027-9125-871D02041BCD";
shapes = (
{
closed = 1;
nodes = (
(786,545,l),
(820,456,o),
(850,342,o),
(856,271,c),
(982,308,l),
(974,381,o),
(940,491,o),
(903,577,c)
);
},
{
closed = 1;
nodes = (
(958,757,l),
(336,757,l),
(336,626,l),
(958,626,l)
);
},
{
closed = 1;
nodes = (
(716,854,l),
(573,854,l),
(573,678,l),
(716,678,l)
);
},
{
closed = 1;
nodes = (
(625,668,l),
(494,668,l),
(494,521,ls),
(494,402,o),
(479,262,o),
(344,153,c),
(379,134,o),
(431,93,o),
(456,66,c),
(608,195,o),
(625,372,o),
(625,519,cs)
);
},
{
closed = 1;
nodes = (
(796,668,l),
(662,668,l),
(662,216,ls),
(662,205,o),
(658,202,o),
(647,202,cs),
(635,202,o),
(599,202,o),
(569,203,c),
(586,167,o),
(604,112,o),
(608,74,c),
(668,74,o),
(714,77,o),
(750,98,cs),
(787,119,o),
(796,154,o),
(796,214,cs)
);
},
{
closed = 1;
nodes = (
(369,575,l),
(352,483,o),
(317,392,o),
(265,336,c),
(297,322,o),
(356,293,o),
(383,274,c),
(434,339,o),
(477,443,o),
(499,551,c)
);
},
{
closed = 1;
nodes = (
(286,90,l),
(286,468,l),
(41,468,l),
(41,334,l),
(144,334,l),
(144,90,l)
);
},
{
closed = 1;
nodes = (
(153,154,l),
(109,122,o),
(59,92,o),
(15,67,c),
(85,-85,l),
(139,-42,o),
(181,-6,o),
(222,30,c),
(288,-47,o),
(367,-72,o),
(486,-77,cs),
(611,-83,o),
(810,-81,o),
(937,-74,c),
(944,-31,o),
(967,39,o),
(983,74,c),
(839,61,o),
(611,58,o),
(489,63,cs),
(391,67,o),
(323,92,o),
(286,154,c)
);
},
{
closed = 1;
nodes = (
(37,745,l),
(94,700,o),
(164,633,o),
(193,587,c),
(309,683,l),
(275,729,o),
(202,791,o),
(145,832,c)
);
}
);
vertWidth = 1000;
width = 1000;
}
);
note = cid40196;
unicode = 36857;
}
{
glyphname = uni900D;
layers = (
{
layerId = m01;
shapes = (
{
closed = 1;
nodes = (
(643,830,l),
(613,830,l),
(613,570,l),
(643,570,l)
);
},
{
closed = 1;
nodes = (
(867,588,l),
(391,588,l),
(391,50,l),
(421,50,l),
(421,559,l),
(837,559,l),
(837,96,ls),
(837,83,o),
(833,80,o),
(819,79,cs),
(805,79,o),
(758,78,o),
(699,80,c),
(704,71,o),
(709,59,o),
(711,51,c),
(781,51,o),
(821,51,o),
(841,57,cs),
(861,63,o),
(867,74,o),
(867,96,cs)
);
},
{
closed = 1;
nodes = (
(364,789,l),
(407,737,o),
(450,667,o),
(469,618,c),
(496,630,l),
(476,679,o),
(432,749,o),
(389,800,c)
);
},
{
closed = 1;
nodes = (
(866,800,l),
(836,745,o),
(788,672,o),
(749,624,c),
(773,612,l),
(812,660,o),
(859,727,o),
(894,786,c)
);
},
{
closed = 1;
nodes = (
(857,435,l),
(403,435,l),
(403,406,l),
(857,406,l)
);
},
{
closed = 1;
nodes = (
(854,278,l),
(400,278,l),
(400,249,l),
(854,249,l)
);
},
{
closed = 1;
nodes = (
(246,91,l),
(246,431,l),
(54,431,l),
(54,402,l),
(217,402,l),
(217,91,l)
);
},
{
closed = 1;
nodes = (
(220,105,l),
(164,55,o),
(99,2,o),
(49,-34,c),
(69,-63,l),
(123,-18,o),
(180,30,o),
(232,78,c),
(295,-3,o),
(392,-45,o),
(530,-50,cs),
(632,-53,o),
(844,-51,o),
(942,-48,c),
(944,-38,o),
(949,-24,o),
(954,-17,c),
(852,-22,o),
(629,-25,o),
(528,-21,cs),
(401,-17,o),
(300,24,o),
(246,105,c)
);
},
{
closed = 1;
nodes = (
(74,787,l),
(144,743,o),
(222,675,o),
(256,625,c),
(279,645,l),
(243,695,o),
(166,762,o),
(95,805,c)
);
}
);
vertWidth = 1000;
width = 1000;
},
{
layerId = "94DDBC6A-1627-4027-9125-871D02041BCD";
shapes = (
{
closed = 1;
nodes = (
(714,855,l),
(573,855,l),
(573,549,l),
(714,549,l)
);
},
{
closed = 1;
nodes = (
(911,632,l),
(382,632,l),
(382,83,l),
(523,83,l),
(523,516,l),
(767,516,l),
(767,212,ls),
(767,200,o),
(763,196,o),
(750,196,cs),
(738,196,o),
(696,195,o),
(665,198,c),
(682,165,o),
(701,113,o),
(708,77,c),
(771,77,o),
(821,79,o),
(860,98,cs),
(899,118,o),
(911,150,o),
(911,210,cs)
);
},
{
closed = 1;
nodes = (
(341,790,l),
(374,740,o),
(405,669,o),
(413,625,c),
(541,676,l),
(530,722,o),
(497,786,o),
(462,833,c)
);
},
{
closed = 1;
nodes = (
(819,833,l),
(802,782,o),
(769,714,o),
(742,671,c),
(860,629,l),
(887,669,o),
(919,727,o),
(949,788,c)
);
},
{
closed = 1;
nodes = (
(822,481,l),
(461,481,l),
(461,377,l),
(822,377,l)
);
},
{
closed = 1;
nodes = (
(823,343,l),
(462,343,l),
(462,232,l),
(823,232,l)
);
},
{
closed = 1;
nodes = (
(286,90,l),
(286,468,l),
(41,468,l),
(41,334,l),
(144,334,l),
(144,90,l)
);
},
{
closed = 1;
nodes = (
(153,154,l),
(109,122,o),
(59,92,o),
(15,67,c),
(85,-85,l),
(139,-42,o),
(181,-6,o),
(222,30,c),
(288,-47,o),
(367,-72,o),
(486,-77,cs),
(611,-83,o),
(810,-81,o),
(937,-74,c),
(944,-31,o),
(967,39,o),
(983,74,c),
(839,61,o),
(611,58,o),
(489,63,cs),
(391,67,o),
(323,92,o),
(286,154,c)
);
},
{
closed = 1;
nodes = (
(37,745,l),
(94,700,o),
(164,633,o),
(193,587,c),
(309,683,l),
(275,729,o),
(202,791,o),
(145,832,c)
);
}
);
vertWidth = 1000;
width = 1000;
}
);
note = cid40248;
unicode = 36877;
}
{
glyphname = uni9012;
layers = (
{
layerId = m01;
shapes = (
{
closed = 1;
nodes = (
(906,360,l),
(362,360,l),
(362,331,l),
(906,331,l)
);
},
{
closed = 1;
nodes = (
(892,360,l),
(892,354,l),
(878,202,o),
(869,158,o),
(857,145,cs),
(851,138,o),
(843,137,o),
(828,137,cs),
(816,137,o),
(778,137,o),
(738,141,c),
(743,132,o),
(746,120,o),
(747,113,c),
(781,110,o),
(817,109,o),
(834,109,cs),
(856,109,o),
(867,114,o),
(878,124,cs),
(896,142,o),
(906,186,o),
(921,342,c),
(922,350,o),
(922,360,o),
(922,360,c)
);
},
{
closed = 1;
nodes = (
(885,694,l),
(346,694,l),
(346,665,l),
(856,665,l),
(856,522,l),
(396,522,l),
(396,493,l),
(885,493,l)
);
},
{
closed = 1;
nodes = (
(384,522,l),
(373,449,o),
(353,356,o),
(337,298,c),
(367,293,l),
(382,350,o),
(401,444,o),
(414,522,c)
);
},
{
closed = 1;
nodes = (
(598,355,l),
(541,255,o),
(431,158,o),
(312,105,c),
(319,99,o),
(328,89,o),
(332,83,c),
(453,137,o),
(567,239,o),
(627,346,c)
);
},
{
closed = 1;
nodes = (
(634,684,l),
(605,684,l),
(605,47,l),
(634,47,l)
);
},
{
closed = 1;
nodes = (
(434,821,l),
(461,780,o),
(489,724,o),
(502,689,c),
(527,701,l),
(515,735,o),
(486,790,o),
(459,831,c)
);
},
{
closed = 1;
nodes = (
(787,831,l),
(770,793,o),
(736,735,o),
(711,700,c),
(734,687,l),
(760,722,o),
(789,772,o),
(814,818,c)
);
},
{
closed = 1;
nodes = (
(246,91,l),
(246,431,l),
(54,431,l),
(54,402,l),
(217,402,l),
(217,91,l)
);
},
{
closed = 1;
nodes = (
(220,105,l),
(164,55,o),
(99,2,o),
(49,-34,c),
(69,-63,l),
(123,-18,o),
(180,30,o),
(232,78,c),
(295,-3,o),
(392,-45,o),
(530,-50,cs),
(632,-53,o),
(844,-51,o),
(942,-48,c),
(944,-38,o),
(949,-24,o),
(954,-17,c),
(852,-22,o),
(629,-25,o),
(528,-21,cs),
(401,-17,o),
(300,24,o),
(246,105,c)
);
},
{
closed = 1;
nodes = (
(74,787,l),
(144,743,o),
(222,675,o),
(256,625,c),
(279,645,l),
(243,695,o),
(166,762,o),
(95,805,c)
);
}
);
vertWidth = 1000;
width = 1000;
},
{
layerId = "94DDBC6A-1627-4027-9125-871D02041BCD";
shapes = (
{
closed = 1;
nodes = (
(859,419,l),
(404,419,l),
(404,307,l),
(859,307,l)
);
},
{
closed = 1;
nodes = (
(826,419,l),
(826,404,ls),
(823,302,o),
(819,262,o),
(809,251,cs),
(801,243,o),
(792,241,o),
(779,241,cs),
(763,241,o),
(733,242,o),
(699,245,c),
(718,214,o),
(732,165,o),
(735,128,c),
(779,127,o),
(821,128,o),
(845,132,cs),
(874,136,o),
(896,144,o),
(916,168,cs),
(938,193,o),
(946,255,o),
(950,376,cs),
(951,391,o),
(952,419,o),
(952,419,c)
);
},
{
closed = 1;
nodes = (
(918,737,l),
(334,737,l),
(334,622,l),
(797,622,l),
(797,577,l),
(443,577,l),
(443,462,l),
(918,462,l)
);
},
{
closed = 1;
nodes = (
(354,577,l),
(344,482,o),
(324,365,o),
(306,287,c),
(432,276,l),
(449,354,o),
(469,475,o),
(483,577,c)
);
},
{
closed = 1;
nodes = (
(536,369,l),
(485,300,o),
(387,233,o),
(286,194,c),
(312,172,o),
(354,125,o),
(373,97,c),
(484,148,o),
(586,226,o),
(653,328,c)
);
},
{
closed = 1;
nodes = (
(695,684,l),
(551,684,l),
(551,81,l),
(695,81,l)
);
},
{
closed = 1;
nodes = (
(397,815,l),
(419,781,o),
(439,733,o),
(446,698,c),
(572,747,l),
(563,780,o),
(540,825,o),
(517,856,c)
);
},
{
closed = 1;
nodes = (
(724,858,l),
(713,823,o),
(694,777,o),
(678,746,c),
(795,712,l),
(816,740,o),
(845,783,o),
(871,823,c)
);
},
{
closed = 1;
nodes = (
(277,91,l),
(277,468,l),
(35,468,l),
(35,334,l),
(138,334,l),
(138,91,l)
);
},
{
closed = 1;
nodes = (
(151,148,l),
(109,115,o),
(62,84,o),
(21,59,c),
(88,-86,l),
(139,-43,o),
(178,-8,o),
(216,29,c),
(275,-47,o),
(350,-73,o),
(463,-78,cs),
(591,-84,o),
(804,-82,o),
(935,-75,c),
(942,-34,o),
(964,33,o),
(980,66,c),
(831,53,o),
(590,50,o),
(465,56,cs),
(371,60,o),
(310,86,o),
(277,148,c)
);
},
{
closed = 1;
nodes = (
(34,747,l),
(88,698,o),
(154,629,o),
(181,581,c),
(301,673,l),
(269,720,o),
(200,785,o),
(145,829,c)
);
}
);
vertWidth = 1000;
width = 1000;
}
);
note = cid40263;
unicode = 36882;
}
{
glyphname = uni903E;
layers = (
{
layerId = m01;
shapes = (
{
closed = 1;
nodes = (
(688,696,o),
(820,589,o),
(935,523,c),
(940,529,o),
(948,541,o),
(955,547,c),
(839,608,o),
(705,717,o),
(626,826,c),
(596,826,l),
(534,721,o),
(409,608,o),
(282,538,c),
(288,532,o),
(296,523,o),
(300,516,c),
(428,589,o),
(549,701,o),
(613,797,c)
);
},
{
closed = 1;
nodes = (
(772,594,l),
(463,594,l),
(463,565,l),
(772,565,l)
);
},
{
closed = 1;
nodes = (
(733,474,l),
(703,474,l),
(703,170,l),
(733,170,l)
);
},
{
closed = 1;
nodes = (
(885,507,l),
(854,507,l),
(854,91,ls),
(854,81,o),
(851,79,o),
(839,78,cs),
(828,78,o),
(792,77,o),
(746,79,c),
(752,70,o),
(757,57,o),
(759,49,c),
(814,49,o),
(845,49,o),
(863,55,cs),
(879,60,o),
(885,70,o),
(885,92,cs)
);
},
{
closed = 1;
nodes = (
(601,491,l),
(353,491,l),
(353,48,l),
(382,48,l),
(382,462,l),
(572,462,l),
(572,88,ls),
(572,79,o),
(569,77,o),
(559,77,cs),
(549,76,o),
(519,76,o),
(479,77,c),
(484,69,o),
(489,57,o),
(491,49,c),
(538,49,o),
(566,49,o),
(581,55,cs),
(596,60,o),
(601,70,o),
(601,89,cs)
);
},
{
closed = 1;
nodes = (
(586,368,l),
(370,368,l),
(370,338,l),
(586,338,l)
);
},
{
closed = 1;
nodes = (
(584,240,l),
(368,240,l),
(368,211,l),
(584,211,l)
);
},
{
closed = 1;
nodes = (
(226,91,l),
(226,431,l),
(54,431,l),
(54,402,l),
(196,402,l),
(196,91,l)
);
},
{
closed = 1;
nodes = (
(199,105,l),
(149,55,o),
(91,2,o),
(45,-35,c),
(66,-63,l),
(115,-18,o),
(165,30,o),
(213,77,c),
(278,-4,o),
(379,-45,o),
(523,-50,cs),
(625,-53,o),
(841,-51,o),
(940,-48,c),
(942,-38,o),
(947,-24,o),
(952,-17,c),
(849,-22,o),
(623,-25,o),
(521,-21,cs),
(388,-16,o),
(282,23,o),
(226,105,c)
);
},
{
closed = 1;
nodes = (
(70,790,l),
(135,742,o),
(205,670,o),
(235,619,c),
(259,637,l),
(229,688,o),
(158,759,o),
(92,806,c)
);
}
);
vertWidth = 1000;
width = 1000;
},
{
layerId = "94DDBC6A-1627-4027-9125-871D02041BCD";
shapes = (
{
closed = 1;
nodes = (
(684,671,o),
(801,589,o),
(898,547,c),
(919,587,o),
(950,637,o),
(979,671,c),
(871,702,o),
(768,772,o),
(690,855,c),
(548,855,l),
(495,784,o),
(391,702,o),
(287,663,c),
(312,633,o),
(344,581,o),
(359,547,c),
(462,591,o),
(566,671,o),
(624,741,c)
);
},
{
closed = 1;
nodes = (
(790,658,l),
(459,658,l),
(459,559,l),
(790,559,l)
);
},
{
closed = 1;
nodes = (
(777,507,l),
(667,507,l),
(667,224,l),
(777,224,l)
);
},
{
closed = 1;
nodes = (
(924,532,l),
(808,532,l),
(808,184,ls),
(808,175,o),
(803,172,o),
(792,172,cs),
(781,172,o),
(743,172,o),
(712,173,c),
(725,147,o),
(740,106,o),
(744,79,c),
(804,79,o),
(849,81,o),
(881,96,cs),
(915,112,o),
(924,137,o),
(924,182,cs)
);
},
{
closed = 1;
nodes = (
(638,528,l),
(340,528,l),
(340,80,l),
(457,80,l),
(457,433,l),
(520,433,l),
(520,181,ls),
(520,173,o),
(517,170,o),
(509,170,cs),
(504,170,o),
(487,170,o),
(473,171,c),
(485,146,o),
(499,106,o),
(503,78,c),
(545,78,o),
(578,80,o),
(604,95,cs),
(632,111,o),
(638,135,o),
(638,180,cs)
);
},
{
closed = 1;
nodes = (
(569,407,l),
(392,407,l),
(392,319,l),
(569,319,l)
);
},
{
closed = 1;
nodes = (
(569,291,l),
(392,291,l),
(392,203,l),
(569,203,l)
);
},
{
closed = 1;
nodes = (
(277,96,l),
(277,473,l),
(35,473,l),
(35,339,l),
(138,339,l),
(138,96,l)
);
},
{
closed = 1;
nodes = (
(151,148,l),
(109,115,o),
(62,84,o),
(21,59,c),
(88,-86,l),
(139,-43,o),
(178,-8,o),
(216,29,c),
(275,-47,o),
(350,-73,o),
(463,-78,cs),
(591,-84,o),
(804,-82,o),
(935,-75,c),
(942,-34,o),
(964,33,o),
(980,66,c),
(831,53,o),
(590,50,o),
(465,56,cs),
(371,60,o),
(310,86,o),
(277,148,c)
);
},
{
closed = 1;
nodes = (
(34,760,l),
(88,711,o),
(154,642,o),
(181,594,c),
(301,686,l),
(269,733,o),
(200,798,o),
(145,842,c)
);
}
);
vertWidth = 1000;
width = 1000;
}
);
note = cid40379;
unicode = 36926;
}
{
glyphname = uni9065;
layers = (
{
layerId = m01;
shapes = (
{
closed = 1;
nodes = (
(378,695,l),
(413,654,o),
(447,598,o),
(459,560,c),
(486,572,l),
(474,611,o),
(439,667,o),
(403,706,c)
);
},
{
closed = 1;
nodes = (
(551,718,l),
(584,672,o),
(612,613,o),
(620,572,c),
(647,582,l),
(639,622,o),
(610,682,o),
(578,726,c)
);
},
{
closed = 1;
nodes = (
(837,731,l),
(809,679,o),
(757,601,o),
(718,555,c),
(740,542,l),
(780,587,o),
(829,659,o),
(866,717,c)
);
},
{
closed = 1;
nodes = (
(857,826,l),
(740,797,o),
(506,775,o),
(318,766,c),
(322,758,o),
(327,747,o),
(328,740,c),
(519,749,o),
(751,770,o),
(886,804,c)
);
},
{
closed = 1;
nodes = (
(944,318,l),
(303,318,l),
(303,288,l),
(944,288,l)
);
},
{
closed = 1;
nodes = (
(885,481,l),
(407,481,l),
(407,452,l),
(885,452,l)
);
},
{
closed = 1;
nodes = (
(398,249,l),
(369,249,l),
(369,63,l),
(862,63,l),
(862,249,l),
(833,249,l),
(833,93,l),
(398,93,l)
);
},
{
closed = 1;
nodes = (
(627,469,l),
(598,469,l),
(598,87,l),
(627,87,l)
);
},
{
closed = 1;
nodes = (
(435,549,l),
(407,482,o),
(364,417,o),
(316,368,c),
(324,364,o),
(337,356,o),
(343,352,c),
(388,400,o),
(434,472,o),
(465,542,c)
);
},
{
closed = 1;
nodes = (
(226,91,l),
(226,431,l),
(54,431,l),
(54,402,l),
(196,402,l),
(196,91,l)
);
},
{
closed = 1;
nodes = (
(199,105,l),
(149,55,o),
(91,2,o),
(45,-35,c),
(66,-63,l),
(115,-18,o),
(165,30,o),
(213,77,c),
(278,-4,o),
(379,-45,o),
(523,-50,cs),
(625,-53,o),
(841,-51,o),
(940,-48,c),
(942,-38,o),
(947,-24,o),
(952,-17,c),
(849,-22,o),
(623,-25,o),
(521,-21,cs),
(388,-16,o),
(282,23,o),
(226,105,c)
);
},
{
closed = 1;
nodes = (
(70,790,l),
(135,742,o),
(205,670,o),
(235,619,c),
(259,637,l),
(229,688,o),
(158,759,o),
(92,806,c)
);
}
);
vertWidth = 1000;
width = 1000;
},
{
layerId = "94DDBC6A-1627-4027-9125-871D02041BCD";
shapes = (
{
closed = 1;
nodes = (
(355,661,l),
(377,622,o),
(398,571,o),
(404,538,c),
(520,581,l),
(513,615,o),
(489,664,o),
(465,701,c)
);
},
{
closed = 1;
nodes = (
(528,682,l),
(547,643,o),
(564,590,o),
(566,557,c),
(685,590,l),
(681,624,o),
(661,674,o),
(640,712,c)
);
},
{
closed = 1;
nodes = (
(772,732,l),
(759,682,o),
(732,615,o),
(710,571,c),
(814,530,l),
(839,569,o),
(870,628,o),
(903,686,c)
);
},
{
closed = 1;
nodes = (
(837,856,l),
(721,826,o),
(516,804,o),
(306,799,c),
(319,773,o),
(334,726,o),
(338,698,c),
(560,702,o),
(787,728,o),
(928,765,c)
);
},
{
closed = 1;
nodes = (
(953,388,l),
(320,388,l),
(320,282,l),
(953,282,l)
);
},
{
closed = 1;
nodes = (
(916,526,l),
(419,526,l),
(419,421,l),
(916,421,l)
);
},
{
closed = 1;
nodes = (
(493,261,l),
(360,261,l),
(360,84,l),
(906,84,l),
(906,261,l),
(771,261,l),
(771,191,l),
(493,191,l)
);
},
{
closed = 1;
nodes = (
(700,484,l),
(559,484,l),
(559,150,l),
(700,150,l)
);
},
{
closed = 1;
nodes = (
(415,586,l),
(394,529,o),
(354,469,o),
(309,430,c),
(340,418,o),
(395,392,o),
(423,373,c),
(465,417,o),
(511,487,o),
(538,556,c)
);
},
{
closed = 1;
nodes = (
(277,91,l),
(277,468,l),
(35,468,l),
(35,334,l),
(138,334,l),
(138,91,l)
);
},
{
closed = 1;
nodes = (
(151,148,l),
(109,115,o),
(62,84,o),
(21,59,c),
(88,-86,l),
(139,-43,o),
(178,-8,o),
(216,29,c),
(275,-47,o),
(350,-73,o),
(463,-78,cs),
(591,-84,o),
(804,-82,o),
(935,-75,c),
(942,-34,o),
(964,33,o),
(980,66,c),
(831,53,o),
(590,50,o),
(465,56,cs),
(371,60,o),
(310,86,o),
(277,148,c)
);
},
{
closed = 1;
nodes = (
(34,747,l),
(88,698,o),
(154,629,o),
(181,581,c),
(301,673,l),
(269,720,o),
(200,785,o),
(145,829,c)
);
}
);
vertWidth = 1000;
width = 1000;
}
);
note = cid40489;
unicode = 36965;
}
{
glyphname = uni90BB;
layers = (
{
layerId = m01;
shapes = (
{
closed = 1;
nodes = (
(323,827,l),
(308,827,l),
(255,725,o),
(159,604,o),
(29,505,c),
(35,502,o),
(45,494,o),
(50,488,c),
(182,590,o),
(277,710,o),
(333,809,c),
(333,817,l),
(323,817,l)
);
},
{
closed = 1;
nodes = (
(310,827,l),
(310,806,l),
(318,806,l),
(401,723,o),
(499,611,o),
(553,538,c),
(576,561,l),
(522,632,o),
(420,743,o),
(337,827,c)
);
},
{
closed = 1;
nodes = (
(924,776,l),
(615,776,l),
(615,-71,l),
(644,-71,l),
(644,747,l),
(924,747,l)
);
},
{
closed = 1;
nodes = (
(921,776,l),
(916,776,l),
(916,770,l),
(871,681,o),
(804,560,o),
(735,451,c),
(869,354,o),
(911,276,o),
(911,204,cs),
(912,165,o),
(903,130,o),
(875,114,cs),
(860,106,o),
(841,101,o),
(820,99,cs),
(793,97,o),
(753,98,o),
(712,102,c),
(719,92,o),
(723,80,o),
(724,71,c),
(757,68,o),
(797,68,o),
(828,71,cs),
(854,74,o),
(877,80,o),
(894,90,cs),
(929,111,o),
(941,155,o),
(941,204,cs),
(941,280,o),
(903,360,o),
(773,457,c),
(832,553,o),
(898,669,o),
(948,763,c),
(927,778,l)
);
},
{
closed = 1;
nodes = (
(179,157,l),
(267,88,o),
(366,-5,o),
(420,-68,c),
(443,-48,l),
(388,15,o),
(289,107,o),
(203,175,c)
);
},
{
closed = 1;
nodes = (
(505,358,l),
(109,358,l),
(109,328,l),
(505,328,l)
);
},
{
closed = 1;
nodes = (
(502,358,l),
(496,358,l),
(496,349,l),
(451,263,o),
(365,146,o),
(299,83,c),
(306,78,o),
(315,70,o),
(321,63,c),
(387,126,o),
(479,252,o),
(530,349,c),
(509,360,l)
);
},
{
closed = 1;
nodes = (
(240,575,l),
(299,533,o),
(369,471,o),
(402,430,c),
(425,453,l),
(391,492,o),
(322,552,o),
(262,593,c)
);
}
);
vertWidth = 1000;
width = 1000;
},
{
layerId = "94DDBC6A-1627-4027-9125-871D02041BCD";
shapes = (
{
closed = 1;
nodes = (
(309,844,l),
(222,844,l),
(183,754,o),
(113,647,o),
(11,568,c),
(44,543,o),
(86,496,o),
(107,461,c),
(227,564,o),
(300,683,o),
(352,772,c),
(352,817,l),
(309,817,l)
);
},
{
closed = 1;
nodes = (
(251,844,l),
(251,737,l),
(276,737,l),
(344,679,o),
(433,573,o),
(474,514,c),
(582,616,l),
(529,681,o),
(431,777,o),
(358,844,c)
);
},
{
closed = 1;
nodes = (
(862,799,l),
(573,799,l),
(573,-95,l),
(714,-95,l),
(714,663,l),
(862,663,l)
);
},
{
closed = 1;
nodes = (
(854,799,l),
(826,799,l),
(826,748,l),
(809,681,o),
(767,519,o),
(734,425,c),
(802,352,o),
(820,281,o),
(820,231,cs),
(820,198,o),
(813,179,o),
(798,170,cs),
(788,163,o),
(774,161,o),
(761,161,cs),
(747,161,o),
(732,161,o),
(711,163,c),
(734,123,o),
(747,61,o),
(748,22,c),
(778,21,o),
(807,22,o),
(828,25,cs),
(856,29,o),
(880,38,o),
(900,53,cs),
(941,81,o),
(959,132,o),
(959,213,cs),
(959,276,o),
(948,355,o),
(874,442,c),
(909,528,o),
(949,641,o),
(981,739,c),
(875,804,l)
);
},
{
closed = 1;
nodes = (
(119,129,l),
(215,53,o),
(314,-39,o),
(359,-95,c),
(456,11,l),
(408,61,o),
(303,151,o),
(211,219,c)
);
},
{
closed = 1;
nodes = (
(433,401,l),
(90,401,l),
(90,271,l),
(433,271,l)
);
},
{
closed = 1;
nodes = (
(414,401,l),
(392,401,l),
(392,367,l),
(366,288,o),
(305,190,o),
(238,111,c),
(268,94,o),
(320,52,o),
(343,27,c),
(413,111,o),
(489,237,o),
(539,354,c),
(434,410,l)
);
},
{
closed = 1;
nodes = (
(192,516,l),
(244,486,o),
(310,438,o),
(340,405,c),
(430,499,l),
(397,533,o),
(328,575,o),
(276,601,c)
);
}
);
vertWidth = 1000;
width = 1000;
}
);
note = cid40677;
unicode = 37051;
}
{
glyphname = uni949F;
layers = (
{
layerId = m01;
shapes = (
{
closed = 1;
nodes = (
(920,609,l),
(455,609,l),
(455,198,l),
(484,198,l),
(484,579,l),
(891,579,l),
(891,202,l),
(920,202,l)
);
},
{
closed = 1;
nodes = (
(701,829,l),
(672,829,l),
(672,-70,l),
(701,-70,l)
);
},
{
closed = 1;
nodes = (
(911,288,l),
(469,288,l),
(469,259,l),
(911,259,l)
);
},
{
closed = 1;
nodes = (
(189,836,l),
(164,726,o),
(107,614,o),
(40,545,c),
(48,540,o),
(57,531,o),
(62,524,c),
(131,596,o),
(191,714,o),
(218,830,c)
);
},
{
closed = 1;
nodes = (
(418,712,l),
(163,712,l),
(147,682,l),
(418,682,l)
);
},
{
closed = 1;
nodes = (
(394,542,l),
(106,542,l),
(106,513,l),
(394,513,l)
);
},
{
closed = 1;
nodes = (
(425,339,l),
(51,339,l),
(51,310,l),
(425,310,l)
);
},
{
closed = 1;
nodes = (
(257,524,l),
(228,524,l),
(228,5,l),
(257,15,l)
);
},
{
closed = 1;
nodes = (
(146,-41,l),
(215,-17,o),
(321,22,o),
(422,60,c),
(416,87,l),
(308,47,o),
(199,8,o),
(131,-15,c)
);
}
);
vertWidth = 1000;
width = 1000;
},
{
layerId = "94DDBC6A-1627-4027-9125-871D02041BCD";
shapes = (
{
closed = 1;
nodes = (
(963,661,l),
(436,661,l),
(436,162,l),
(567,162,l),
(567,521,l),
(825,521,l),
(825,171,l),
(963,171,l)
);
},
{
closed = 1;
nodes = (
(767,853,l),
(624,853,l),
(624,-97,l),
(767,-97,l)
);
},
{
closed = 1;
nodes = (
(892,364,l),
(513,364,l),
(513,224,l),
(892,224,l)
);
},
{
closed = 1;
nodes = (
(150,860,l),
(126,770,o),
(73,677,o),
(11,619,c),
(45,589,o),
(87,542,o),
(104,512,c),
(181,586,o),
(250,710,o),
(283,834,c)
);
},
{
closed = 1;
nodes = (
(416,767,l),
(166,767,l),
(142,629,l),
(416,629,l)
);
},
{
closed = 1;
nodes = (
(401,576,l),
(103,576,l),
(103,447,l),
(401,447,l)
);
},
{
closed = 1;
nodes = (
(417,370,l),
(50,370,l),
(50,241,l),
(417,241,l)
);
},
{
closed = 1;
nodes = (
(312,561,l),
(174,561,l),
(174,10,l),
(312,60,l)
);
},
{
closed = 1;
nodes = (
(169,-97,l),
(248,-61,o),
(349,-14,o),
(432,26,c),
(398,147,l),
(301,109,o),
(186,66,o),
(102,35,c)
);
}
);
vertWidth = 1000;
width = 1000;
}
);
note = cid42608;
unicode = 38047;
}
{
glyphname = uni94A2;
layers = (
{
layerId = m01;
shapes = (
{
closed = 1;
nodes = (
(523,570,l),
(636,435,o),
(757,256,o),
(817,137,c),
(842,153,l),
(781,272,o),
(659,449,o),
(547,584,c)
);
},
{
closed = 1;
nodes = (
(790,701,l),
(738,453,o),
(631,208,o),
(512,64,c),
(520,59,o),
(533,50,o),
(539,45,c),
(656,194,o),
(765,445,o),
(820,695,c)
);
},
{
closed = 1;
nodes = (
(179,836,l),
(154,725,o),
(101,613,o),
(40,545,c),
(48,540,o),
(57,531,o),
(62,524,c),
(125,595,o),
(181,713,o),
(208,830,c)
);
},
{
closed = 1;
nodes = (
(408,712,l),
(153,712,l),
(137,682,l),
(408,682,l)
);
},
{
closed = 1;
nodes = (
(374,542,l),
(106,542,l),
(106,513,l),
(374,513,l)
);
},
{
closed = 1;
nodes = (
(405,339,l),
(51,339,l),
(51,310,l),
(405,310,l)
);
},
{
closed = 1;
nodes = (
(247,524,l),
(218,524,l),
(218,5,l),
(247,15,l)
);
},
{
closed = 1;
nodes = (
(146,-41,l),
(219,-16,o),
(317,20,o),
(402,53,c),
(396,80,l),
(304,46,o),
(202,9,o),
(131,-15,c)
);
},
{
closed = 1;
nodes = (
(901,780,l),
(441,780,l),
(441,-70,l),
(471,-70,l),
(471,751,l),
(901,751,l)
);
},
{
closed = 1;
nodes = (
(918,780,l),
(889,780,l),
(889,-18,ls),
(889,-35,o),
(883,-40,o),
(867,-41,cs),
(851,-42,o),
(796,-43,o),
(730,-41,c),
(735,-50,o),
(740,-64,o),
(743,-71,c),
(821,-71,o),
(866,-71,o),
(887,-65,cs),
(909,-60,o),
(918,-47,o),
(918,-17,cs)
);
}
);
vertWidth = 1000;
width = 1000;
},
{
layerId = "94DDBC6A-1627-4027-9125-871D02041BCD";
shapes = (
{
closed = 1;
nodes = (
(519,508,l),
(604,384,o),
(692,221,o),
(729,117,c),
(829,188,l),
(790,288,o),
(699,449,o),
(612,572,c)
);
},
{
closed = 1;
nodes = (
(700,642,l),
(672,429,o),
(600,228,o),
(514,121,c),
(538,102,o),
(583,59,o),
(602,37,c),
(702,158,o),
(784,385,o),
(816,626,c)
);
},
{
closed = 1;
nodes = (
(150,860,l),
(126,770,o),
(73,677,o),
(11,619,c),
(45,589,o),
(87,542,o),
(104,512,c),
(181,586,o),
(250,710,o),
(283,834,c)
);
},
{
closed = 1;
nodes = (
(391,767,l),
(166,767,l),
(142,629,l),
(391,629,l)
);
},
{
closed = 1;
nodes = (
(376,576,l),
(103,576,l),
(103,447,l),
(376,447,l)
);
},
{
closed = 1;
nodes = (
(397,370,l),
(50,370,l),
(50,241,l),
(397,241,l)
);
},
{
closed = 1;
nodes = (
(307,561,l),
(169,561,l),
(169,10,l),
(307,60,l)
);
},
{
closed = 1;
nodes = (
(159,-97,l),
(234,-64,o),
(328,-20,o),
(402,18,c),
(368,139,l),
(281,105,o),
(174,65,o),
(92,35,c)
);
},
{
closed = 1;
nodes = (
(872,804,l),
(412,804,l),
(412,-94,l),
(541,-94,l),
(541,664,l),
(872,664,l)
);
},
{
closed = 1;
nodes = (
(947,804,l),
(813,804,l),
(813,66,ls),
(813,50,o),
(808,45,o),
(793,45,cs),
(778,45,o),
(729,45,o),
(689,48,c),
(707,11,o),
(726,-55,o),
(729,-94,c),
(806,-94,o),
(858,-90,o),
(897,-67,cs),
(936,-44,o),
(947,-4,o),
(947,63,cs)
);
}
);
vertWidth = 1000;
width = 1000;
}
);
note = cid42611;
unicode = 38050;
}
{
glyphname = uni94C1;
layers = (
{
layerId = m01;
shapes = (
{
closed = 1;
nodes = (
(952,385,l),
(430,385,l),
(430,356,l),
(952,356,l)
);
},
{
closed = 1;
nodes = (
(917,642,l),
(520,642,l),
(514,613,l),
(917,613,l)
);
},
{
closed = 1;
nodes = (
(539,789,l),
(518,663,o),
(481,540,o),
(427,457,c),
(435,453,o),
(449,444,o),
(454,440,c),
(507,525,o),
(546,652,o),
(570,784,c)
);
},
{
closed = 1;
nodes = (
(703,831,l),
(673,831,l),
(673,536,ls),
(673,357,o),
(669,113,o),
(398,-50,c),
(405,-56,o),
(415,-65,o),
(419,-72,c),
(693,98,o),
(703,349,o),
(703,536,cs)
);
},
{
closed = 1;
nodes = (
(693,365,l),
(712,245,o),
(749,23,o),
(933,-71,c),
(939,-65,o),
(949,-55,o),
(957,-50,c),
(776,38,o),
(737,254,o),
(721,368,c)
);
},
{
closed = 1;
nodes = (
(189,836,l),
(164,726,o),
(107,614,o),
(40,545,c),
(48,540,o),
(57,531,o),
(62,524,c),
(131,596,o),
(191,714,o),
(218,830,c)
);
},
{
closed = 1;
nodes = (
(418,712,l),
(163,712,l),
(147,682,l),
(418,682,l)
);
},
{
closed = 1;
nodes = (
(394,542,l),
(106,542,l),
(106,513,l),
(394,513,l)
);
},
{
closed = 1;
nodes = (
(415,339,l),
(51,339,l),
(51,310,l),
(415,310,l)
);
},
{
closed = 1;
nodes = (
(257,524,l),
(228,524,l),
(228,5,l),
(257,15,l)
);
},
{
closed = 1;
nodes = (
(146,-41,l),
(215,-17,o),
(321,22,o),
(422,60,c),
(416,87,l),
(308,47,o),
(199,8,o),
(131,-15,c)
);
}
);
vertWidth = 1000;
width = 1000;
},
{
layerId = "94DDBC6A-1627-4027-9125-871D02041BCD";
shapes = (
{
closed = 1;
nodes = (
(974,438,l),
(437,438,l),
(437,304,l),
(974,304,l)
);
},
{
closed = 1;
nodes = (
(949,692,l),
(539,692,l),
(512,558,l),
(949,558,l)
);
},
{
closed = 1;
nodes = (
(486,815,l),
(471,699,o),
(439,581,o),
(388,510,c),
(420,496,o),
(479,464,o),
(506,444,c),
(557,527,o),
(598,659,o),
(618,793,c)
);
},
{
closed = 1;
nodes = (
(782,848,l),
(641,848,l),
(641,518,ls),
(641,353,o),
(624,139,o),
(397,9,c),
(432,-17,o),
(479,-68,o),
(500,-98,c),
(737,62,o),
(782,314,o),
(782,517,cs)
);
},
{
closed = 1;
nodes = (
(653,333,l),
(695,144,o),
(764,-12,o),
(896,-99,c),
(917,-61,o),
(961,-5,o),
(993,22,c),
(876,85,o),
(806,214,o),
(772,357,c)
);
},
{
closed = 1;
nodes = (
(150,860,l),
(126,770,o),
(73,677,o),
(11,619,c),
(45,589,o),
(87,542,o),
(104,512,c),
(181,586,o),
(250,710,o),
(283,834,c)
);
},
{
closed = 1;
nodes = (
(416,767,l),
(166,767,l),
(142,629,l),
(416,629,l)
);
},
{
closed = 1;
nodes = (
(401,576,l),
(103,576,l),
(103,447,l),
(401,447,l)
);
},
{
closed = 1;
nodes = (
(417,370,l),
(50,370,l),
(50,241,l),
(417,241,l)
);
},
{
closed = 1;
nodes = (
(312,561,l),
(174,561,l),
(174,10,l),
(312,60,l)
);
},
{
closed = 1;
nodes = (
(167,-95,l),
(250,-56,o),
(351,-5,o),
(429,37,c),
(392,157,l),
(299,115,o),
(185,68,o),
(97,35,c)
);
}
);
vertWidth = 1000;
width = 1000;
}
);
note = cid42642;
unicode = 38081;
}
{
glyphname = uni94C3;
layers = (
{
layerId = m01;
shapes = (
{
closed = 1;
nodes = (
(189,836,l),
(164,726,o),
(107,614,o),
(40,545,c),
(48,540,o),
(57,531,o),
(62,524,c),
(131,596,o),
(191,714,o),
(218,830,c)
);
},
{
closed = 1;
nodes = (
(418,712,l),
(163,712,l),
(147,682,l),
(418,682,l)
);
},
{
closed = 1;
nodes = (
(394,542,l),
(106,542,l),
(106,513,l),
(394,513,l)
);
},
{
closed = 1;
nodes = (
(425,339,l),
(51,339,l),
(51,310,l),
(425,310,l)
);
},
{
closed = 1;
nodes = (
(257,524,l),
(228,524,l),
(228,5,l),
(257,15,l)
);
},
{
closed = 1;
nodes = (
(146,-41,l),
(215,-17,o),
(321,22,o),
(422,60,c),
(416,87,l),
(308,47,o),
(199,8,o),
(131,-15,c)
);
},
{
closed = 1;
nodes = (
(740,678,o),
(842,561,o),
(942,485,c),
(946,492,o),
(955,503,o),
(961,510,c),
(864,576,o),
(756,699,o),
(695,827,c),
(664,827,l),
(617,703,o),
(517,577,o),
(411,502,c),
(417,496,o),
(426,487,o),
(430,480,c),
(536,560,o),
(632,683,o),
(681,797,c)
);
},
{
closed = 1;
nodes = (
(526,157,l),
(614,88,o),
(713,-5,o),
(767,-68,c),
(790,-48,l),
(735,15,o),
(636,107,o),
(550,175,c)
);
},
{
closed = 1;
nodes = (
(881,353,l),
(458,353,l),
(458,323,l),
(881,323,l)
);
},
{
closed = 1;
nodes = (
(877,353,l),
(872,353,l),
(872,344,l),
(821,252,o),
(730,137,o),
(651,65,c),
(658,60,o),
(668,51,o),
(673,45,c),
(753,119,o),
(843,235,o),
(905,344,c),
(884,355,l)
);
},
{
closed = 1;
nodes = (
(603,565,l),
(662,523,o),
(732,461,o),
(765,420,c),
(788,443,l),
(754,482,o),
(685,542,o),
(625,583,c)
);
}
);
vertWidth = 1000;
width = 1000;
},
{
layerId = "94DDBC6A-1627-4027-9125-871D02041BCD";
shapes = (
{
closed = 1;
nodes = (
(150,860,l),
(126,770,o),
(73,677,o),
(11,619,c),
(45,589,o),
(87,542,o),
(104,512,c),
(181,586,o),
(250,710,o),
(283,834,c)
);
},
{
closed = 1;
nodes = (
(416,767,l),
(166,767,l),
(142,629,l),
(416,629,l)
);
},
{
closed = 1;
nodes = (
(401,576,l),
(103,576,l),
(103,447,l),
(401,447,l)
);
},
{
closed = 1;
nodes = (
(417,370,l),
(50,370,l),
(50,241,l),
(417,241,l)
);
},
{
closed = 1;
nodes = (
(312,561,l),
(174,561,l),
(174,10,l),
(312,60,l)
);
},
{
closed = 1;
nodes = (
(169,-97,l),
(248,-61,o),
(349,-14,o),
(432,26,c),
(398,147,l),
(301,109,o),
(186,66,o),
(102,35,c)
);
},
{
closed = 1;
nodes = (
(734,625,o),
(825,513,o),
(917,454,c),
(936,498,o),
(965,551,o),
(991,588,c),
(896,634,o),
(807,745,o),
(748,854,c),
(617,854,l),
(576,759,o),
(486,634,o),
(388,576,c),
(412,544,o),
(442,489,o),
(457,451,c),
(554,514,o),
(641,625,o),
(687,713,c)
);
},
{
closed = 1;
nodes = (
(493,128,l),
(580,58,o),
(679,-37,o),
(733,-102,c),
(835,-5,l),
(773,59,o),
(670,149,o),
(587,212,c)
);
},
{
closed = 1;
nodes = (
(851,391,l),
(450,391,l),
(450,266,l),
(851,266,l)
);
},
{
closed = 1;
nodes = (
(838,391,l),
(819,391,l),
(819,363,l),
(778,286,o),
(702,190,o),
(625,115,c),
(655,96,o),
(700,56,o),
(722,32,c),
(798,109,o),
(887,224,o),
(952,332,c),
(858,400,l)
);
},
{
closed = 1;
nodes = (
(568,512,l),
(620,482,o),
(686,434,o),
(716,401,c),
(806,495,l),
(773,529,o),
(704,571,o),
(652,597,c)
);
}
);
vertWidth = 1000;
width = 1000;
}
);
note = cid42644;
unicode = 38083;
}
{
glyphname = uni94DC;
layers = (
{
layerId = m01;
shapes = (
{
closed = 1;
nodes = (
(179,836,l),
(154,725,o),
(101,613,o),
(40,545,c),
(48,540,o),
(57,531,o),
(62,524,c),
(125,595,o),
(181,713,o),
(208,830,c)
);
},
{
closed = 1;
nodes = (
(408,712,l),
(153,712,l),
(137,682,l),
(408,682,l)
);
},
{
closed = 1;
nodes = (
(374,542,l),
(106,542,l),
(106,513,l),
(374,513,l)
);
},
{
closed = 1;
nodes = (
(405,339,l),
(51,339,l),
(51,310,l),
(405,310,l)
);
},
{
closed = 1;
nodes = (
(247,524,l),
(218,524,l),
(218,5,l),
(247,15,l)
);
},
{
closed = 1;
nodes = (
(146,-41,l),
(219,-16,o),
(317,20,o),
(402,53,c),
(396,80,l),
(304,46,o),
(202,9,o),
(131,-15,c)
);
},
{
closed = 1;
nodes = (
(908,780,l),
(444,780,l),
(444,-70,l),
(473,-70,l),
(473,751,l),
(908,751,l)
);
},
{
closed = 1;
nodes = (
(919,780,l),
(890,780,l),
(890,-22,ls),
(890,-36,o),
(884,-41,o),
(871,-41,cs),
(859,-42,o),
(816,-42,o),
(763,-41,c),
(768,-50,o),
(772,-63,o),
(774,-69,c),
(839,-70,o),
(873,-69,o),
(893,-65,cs),
(912,-59,o),
(919,-48,o),
(919,-21,cs)
);
},
{
closed = 1;
nodes = (
(834,614,l),
(526,614,l),
(526,584,l),
(834,584,l)
);
},
{
closed = 1;
nodes = (
(589,455,l),
(560,455,l),
(560,106,l),
(589,106,l)
);
},
{
closed = 1;
nodes = (
(794,455,l),
(580,455,l),
(580,425,l),
(765,425,l),
(765,205,l),
(580,205,l),
(580,176,l),
(794,176,l)
);
}
);
vertWidth = 1000;
width = 1000;
},
{
layerId = "94DDBC6A-1627-4027-9125-871D02041BCD";
shapes = (
{
closed = 1;
nodes = (
(150,860,l),
(126,770,o),
(73,677,o),
(11,619,c),
(45,589,o),
(87,542,o),
(104,512,c),
(181,586,o),
(250,710,o),
(283,834,c)
);
},
{
closed = 1;
nodes = (
(391,767,l),
(166,767,l),
(142,629,l),
(391,629,l)
);
},
{
closed = 1;
nodes = (
(376,576,l),
(103,576,l),
(103,447,l),
(376,447,l)
);
},
{
closed = 1;
nodes = (
(397,370,l),
(50,370,l),
(50,241,l),
(397,241,l)
);
},
{
closed = 1;
nodes = (
(307,561,l),
(169,561,l),
(169,10,l),
(307,60,l)
);
},
{
closed = 1;
nodes = (
(159,-97,l),
(234,-64,o),
(328,-20,o),
(402,18,c),
(368,139,l),
(281,105,o),
(174,65,o),
(92,35,c)
);
},
{
closed = 1;
nodes = (
(880,818,l),
(413,818,l),
(413,-96,l),
(542,-96,l),
(542,687,l),
(880,687,l)
);
},
{
closed = 1;
nodes = (
(955,818,l),
(822,818,l),
(822,59,ls),
(822,45,o),
(818,41,o),
(806,41,cs),
(793,40,o),
(755,40,o),
(722,42,c),
(740,6,o),
(756,-58,o),
(760,-96,c),
(827,-96,o),
(873,-92,o),
(910,-69,cs),
(946,-46,o),
(955,-7,o),
(955,56,cs)
);
},
{
closed = 1;
nodes = (
(801,635,l),
(558,635,l),
(558,516,l),
(801,516,l)
);
},
{
closed = 1;
nodes = (
(662,459,l),
(564,459,l),
(564,94,l),
(662,94,l)
);
},
{
closed = 1;
nodes = (
(794,459,l),
(619,459,l),
(619,350,l),
(695,350,l),
(695,247,l),
(619,247,l),
(619,138,l),
(794,138,l)
);
}
);
vertWidth = 1000;
width = 1000;
}
);
note = cid42669;
unicode = 38108;
}
{
glyphname = uni94F6;
layers = (
{
layerId = m01;
shapes = (
{
closed = 1;
nodes = (
(493,782,l),
(464,782,l),
(464,-24,l),
(493,-16,l)
);
},
{
closed = 1;
nodes = (
(892,782,l),
(476,782,l),
(476,753,l),
(863,753,l),
(863,393,l),
(476,393,l),
(476,364,l),
(892,364,l)
);
},
{
closed = 1;
nodes = (
(875,589,l),
(477,589,l),
(477,560,l),
(875,560,l)
);
},
{
closed = 1;
nodes = (
(366,-61,l),
(464,-38,o),
(602,-6,o),
(734,26,c),
(731,53,l),
(590,20,o),
(447,-13,o),
(356,-32,c)
);
},
{
closed = 1;
nodes = (
(633,375,l),
(679,165,o),
(780,1,o),
(940,-71,c),
(945,-63,o),
(955,-52,o),
(963,-45,c),
(804,19,o),
(705,180,o),
(661,381,c)
);
},
{
closed = 1;
nodes = (
(919,316,l),
(868,272,o),
(778,212,o),
(716,177,c),
(735,155,l),
(799,192,o),
(883,244,o),
(942,296,c)
);
},
{
closed = 1;
nodes = (
(179,836,l),
(154,725,o),
(101,613,o),
(40,545,c),
(48,540,o),
(57,531,o),
(62,524,c),
(125,595,o),
(181,713,o),
(208,830,c)
);
},
{
closed = 1;
nodes = (
(408,712,l),
(153,712,l),
(137,682,l),
(408,682,l)
);
},
{
closed = 1;
nodes = (
(384,542,l),
(106,542,l),
(106,513,l),
(384,513,l)
);
},
{
closed = 1;
nodes = (
(415,339,l),
(51,339,l),
(51,310,l),
(415,310,l)
);
},
{
closed = 1;
nodes = (
(247,524,l),
(218,524,l),
(218,5,l),
(247,15,l)
);
},
{
closed = 1;
nodes = (
(146,-41,l),
(215,-16,o),
(316,21,o),
(407,55,c),
(401,82,l),
(303,45,o),
(198,7,o),
(131,-15,c)
);
}
);
vertWidth = 1000;
width = 1000;
},
{
layerId = "94DDBC6A-1627-4027-9125-871D02041BCD";
shapes = (
{
closed = 1;
nodes = (
(609,817,l),
(469,817,l),
(469,-6,l),
(609,23,l)
);
},
{
closed = 1;
nodes = (
(926,817,l),
(544,817,l),
(544,691,l),
(785,691,l),
(785,457,l),
(544,457,l),
(544,331,l),
(926,331,l)
);
},
{
closed = 1;
nodes = (
(835,639,l),
(546,639,l),
(546,514,l),
(835,514,l)
);
},
{
closed = 1;
nodes = (
(441,-82,l),
(529,-63,o),
(638,-39,o),
(738,-15,c),
(725,111,l),
(611,89,o),
(491,66,o),
(409,53,c)
);
},
{
closed = 1;
nodes = (
(627,386,l),
(665,156,o),
(727,-9,o),
(894,-94,c),
(914,-55,o),
(956,2,o),
(987,30,c),
(845,90,o),
(784,230,o),
(756,403,c)
);
},
{
closed = 1;
nodes = (
(875,329,l),
(836,289,o),
(768,235,o),
(722,207,c),
(800,123,l),
(850,148,o),
(915,190,o),
(976,230,c)
);
},
{
closed = 1;
nodes = (
(160,860,l),
(134,765,o),
(77,668,o),
(11,609,c),
(45,579,o),
(87,532,o),
(104,502,c),
(182,574,o),
(255,702,o),
(293,834,c)
);
},
{
closed = 1;
nodes = (
(431,767,l),
(166,767,l),
(142,629,l),
(431,629,l)
);
},
{
closed = 1;
nodes = (
(416,576,l),
(93,576,l),
(93,447,l),
(416,447,l)
);
},
{
closed = 1;
nodes = (
(437,370,l),
(50,370,l),
(50,241,l),
(437,241,l)
);
},
{
closed = 1;
nodes = (
(312,561,l),
(174,561,l),
(174,10,l),
(312,60,l)
);
},
{
closed = 1;
nodes = (
(164,-97,l),
(248,-60,o),
(350,-12,o),
(429,28,c),
(395,149,l),
(301,110,o),
(186,66,o),
(97,35,c)
);
}
);
vertWidth = 1000;
width = 1000;
}
);
note = cid42695;
unicode = 38134;
}
{
glyphname = uni952D;
layers = (
{
layerId = m01;
shapes = (
{
closed = 1;
nodes = (
(916,504,l),
(443,504,l),
(443,474,l),
(916,474,l)
);
},
{
closed = 1;
nodes = (
(910,278,l),
(675,278,l),
(675,249,l),
(910,249,l)
);
},
{
closed = 1;
nodes = (
(690,831,l),
(661,831,l),
(661,681,l),
(690,681,l)
);
},
{
closed = 1;
nodes = (
(690,494,l),
(661,494,l),
(661,-17,l),
(690,-17,l)
);
},
{
closed = 1;
nodes = (
(938,697,l),
(421,697,l),
(421,549,l),
(450,549,l),
(450,668,l),
(909,668,l),
(909,549,l),
(938,549,l)
);
},
{
closed = 1;
nodes = (
(506,354,l),
(496,206,o),
(465,33,o),
(362,-52,c),
(369,-56,o),
(380,-65,o),
(385,-70,c),
(491,21,o),
(524,194,o),
(536,354,c)
);
},
{
closed = 1;
nodes = (
(493,224,l),
(543,-6,o),
(642,-53,o),
(798,-53,cs),
(910,-53,l),
(945,-53,l),
(946,-45,o),
(952,-31,o),
(958,-23,c),
(935,-23,o),
(814,-23,o),
(799,-23,cs),
(661,-23,o),
(561,19,o),
(517,234,c)
);
},
{
closed = 1;
nodes = (
(179,836,l),
(154,725,o),
(101,613,o),
(40,545,c),
(48,540,o),
(57,531,o),
(62,524,c),
(125,595,o),
(181,713,o),
(208,830,c)
);
},
{
closed = 1;
nodes = (
(398,712,l),
(153,712,l),
(137,682,l),
(398,682,l)
);
},
{
closed = 1;
nodes = (
(374,542,l),
(106,542,l),
(106,513,l),
(374,513,l)
);
},
{
closed = 1;
nodes = (
(395,339,l),
(51,339,l),
(51,310,l),
(395,310,l)
);
},
{
closed = 1;
nodes = (
(247,524,l),
(218,524,l),
(218,5,l),
(247,15,l)
);
},
{
closed = 1;
nodes = (
(146,-41,l),
(219,-16,o),
(317,20,o),
(402,53,c),
(396,80,l),
(304,46,o),
(202,9,o),
(131,-15,c)
);
}
);
vertWidth = 1000;
width = 1000;
},
{
layerId = "94DDBC6A-1627-4027-9125-871D02041BCD";
shapes = (
{
closed = 1;
nodes = (
(936,527,l),
(445,527,l),
(445,402,l),
(936,402,l)
);
},
{
closed = 1;
nodes = (
(915,298,l),
(676,298,l),
(676,174,l),
(915,174,l)
);
},
{
closed = 1;
nodes = (
(762,854,l),
(612,854,l),
(612,669,l),
(762,669,l)
);
},
{
closed = 1;
nodes = (
(759,465,l),
(619,465,l),
(619,-8,l),
(759,-8,l)
);
},
{
closed = 1;
nodes = (
(963,740,l),
(403,740,l),
(403,542,l),
(536,542,l),
(536,622,l),
(824,622,l),
(824,542,l),
(963,542,l)
);
},
{
closed = 1;
nodes = (
(455,359,l),
(450,236,o),
(440,93,o),
(357,4,c),
(390,-18,o),
(429,-65,o),
(449,-99,c),
(555,17,o),
(575,195,o),
(583,359,c)
);
},
{
closed = 1;
nodes = (
(476,193,l),
(537,-42,o),
(651,-80,o),
(800,-80,cs),
(909,-80,l),
(944,-80,l),
(950,-43,o),
(967,21,o),
(984,51,c),
(941,49,o),
(841,49,o),
(806,49,cs),
(704,49,o),
(612,67,o),
(566,220,c)
);
},
{
closed = 1;
nodes = (
(150,860,l),
(126,770,o),
(73,677,o),
(11,619,c),
(45,589,o),
(87,542,o),
(104,512,c),
(181,586,o),
(250,710,o),
(283,834,c)
);
},
{
closed = 1;
nodes = (
(381,767,l),
(166,767,l),
(142,629,l),
(381,629,l)
);
},
{
closed = 1;
nodes = (
(366,576,l),
(103,576,l),
(103,447,l),
(366,447,l)
);
},
{
closed = 1;
nodes = (
(387,370,l),
(50,370,l),
(50,241,l),
(387,241,l)
);
},
{
closed = 1;
nodes = (
(302,561,l),
(164,561,l),
(164,10,l),
(302,60,l)
);
},
{
closed = 1;
nodes = (
(159,-97,l),
(231,-65,o),
(321,-22,o),
(392,14,c),
(358,135,l),
(270,100,o),
(168,62,o),
(92,35,c)
);
}
);
vertWidth = 1000;
width = 1000;
}
);
note = cid42750;
unicode = 38189;
}
{
glyphname = uni9547;
layers = (
{
layerId = m01;
shapes = (
{
closed = 1;
nodes = (
(932,731,l),
(438,731,l),
(438,702,l),
(932,702,l)
);
},
{
closed = 1;
nodes = (
(949,153,l),
(404,153,l),
(404,124,l),
(949,124,l)
);
},
{
closed = 1;
nodes = (
(694,831,l),
(664,831,l),
(664,597,l),
(694,597,l)
);
},
{
closed = 1;
nodes = (
(583,96,l),
(537,41,o),
(457,-10,o),
(384,-44,c),
(392,-50,o),
(404,-63,o),
(408,-68,c),
(479,-31,o),
(563,27,o),
(613,86,c)
);
},
{
closed = 1;
nodes = (
(760,85,l),
(821,39,o),
(896,-28,o),
(933,-70,c),
(961,-52,l),
(923,-11,o),
(850,53,o),
(785,100,c)
);
},
{
closed = 1;
nodes = (
(865,497,l),
(502,497,l),
(502,468,l),
(865,468,l)
);
},
{
closed = 1;
nodes = (
(867,383,l),
(500,383,l),
(500,354,l),
(867,354,l)
);
},
{
closed = 1;
nodes = (
(866,268,l),
(503,268,l),
(503,239,l),
(866,239,l)
);
},
{
closed = 1;
nodes = (
(879,611,l),
(484,611,l),
(484,146,l),
(514,146,l),
(514,581,l),
(850,581,l),
(850,146,l),
(879,146,l)
);
},
{
closed = 1;
nodes = (
(179,836,l),
(154,725,o),
(101,613,o),
(40,545,c),
(48,540,o),
(57,531,o),
(62,524,c),
(125,595,o),
(181,713,o),
(208,830,c)
);
},
{
closed = 1;
nodes = (
(398,712,l),
(153,712,l),
(137,682,l),
(398,682,l)
);
},
{
closed = 1;
nodes = (
(374,542,l),
(106,542,l),
(106,513,l),
(374,513,l)
);
},
{
closed = 1;
nodes = (
(395,339,l),
(51,339,l),
(51,310,l),
(395,310,l)
);
},
{
closed = 1;
nodes = (
(247,524,l),
(218,524,l),
(218,5,l),
(247,15,l)
);
},
{
closed = 1;
nodes = (
(146,-41,l),
(219,-16,o),
(317,20,o),
(402,53,c),
(396,80,l),
(304,46,o),
(202,9,o),
(131,-15,c)
);
}
);
vertWidth = 1000;
width = 1000;
},
{
layerId = "94DDBC6A-1627-4027-9125-871D02041BCD";
shapes = (
{
closed = 1;
nodes = (
(950,781,l),
(427,781,l),
(427,668,l),
(950,668,l)
);
},
{
closed = 1;
nodes = (
(978,209,l),
(404,209,l),
(404,95,l),
(978,95,l)
);
},
{
closed = 1;
nodes = (
(757,856,l),
(618,856,l),
(618,595,l),
(757,595,l)
);
},
{
closed = 1;
nodes = (
(540,112,l),
(499,69,o),
(426,29,o),
(355,3,c),
(384,-21,o),
(432,-73,o),
(454,-100,c),
(530,-63,o),
(619,1,o),
(672,65,c)
);
},
{
closed = 1;
nodes = (
(708,57,l),
(765,11,o),
(835,-55,o),
(867,-96,c),
(991,-20,l),
(955,21,o),
(888,77,o),
(830,118,c)
);
},
{
closed = 1;
nodes = (
(849,516,l),
(515,516,l),
(515,442,l),
(849,442,l)
);
},
{
closed = 1;
nodes = (
(858,414,l),
(515,414,l),
(515,340,l),
(858,340,l)
);
},
{
closed = 1;
nodes = (
(858,312,l),
(515,312,l),
(515,238,l),
(858,238,l)
);
},
{
closed = 1;
nodes = (
(910,634,l),
(467,634,l),
(467,168,l),
(593,168,l),
(593,544,l),
(778,544,l),
(778,168,l),
(910,168,l)
);
},
{
closed = 1;
nodes = (
(150,860,l),
(126,770,o),
(73,677,o),
(11,619,c),
(45,589,o),
(87,542,o),
(104,512,c),
(181,586,o),
(250,710,o),
(283,834,c)
);
},
{
closed = 1;
nodes = (
(406,767,l),
(166,767,l),
(142,629,l),
(406,629,l)
);
},
{
closed = 1;
nodes = (
(391,576,l),
(103,576,l),
(103,447,l),
(391,447,l)
);
},
{
closed = 1;
nodes = (
(407,370,l),
(50,370,l),
(50,241,l),
(407,241,l)
);
},
{
closed = 1;
nodes = (
(301,561,l),
(169,561,l),
(169,10,l),
(301,60,l)
);
},
{
closed = 1;
nodes = (
(160,-95,l),
(234,-56,o),
(329,-5,o),
(406,38,c),
(369,157,l),
(278,116,o),
(171,69,o),
(92,35,c)
);
}
);
vertWidth = 1000;
width = 1000;
}
);
note = cid42776;
unicode = 38215;
}
{
glyphname = uni957F;
layers = (
{
layerId = m01;
shapes = (
{
closed = 1;
nodes = (
(121,-63,l),
(240,-40,o),
(418,-7,o),
(584,26,c),
(583,53,l),
(406,20,o),
(223,-15,o),
(111,-34,c)
);
},
{
closed = 1;
nodes = (
(293,823,l),
(264,823,l),
(264,-20,l),
(293,-15,l)
);
},
{
closed = 1;
nodes = (
(939,425,l),
(61,425,l),
(61,395,l),
(939,395,l)
);
},
{
closed = 1;
nodes = (
(787,805,l),
(690,694,o),
(532,589,o),
(378,532,c),
(386,526,o),
(397,514,o),
(401,507,c),
(553,567,o),
(713,678,o),
(815,794,c)
);
},
{
closed = 1;
nodes = (
(488,408,l),
(561,157,o),
(721,-8,o),
(936,-74,c),
(941,-65,o),
(949,-55,o),
(955,-49,c),
(741,9,o),
(583,174,o),
(514,417,c)
);
}
);
width = 1000;
},
{
layerId = "94DDBC6A-1627-4027-9125-871D02041BCD";
shapes = (
{
closed = 1;
nodes = (
(118,-90,l),
(240,-73,o),
(402,-51,o),
(553,-27,c),
(547,111,l),
(383,88,o),
(204,65,o),
(84,53,c)
);
},
{
closed = 1;
nodes = (
(362,854,l),
(208,854,l),
(208,10,l),
(362,37,l)
);
},
{
closed = 1;
nodes = (
(953,486,l),
(48,486,l),
(48,341,l),
(953,341,l)
);
},
{
closed = 1;
nodes = (
(722,839,l),
(657,756,o),
(533,680,o),
(400,641,c),
(435,609,o),
(482,555,o),
(506,520,c),
(635,567,o),
(776,665,o),
(870,774,c)
);
},
{
closed = 1;
nodes = (
(455,378,l),
(518,133,o),
(673,-37,o),
(886,-96,c),
(905,-57,o),
(946,4,o),
(978,35,c),
(777,79,o),
(638,213,o),
(589,409,c)
);
}
);
width = 1000;
}
);
note = cid42842;
unicode = 38271;
}
{
glyphname = uni95EE;
layers = (
{
layerId = m01;
shapes = (
{
closed = 1;
nodes = (
(111,621,l),
(111,-72,l),
(140,-72,l),
(140,621,l)
);
},
{
closed = 1;
nodes = (
(126,797,l),
(184,751,o),
(241,689,o),
(275,637,c),
(297,654,l),
(262,707,o),
(205,768,o),
(148,812,c)
);
},
{
closed = 1;
nodes = (
(364,768,l),
(364,738,l),
(876,738,l),
(876,768,l)
);
},
{
closed = 1;
nodes = (
(858,768,l),
(858,-17,ls),
(858,-33,o),
(852,-38,o),
(835,-39,cs),
(819,-40,o),
(760,-41,o),
(691,-39,c),
(696,-48,o),
(702,-62,o),
(704,-70,c),
(782,-71,o),
(831,-70,o),
(856,-64,cs),
(879,-59,o),
(888,-46,o),
(888,-17,cs),
(888,768,l)
);
},
{
closed = 1;
nodes = (
(352,531,l),
(352,502,l),
(632,502,l),
(632,206,l),
(352,206,l),
(352,177,l),
(662,177,l),
(662,531,l)
);
},
{
closed = 1;
nodes = (
(336,531,l),
(336,103,l),
(366,103,l),
(366,531,l)
);
}
);
vertWidth = 1000;
width = 1000;
},
{
layerId = "94DDBC6A-1627-4027-9125-871D02041BCD";
shapes = (
{
closed = 1;
nodes = (
(64,605,l),
(64,-95,l),
(208,-95,l),
(208,605,l)
);
},
{
closed = 1;
nodes = (
(69,782,l),
(130,729,o),
(187,659,o),
(218,602,c),
(330,682,l),
(295,738,o),
(234,804,o),
(174,852,c)
);
},
{
closed = 1;
nodes = (
(341,809,l),
(341,675,l),
(895,675,l),
(895,809,l)
);
},
{
closed = 1;
nodes = (
(792,809,l),
(792,70,ls),
(792,52,o),
(786,45,o),
(768,45,cs),
(751,45,o),
(688,44,o),
(642,49,c),
(660,11,o),
(681,-53,o),
(686,-94,c),
(773,-94,o),
(834,-91,o),
(878,-69,cs),
(922,-45,o),
(937,-8,o),
(937,68,cs),
(937,809,l)
);
},
{
closed = 1;
nodes = (
(372,544,l),
(372,415,l),
(550,415,l),
(550,284,l),
(372,284,l),
(372,155,l),
(691,155,l),
(691,544,l)
);
},
{
closed = 1;
nodes = (
(300,544,l),
(300,103,l),
(430,103,l),
(430,544,l)
);
}
);
vertWidth = 1000;
width = 1000;
}
);
note = cid43019;
unicode = 38382;
}
{
glyphname = uni95F4;
layers = (
{
layerId = m01;
shapes = (
{
closed = 1;
nodes = (
(140,621,l),
(111,621,l),
(111,-72,l),
(140,-72,l)
);
},
{
closed = 1;
nodes = (
(126,796,l),
(179,754,o),
(236,693,o),
(264,647,c),
(288,664,l),
(258,710,o),
(200,771,o),
(148,811,c)
);
},
{
closed = 1;
nodes = (
(876,768,l),
(364,768,l),
(364,738,l),
(876,738,l)
);
},
{
closed = 1;
nodes = (
(888,768,l),
(858,768,l),
(858,-17,ls),
(858,-33,o),
(852,-38,o),
(835,-39,cs),
(819,-40,o),
(760,-41,o),
(691,-39,c),
(696,-48,o),
(702,-62,o),
(704,-70,c),
(782,-71,o),
(831,-70,o),
(856,-64,cs),
(879,-59,o),
(888,-46,o),
(888,-17,cs)
);
},
{
closed = 1;
nodes = (
(657,369,l),
(341,369,l),
(341,339,l),
(657,339,l)
);
},
{
closed = 1;
nodes = (
(670,560,l),
(341,560,l),
(341,530,l),
(641,530,l),
(641,176,l),
(341,176,l),
(341,146,l),
(670,146,l)
);
},
{
closed = 1;
nodes = (
(354,560,l),
(325,560,l),
(325,76,l),
(354,76,l)
);
}
);
vertWidth = 1000;
width = 1000;
},
{
layerId = "94DDBC6A-1627-4027-9125-871D02041BCD";
shapes = (
{
closed = 1;
nodes = (
(207,605,l),
(60,605,l),
(60,-93,l),
(207,-93,l)
);
},
{
closed = 1;
nodes = (
(74,782,l),
(119,732,o),
(170,663,o),
(190,618,c),
(313,696,l),
(290,743,o),
(235,807,o),
(189,852,c)
);
},
{
closed = 1;
nodes = (
(882,809,l),
(332,809,l),
(332,674,l),
(882,674,l)
);
},
{
closed = 1;
nodes = (
(940,809,l),
(791,809,l),
(791,64,ls),
(791,46,o),
(785,39,o),
(766,39,cs),
(750,38,o),
(687,38,o),
(642,41,c),
(661,6,o),
(681,-55,o),
(687,-93,c),
(774,-94,o),
(835,-91,o),
(879,-69,cs),
(924,-47,o),
(940,-12,o),
(940,63,cs)
);
},
{
closed = 1;
nodes = (
(623,396,l),
(366,396,l),
(366,276,l),
(623,276,l)
);
},
{
closed = 1;
nodes = (
(692,577,l),
(357,577,l),
(357,452,l),
(556,452,l),
(556,220,l),
(357,220,l),
(357,95,l),
(692,95,l)
);
},
{
closed = 1;
nodes = (
(429,577,l),
(298,577,l),
(298,41,l),
(429,41,l)
);
}
);
vertWidth = 1000;
width = 1000;
}
);
note = cid43021;
unicode = 38388;
}
